%TF.GenerationSoftware,KiCad,Pcbnew,(5.1.9-0-10_14)*%
%TF.CreationDate,2024-01-14T18:13:30-08:00*%
%TF.ProjectId,Palette,50616c65-7474-4652-9e6b-696361645f70,rev?*%
%TF.SameCoordinates,Original*%
%TF.FileFunction,Legend,Top*%
%TF.FilePolarity,Positive*%
%FSLAX46Y46*%
G04 Gerber Fmt 4.6, Leading zero omitted, Abs format (unit mm)*
G04 Created by KiCad (PCBNEW (5.1.9-0-10_14)) date 2024-01-14 18:13:30*
%MOMM*%
%LPD*%
G01*
G04 APERTURE LIST*
%ADD10C,0.100000*%
%ADD11C,0.120000*%
%ADD12C,0.150000*%
%ADD13C,0.010000*%
%ADD14C,0.300000*%
G04 APERTURE END LIST*
D10*
G36*
X70358000Y-92456000D02*
G01*
X68326000Y-92456000D01*
X68326000Y-90424000D01*
X70358000Y-90424000D01*
X70358000Y-92456000D01*
G37*
X70358000Y-92456000D02*
X68326000Y-92456000D01*
X68326000Y-90424000D01*
X70358000Y-90424000D01*
X70358000Y-92456000D01*
D11*
X71120000Y-57658000D02*
G75*
G03*
X71120000Y-57658000I-3810000J0D01*
G01*
X70866000Y-57658000D02*
G75*
G03*
X70866000Y-57658000I-3556000J0D01*
G01*
X70612000Y-57658000D02*
G75*
G03*
X70612000Y-57658000I-3302000J0D01*
G01*
X70358000Y-57658000D02*
G75*
G03*
X70358000Y-57658000I-3048000J0D01*
G01*
X70104000Y-57658000D02*
G75*
G03*
X70104000Y-57658000I-2794000J0D01*
G01*
X69850000Y-57658000D02*
G75*
G03*
X69850000Y-57658000I-2540000J0D01*
G01*
X69596000Y-57658000D02*
G75*
G03*
X69596000Y-57658000I-2286000J0D01*
G01*
D12*
X253944380Y-80327047D02*
X253944380Y-80898476D01*
X253944380Y-80612761D02*
X252944380Y-80612761D01*
X253087238Y-80708000D01*
X253182476Y-80803238D01*
X253230095Y-80898476D01*
X252896761Y-79184190D02*
X254182476Y-80041333D01*
X253944380Y-78327047D02*
X253944380Y-78898476D01*
X253944380Y-78612761D02*
X252944380Y-78612761D01*
X253087238Y-78708000D01*
X253182476Y-78803238D01*
X253230095Y-78898476D01*
X253277714Y-77469904D02*
X253944380Y-77469904D01*
X252896761Y-77708000D02*
X253611047Y-77946095D01*
X253611047Y-77327047D01*
X252896761Y-76231809D02*
X254182476Y-77088952D01*
X253039619Y-75946095D02*
X252992000Y-75898476D01*
X252944380Y-75803238D01*
X252944380Y-75565142D01*
X252992000Y-75469904D01*
X253039619Y-75422285D01*
X253134857Y-75374666D01*
X253230095Y-75374666D01*
X253372952Y-75422285D01*
X253944380Y-75993714D01*
X253944380Y-75374666D01*
X252944380Y-74755619D02*
X252944380Y-74660380D01*
X252992000Y-74565142D01*
X253039619Y-74517523D01*
X253134857Y-74469904D01*
X253325333Y-74422285D01*
X253563428Y-74422285D01*
X253753904Y-74469904D01*
X253849142Y-74517523D01*
X253896761Y-74565142D01*
X253944380Y-74660380D01*
X253944380Y-74755619D01*
X253896761Y-74850857D01*
X253849142Y-74898476D01*
X253753904Y-74946095D01*
X253563428Y-74993714D01*
X253325333Y-74993714D01*
X253134857Y-74946095D01*
X253039619Y-74898476D01*
X252992000Y-74850857D01*
X252944380Y-74755619D01*
X253039619Y-74041333D02*
X252992000Y-73993714D01*
X252944380Y-73898476D01*
X252944380Y-73660380D01*
X252992000Y-73565142D01*
X253039619Y-73517523D01*
X253134857Y-73469904D01*
X253230095Y-73469904D01*
X253372952Y-73517523D01*
X253944380Y-74088952D01*
X253944380Y-73469904D01*
X253277714Y-72612761D02*
X253944380Y-72612761D01*
X252896761Y-72850857D02*
X253611047Y-73088952D01*
X253611047Y-72469904D01*
X252166380Y-84969904D02*
X251166380Y-84969904D01*
X251166380Y-84588952D01*
X251214000Y-84493714D01*
X251261619Y-84446095D01*
X251356857Y-84398476D01*
X251499714Y-84398476D01*
X251594952Y-84446095D01*
X251642571Y-84493714D01*
X251690190Y-84588952D01*
X251690190Y-84969904D01*
X252166380Y-83541333D02*
X251642571Y-83541333D01*
X251547333Y-83588952D01*
X251499714Y-83684190D01*
X251499714Y-83874666D01*
X251547333Y-83969904D01*
X252118761Y-83541333D02*
X252166380Y-83636571D01*
X252166380Y-83874666D01*
X252118761Y-83969904D01*
X252023523Y-84017523D01*
X251928285Y-84017523D01*
X251833047Y-83969904D01*
X251785428Y-83874666D01*
X251785428Y-83636571D01*
X251737809Y-83541333D01*
X252166380Y-82922285D02*
X252118761Y-83017523D01*
X252023523Y-83065142D01*
X251166380Y-83065142D01*
X252118761Y-82160380D02*
X252166380Y-82255619D01*
X252166380Y-82446095D01*
X252118761Y-82541333D01*
X252023523Y-82588952D01*
X251642571Y-82588952D01*
X251547333Y-82541333D01*
X251499714Y-82446095D01*
X251499714Y-82255619D01*
X251547333Y-82160380D01*
X251642571Y-82112761D01*
X251737809Y-82112761D01*
X251833047Y-82588952D01*
X251499714Y-81827047D02*
X251499714Y-81446095D01*
X251166380Y-81684190D02*
X252023523Y-81684190D01*
X252118761Y-81636571D01*
X252166380Y-81541333D01*
X252166380Y-81446095D01*
X251499714Y-81255619D02*
X251499714Y-80874666D01*
X251166380Y-81112761D02*
X252023523Y-81112761D01*
X252118761Y-81065142D01*
X252166380Y-80969904D01*
X252166380Y-80874666D01*
X252118761Y-80160380D02*
X252166380Y-80255619D01*
X252166380Y-80446095D01*
X252118761Y-80541333D01*
X252023523Y-80588952D01*
X251642571Y-80588952D01*
X251547333Y-80541333D01*
X251499714Y-80446095D01*
X251499714Y-80255619D01*
X251547333Y-80160380D01*
X251642571Y-80112761D01*
X251737809Y-80112761D01*
X251833047Y-80588952D01*
X251118761Y-78969904D02*
X252404476Y-79827047D01*
X251642571Y-78303238D02*
X251642571Y-78636571D01*
X252166380Y-78636571D02*
X251166380Y-78636571D01*
X251166380Y-78160380D01*
X252118761Y-77398476D02*
X252166380Y-77493714D01*
X252166380Y-77684190D01*
X252118761Y-77779428D01*
X252023523Y-77827047D01*
X251642571Y-77827047D01*
X251547333Y-77779428D01*
X251499714Y-77684190D01*
X251499714Y-77493714D01*
X251547333Y-77398476D01*
X251642571Y-77350857D01*
X251737809Y-77350857D01*
X251833047Y-77827047D01*
X252166380Y-76493714D02*
X251642571Y-76493714D01*
X251547333Y-76541333D01*
X251499714Y-76636571D01*
X251499714Y-76827047D01*
X251547333Y-76922285D01*
X252118761Y-76493714D02*
X252166380Y-76588952D01*
X252166380Y-76827047D01*
X252118761Y-76922285D01*
X252023523Y-76969904D01*
X251928285Y-76969904D01*
X251833047Y-76922285D01*
X251785428Y-76827047D01*
X251785428Y-76588952D01*
X251737809Y-76493714D01*
X251499714Y-76160380D02*
X251499714Y-75779428D01*
X251166380Y-76017523D02*
X252023523Y-76017523D01*
X252118761Y-75969904D01*
X252166380Y-75874666D01*
X252166380Y-75779428D01*
X251499714Y-75017523D02*
X252166380Y-75017523D01*
X251499714Y-75446095D02*
X252023523Y-75446095D01*
X252118761Y-75398476D01*
X252166380Y-75303238D01*
X252166380Y-75160380D01*
X252118761Y-75065142D01*
X252071142Y-75017523D01*
X252166380Y-74541333D02*
X251499714Y-74541333D01*
X251690190Y-74541333D02*
X251594952Y-74493714D01*
X251547333Y-74446095D01*
X251499714Y-74350857D01*
X251499714Y-74255619D01*
X252118761Y-73541333D02*
X252166380Y-73636571D01*
X252166380Y-73827047D01*
X252118761Y-73922285D01*
X252023523Y-73969904D01*
X251642571Y-73969904D01*
X251547333Y-73922285D01*
X251499714Y-73827047D01*
X251499714Y-73636571D01*
X251547333Y-73541333D01*
X251642571Y-73493714D01*
X251737809Y-73493714D01*
X251833047Y-73969904D01*
X251642571Y-71969904D02*
X251690190Y-71827047D01*
X251737809Y-71779428D01*
X251833047Y-71731809D01*
X251975904Y-71731809D01*
X252071142Y-71779428D01*
X252118761Y-71827047D01*
X252166380Y-71922285D01*
X252166380Y-72303238D01*
X251166380Y-72303238D01*
X251166380Y-71969904D01*
X251214000Y-71874666D01*
X251261619Y-71827047D01*
X251356857Y-71779428D01*
X251452095Y-71779428D01*
X251547333Y-71827047D01*
X251594952Y-71874666D01*
X251642571Y-71969904D01*
X251642571Y-72303238D01*
X252166380Y-71160380D02*
X252118761Y-71255619D01*
X252071142Y-71303238D01*
X251975904Y-71350857D01*
X251690190Y-71350857D01*
X251594952Y-71303238D01*
X251547333Y-71255619D01*
X251499714Y-71160380D01*
X251499714Y-71017523D01*
X251547333Y-70922285D01*
X251594952Y-70874666D01*
X251690190Y-70827047D01*
X251975904Y-70827047D01*
X252071142Y-70874666D01*
X252118761Y-70922285D01*
X252166380Y-71017523D01*
X252166380Y-71160380D01*
X252166380Y-69969904D02*
X251642571Y-69969904D01*
X251547333Y-70017523D01*
X251499714Y-70112761D01*
X251499714Y-70303238D01*
X251547333Y-70398476D01*
X252118761Y-69969904D02*
X252166380Y-70065142D01*
X252166380Y-70303238D01*
X252118761Y-70398476D01*
X252023523Y-70446095D01*
X251928285Y-70446095D01*
X251833047Y-70398476D01*
X251785428Y-70303238D01*
X251785428Y-70065142D01*
X251737809Y-69969904D01*
X252166380Y-69493714D02*
X251499714Y-69493714D01*
X251690190Y-69493714D02*
X251594952Y-69446095D01*
X251547333Y-69398476D01*
X251499714Y-69303238D01*
X251499714Y-69208000D01*
X252166380Y-68446095D02*
X251166380Y-68446095D01*
X252118761Y-68446095D02*
X252166380Y-68541333D01*
X252166380Y-68731809D01*
X252118761Y-68827047D01*
X252071142Y-68874666D01*
X251975904Y-68922285D01*
X251690190Y-68922285D01*
X251594952Y-68874666D01*
X251547333Y-68827047D01*
X251499714Y-68731809D01*
X251499714Y-68541333D01*
X251547333Y-68446095D01*
X250388380Y-84636571D02*
X249388380Y-84636571D01*
X250102666Y-84303238D01*
X249388380Y-83969904D01*
X250388380Y-83969904D01*
X250388380Y-83493714D02*
X249721714Y-83493714D01*
X249388380Y-83493714D02*
X249436000Y-83541333D01*
X249483619Y-83493714D01*
X249436000Y-83446095D01*
X249388380Y-83493714D01*
X249483619Y-83493714D01*
X250340761Y-82588952D02*
X250388380Y-82684190D01*
X250388380Y-82874666D01*
X250340761Y-82969904D01*
X250293142Y-83017523D01*
X250197904Y-83065142D01*
X249912190Y-83065142D01*
X249816952Y-83017523D01*
X249769333Y-82969904D01*
X249721714Y-82874666D01*
X249721714Y-82684190D01*
X249769333Y-82588952D01*
X250388380Y-82160380D02*
X249388380Y-82160380D01*
X250388380Y-81731809D02*
X249864571Y-81731809D01*
X249769333Y-81779428D01*
X249721714Y-81874666D01*
X249721714Y-82017523D01*
X249769333Y-82112761D01*
X249816952Y-82160380D01*
X250388380Y-80827047D02*
X249864571Y-80827047D01*
X249769333Y-80874666D01*
X249721714Y-80969904D01*
X249721714Y-81160380D01*
X249769333Y-81255619D01*
X250340761Y-80827047D02*
X250388380Y-80922285D01*
X250388380Y-81160380D01*
X250340761Y-81255619D01*
X250245523Y-81303238D01*
X250150285Y-81303238D01*
X250055047Y-81255619D01*
X250007428Y-81160380D01*
X250007428Y-80922285D01*
X249959809Y-80827047D01*
X250340761Y-79969904D02*
X250388380Y-80065142D01*
X250388380Y-80255619D01*
X250340761Y-80350857D01*
X250245523Y-80398476D01*
X249864571Y-80398476D01*
X249769333Y-80350857D01*
X249721714Y-80255619D01*
X249721714Y-80065142D01*
X249769333Y-79969904D01*
X249864571Y-79922285D01*
X249959809Y-79922285D01*
X250055047Y-80398476D01*
X250388380Y-79350857D02*
X250340761Y-79446095D01*
X250245523Y-79493714D01*
X249388380Y-79493714D01*
X250388380Y-78208000D02*
X249388380Y-78208000D01*
X249388380Y-77969904D01*
X249436000Y-77827047D01*
X249531238Y-77731809D01*
X249626476Y-77684190D01*
X249816952Y-77636571D01*
X249959809Y-77636571D01*
X250150285Y-77684190D01*
X250245523Y-77731809D01*
X250340761Y-77827047D01*
X250388380Y-77969904D01*
X250388380Y-78208000D01*
X250340761Y-76827047D02*
X250388380Y-76922285D01*
X250388380Y-77112761D01*
X250340761Y-77208000D01*
X250245523Y-77255619D01*
X249864571Y-77255619D01*
X249769333Y-77208000D01*
X249721714Y-77112761D01*
X249721714Y-76922285D01*
X249769333Y-76827047D01*
X249864571Y-76779428D01*
X249959809Y-76779428D01*
X250055047Y-77255619D01*
X250388380Y-76350857D02*
X249721714Y-76350857D01*
X249912190Y-76350857D02*
X249816952Y-76303238D01*
X249769333Y-76255619D01*
X249721714Y-76160380D01*
X249721714Y-76065142D01*
X250388380Y-75731809D02*
X249721714Y-75731809D01*
X249912190Y-75731809D02*
X249816952Y-75684190D01*
X249769333Y-75636571D01*
X249721714Y-75541333D01*
X249721714Y-75446095D01*
X250340761Y-74731809D02*
X250388380Y-74827047D01*
X250388380Y-75017523D01*
X250340761Y-75112761D01*
X250245523Y-75160380D01*
X249864571Y-75160380D01*
X249769333Y-75112761D01*
X249721714Y-75017523D01*
X249721714Y-74827047D01*
X249769333Y-74731809D01*
X249864571Y-74684190D01*
X249959809Y-74684190D01*
X250055047Y-75160380D01*
X249721714Y-74255619D02*
X250388380Y-74255619D01*
X249816952Y-74255619D02*
X249769333Y-74208000D01*
X249721714Y-74112761D01*
X249721714Y-73969904D01*
X249769333Y-73874666D01*
X249864571Y-73827047D01*
X250388380Y-73827047D01*
X250388380Y-73350857D02*
X249388380Y-73350857D01*
X249769333Y-73350857D02*
X249721714Y-73255619D01*
X249721714Y-73065142D01*
X249769333Y-72969904D01*
X249816952Y-72922285D01*
X249912190Y-72874666D01*
X250197904Y-72874666D01*
X250293142Y-72922285D01*
X250340761Y-72969904D01*
X250388380Y-73065142D01*
X250388380Y-73255619D01*
X250340761Y-73350857D01*
X250388380Y-72017523D02*
X249864571Y-72017523D01*
X249769333Y-72065142D01*
X249721714Y-72160380D01*
X249721714Y-72350857D01*
X249769333Y-72446095D01*
X250340761Y-72017523D02*
X250388380Y-72112761D01*
X250388380Y-72350857D01*
X250340761Y-72446095D01*
X250245523Y-72493714D01*
X250150285Y-72493714D01*
X250055047Y-72446095D01*
X250007428Y-72350857D01*
X250007428Y-72112761D01*
X249959809Y-72017523D01*
X250340761Y-71112761D02*
X250388380Y-71208000D01*
X250388380Y-71398476D01*
X250340761Y-71493714D01*
X250293142Y-71541333D01*
X250197904Y-71588952D01*
X249912190Y-71588952D01*
X249816952Y-71541333D01*
X249769333Y-71493714D01*
X249721714Y-71398476D01*
X249721714Y-71208000D01*
X249769333Y-71112761D01*
X250388380Y-70684190D02*
X249388380Y-70684190D01*
X250388380Y-70255619D02*
X249864571Y-70255619D01*
X249769333Y-70303238D01*
X249721714Y-70398476D01*
X249721714Y-70541333D01*
X249769333Y-70636571D01*
X249816952Y-70684190D01*
X250340761Y-69398476D02*
X250388380Y-69493714D01*
X250388380Y-69684190D01*
X250340761Y-69779428D01*
X250245523Y-69827047D01*
X249864571Y-69827047D01*
X249769333Y-69779428D01*
X249721714Y-69684190D01*
X249721714Y-69493714D01*
X249769333Y-69398476D01*
X249864571Y-69350857D01*
X249959809Y-69350857D01*
X250055047Y-69827047D01*
X250388380Y-68922285D02*
X249721714Y-68922285D01*
X249912190Y-68922285D02*
X249816952Y-68874666D01*
X249769333Y-68827047D01*
X249721714Y-68731809D01*
X249721714Y-68636571D01*
D11*
X69342000Y-57658000D02*
G75*
G03*
X69342000Y-57658000I-2032000J0D01*
G01*
X69088000Y-57658000D02*
G75*
G03*
X69088000Y-57658000I-1778000J0D01*
G01*
X68834000Y-57658000D02*
G75*
G03*
X68834000Y-57658000I-1524000J0D01*
G01*
X68580000Y-57658000D02*
G75*
G03*
X68580000Y-57658000I-1270000J0D01*
G01*
X68326000Y-57658000D02*
G75*
G03*
X68326000Y-57658000I-1016000J0D01*
G01*
X68072000Y-57658000D02*
G75*
G03*
X68072000Y-57658000I-762000J0D01*
G01*
X67818000Y-57658000D02*
G75*
G03*
X67818000Y-57658000I-508000J0D01*
G01*
X67564000Y-57658000D02*
G75*
G03*
X67564000Y-57658000I-254000J0D01*
G01*
D10*
G36*
X229362000Y-101346000D02*
G01*
X227330000Y-101346000D01*
X227330000Y-100330000D01*
X229362000Y-100330000D01*
X229362000Y-101346000D01*
G37*
G36*
X228346000Y-97282000D02*
G01*
X226314000Y-97282000D01*
X226314000Y-96266000D01*
X228346000Y-96266000D01*
X228346000Y-97282000D01*
G37*
G36*
X228346000Y-95250000D02*
G01*
X226314000Y-95250000D01*
X226314000Y-94234000D01*
X228346000Y-94234000D01*
X228346000Y-95250000D01*
G37*
G36*
X238252000Y-96266000D02*
G01*
X237236000Y-96266000D01*
X237236000Y-94234000D01*
X238252000Y-94234000D01*
X238252000Y-96266000D01*
G37*
G36*
X236220000Y-96266000D02*
G01*
X235204000Y-96266000D01*
X235204000Y-94234000D01*
X236220000Y-94234000D01*
X236220000Y-96266000D01*
G37*
G36*
X232156000Y-97282000D02*
G01*
X231140000Y-97282000D01*
X231140000Y-95250000D01*
X232156000Y-95250000D01*
X232156000Y-97282000D01*
G37*
G36*
X219964000Y-95758000D02*
G01*
X218948000Y-95758000D01*
X218948000Y-94742000D01*
X219964000Y-94742000D01*
X219964000Y-95758000D01*
G37*
G36*
X217932000Y-94234000D02*
G01*
X216916000Y-94234000D01*
X216916000Y-93218000D01*
X217932000Y-93218000D01*
X217932000Y-94234000D01*
G37*
G36*
X221996000Y-94234000D02*
G01*
X220980000Y-94234000D01*
X220980000Y-93218000D01*
X221996000Y-93218000D01*
X221996000Y-94234000D01*
G37*
G36*
X221996000Y-97282000D02*
G01*
X220980000Y-97282000D01*
X220980000Y-96266000D01*
X221996000Y-96266000D01*
X221996000Y-97282000D01*
G37*
G36*
X219964000Y-98806000D02*
G01*
X218948000Y-98806000D01*
X218948000Y-97790000D01*
X219964000Y-97790000D01*
X219964000Y-98806000D01*
G37*
G36*
X217932000Y-97282000D02*
G01*
X216916000Y-97282000D01*
X216916000Y-96266000D01*
X217932000Y-96266000D01*
X217932000Y-97282000D01*
G37*
D12*
X220004285Y-52284380D02*
X219528095Y-52284380D01*
X219480476Y-52760571D01*
X219528095Y-52712952D01*
X219623333Y-52665333D01*
X219861428Y-52665333D01*
X219956666Y-52712952D01*
X220004285Y-52760571D01*
X220051904Y-52855809D01*
X220051904Y-53093904D01*
X220004285Y-53189142D01*
X219956666Y-53236761D01*
X219861428Y-53284380D01*
X219623333Y-53284380D01*
X219528095Y-53236761D01*
X219480476Y-53189142D01*
X220670952Y-52284380D02*
X220766190Y-52284380D01*
X220861428Y-52332000D01*
X220909047Y-52379619D01*
X220956666Y-52474857D01*
X221004285Y-52665333D01*
X221004285Y-52903428D01*
X220956666Y-53093904D01*
X220909047Y-53189142D01*
X220861428Y-53236761D01*
X220766190Y-53284380D01*
X220670952Y-53284380D01*
X220575714Y-53236761D01*
X220528095Y-53189142D01*
X220480476Y-53093904D01*
X220432857Y-52903428D01*
X220432857Y-52665333D01*
X220480476Y-52474857D01*
X220528095Y-52379619D01*
X220575714Y-52332000D01*
X220670952Y-52284380D01*
X221623333Y-52284380D02*
X221718571Y-52284380D01*
X221813809Y-52332000D01*
X221861428Y-52379619D01*
X221909047Y-52474857D01*
X221956666Y-52665333D01*
X221956666Y-52903428D01*
X221909047Y-53093904D01*
X221861428Y-53189142D01*
X221813809Y-53236761D01*
X221718571Y-53284380D01*
X221623333Y-53284380D01*
X221528095Y-53236761D01*
X221480476Y-53189142D01*
X221432857Y-53093904D01*
X221385238Y-52903428D01*
X221385238Y-52665333D01*
X221432857Y-52474857D01*
X221480476Y-52379619D01*
X221528095Y-52332000D01*
X221623333Y-52284380D01*
X223051904Y-53284380D02*
X223575714Y-52617714D01*
X223051904Y-52617714D02*
X223575714Y-53284380D01*
X225194761Y-52284380D02*
X224718571Y-52284380D01*
X224670952Y-52760571D01*
X224718571Y-52712952D01*
X224813809Y-52665333D01*
X225051904Y-52665333D01*
X225147142Y-52712952D01*
X225194761Y-52760571D01*
X225242380Y-52855809D01*
X225242380Y-53093904D01*
X225194761Y-53189142D01*
X225147142Y-53236761D01*
X225051904Y-53284380D01*
X224813809Y-53284380D01*
X224718571Y-53236761D01*
X224670952Y-53189142D01*
X225861428Y-52284380D02*
X225956666Y-52284380D01*
X226051904Y-52332000D01*
X226099523Y-52379619D01*
X226147142Y-52474857D01*
X226194761Y-52665333D01*
X226194761Y-52903428D01*
X226147142Y-53093904D01*
X226099523Y-53189142D01*
X226051904Y-53236761D01*
X225956666Y-53284380D01*
X225861428Y-53284380D01*
X225766190Y-53236761D01*
X225718571Y-53189142D01*
X225670952Y-53093904D01*
X225623333Y-52903428D01*
X225623333Y-52665333D01*
X225670952Y-52474857D01*
X225718571Y-52379619D01*
X225766190Y-52332000D01*
X225861428Y-52284380D01*
X227385238Y-53284380D02*
X227385238Y-52617714D01*
X227385238Y-52712952D02*
X227432857Y-52665333D01*
X227528095Y-52617714D01*
X227670952Y-52617714D01*
X227766190Y-52665333D01*
X227813809Y-52760571D01*
X227813809Y-53284380D01*
X227813809Y-52760571D02*
X227861428Y-52665333D01*
X227956666Y-52617714D01*
X228099523Y-52617714D01*
X228194761Y-52665333D01*
X228242380Y-52760571D01*
X228242380Y-53284380D01*
X228718571Y-53284380D02*
X228718571Y-52617714D01*
X228718571Y-52284380D02*
X228670952Y-52332000D01*
X228718571Y-52379619D01*
X228766190Y-52332000D01*
X228718571Y-52284380D01*
X228718571Y-52379619D01*
X229337619Y-53284380D02*
X229242380Y-53236761D01*
X229194761Y-53141523D01*
X229194761Y-52284380D01*
X229670952Y-53236761D02*
X229766190Y-53284380D01*
X229956666Y-53284380D01*
X230051904Y-53236761D01*
X230099523Y-53141523D01*
X230099523Y-53093904D01*
X230051904Y-52998666D01*
X229956666Y-52951047D01*
X229813809Y-52951047D01*
X229718571Y-52903428D01*
X229670952Y-52808190D01*
X229670952Y-52760571D01*
X229718571Y-52665333D01*
X229813809Y-52617714D01*
X229956666Y-52617714D01*
X230051904Y-52665333D01*
D13*
G36*
X218440000Y-55118000D02*
G01*
X218440000Y-54864000D01*
X231140000Y-54864000D01*
X218440000Y-55118000D01*
G37*
X218440000Y-55118000D02*
X218440000Y-54864000D01*
X231140000Y-54864000D01*
X218440000Y-55118000D01*
G36*
X218440000Y-54864000D02*
G01*
X218440000Y-54610000D01*
X231140000Y-54610000D01*
X218440000Y-54864000D01*
G37*
X218440000Y-54864000D02*
X218440000Y-54610000D01*
X231140000Y-54610000D01*
X218440000Y-54864000D01*
G36*
X218440000Y-54610000D02*
G01*
X218440000Y-54356000D01*
X231140000Y-54356000D01*
X218440000Y-54610000D01*
G37*
X218440000Y-54610000D02*
X218440000Y-54356000D01*
X231140000Y-54356000D01*
X218440000Y-54610000D01*
G36*
X218440000Y-54356000D02*
G01*
X218440000Y-54102000D01*
X231140000Y-54102000D01*
X218440000Y-54356000D01*
G37*
X218440000Y-54356000D02*
X218440000Y-54102000D01*
X231140000Y-54102000D01*
X218440000Y-54356000D01*
G36*
X218440000Y-54102000D02*
G01*
X218440000Y-53848000D01*
X231140000Y-53848000D01*
X218440000Y-54102000D01*
G37*
X218440000Y-54102000D02*
X218440000Y-53848000D01*
X231140000Y-53848000D01*
X218440000Y-54102000D01*
D14*
X163816571Y-57685714D02*
X163888000Y-57757142D01*
X163816571Y-57828571D01*
X163745142Y-57757142D01*
X163816571Y-57685714D01*
X163816571Y-57828571D01*
X163816571Y-57257142D02*
X163745142Y-56400000D01*
X163816571Y-56328571D01*
X163888000Y-56400000D01*
X163816571Y-57257142D01*
X163816571Y-56328571D01*
X165459428Y-57114285D02*
X165388000Y-57042857D01*
X165245142Y-56971428D01*
X165102285Y-56971428D01*
X164959428Y-57042857D01*
X164888000Y-57114285D01*
X164816571Y-57257142D01*
X164816571Y-57400000D01*
X164888000Y-57542857D01*
X164959428Y-57614285D01*
X165102285Y-57685714D01*
X165245142Y-57685714D01*
X165388000Y-57614285D01*
X165459428Y-57542857D01*
X165459428Y-56971428D02*
X165459428Y-57542857D01*
X165530857Y-57614285D01*
X165602285Y-57614285D01*
X165745142Y-57542857D01*
X165816571Y-57400000D01*
X165816571Y-57042857D01*
X165673714Y-56828571D01*
X165459428Y-56685714D01*
X165173714Y-56614285D01*
X164888000Y-56685714D01*
X164673714Y-56828571D01*
X164530857Y-57042857D01*
X164459428Y-57328571D01*
X164530857Y-57614285D01*
X164673714Y-57828571D01*
X164888000Y-57971428D01*
X165173714Y-58042857D01*
X165459428Y-57971428D01*
X165673714Y-57828571D01*
X166388000Y-56828571D02*
X167459428Y-56828571D01*
X166816571Y-56185714D02*
X166388000Y-58114285D01*
X167316571Y-57471428D02*
X166245142Y-57471428D01*
X166888000Y-58114285D02*
X167316571Y-56185714D01*
X167888000Y-57757142D02*
X168102285Y-57828571D01*
X168459428Y-57828571D01*
X168602285Y-57757142D01*
X168673714Y-57685714D01*
X168745142Y-57542857D01*
X168745142Y-57400000D01*
X168673714Y-57257142D01*
X168602285Y-57185714D01*
X168459428Y-57114285D01*
X168173714Y-57042857D01*
X168030857Y-56971428D01*
X167959428Y-56900000D01*
X167888000Y-56757142D01*
X167888000Y-56614285D01*
X167959428Y-56471428D01*
X168030857Y-56400000D01*
X168173714Y-56328571D01*
X168530857Y-56328571D01*
X168745142Y-56400000D01*
X168316571Y-56114285D02*
X168316571Y-58042857D01*
X169316571Y-57828571D02*
X170459428Y-56328571D01*
X169530857Y-56328571D02*
X169673714Y-56400000D01*
X169745142Y-56542857D01*
X169673714Y-56685714D01*
X169530857Y-56757142D01*
X169388000Y-56685714D01*
X169316571Y-56542857D01*
X169388000Y-56400000D01*
X169530857Y-56328571D01*
X170388000Y-57757142D02*
X170459428Y-57614285D01*
X170388000Y-57471428D01*
X170245142Y-57400000D01*
X170102285Y-57471428D01*
X170030857Y-57614285D01*
X170102285Y-57757142D01*
X170245142Y-57828571D01*
X170388000Y-57757142D01*
X170888000Y-56471428D02*
X171173714Y-56257142D01*
X171459428Y-56471428D01*
X173173714Y-57828571D02*
X173102285Y-57828571D01*
X172959428Y-57757142D01*
X172745142Y-57542857D01*
X172388000Y-57114285D01*
X172245142Y-56900000D01*
X172173714Y-56685714D01*
X172173714Y-56542857D01*
X172245142Y-56400000D01*
X172388000Y-56328571D01*
X172459428Y-56328571D01*
X172602285Y-56400000D01*
X172673714Y-56542857D01*
X172673714Y-56614285D01*
X172602285Y-56757142D01*
X172530857Y-56828571D01*
X172102285Y-57114285D01*
X172030857Y-57185714D01*
X171959428Y-57328571D01*
X171959428Y-57542857D01*
X172030857Y-57685714D01*
X172102285Y-57757142D01*
X172245142Y-57828571D01*
X172459428Y-57828571D01*
X172602285Y-57757142D01*
X172673714Y-57685714D01*
X172888000Y-57400000D01*
X172959428Y-57185714D01*
X172959428Y-57042857D01*
X174030857Y-56328571D02*
X174030857Y-56685714D01*
X173673714Y-56542857D02*
X174030857Y-56685714D01*
X174388000Y-56542857D01*
X173816571Y-56971428D02*
X174030857Y-56685714D01*
X174245142Y-56971428D01*
X175388000Y-58400000D02*
X175316571Y-58328571D01*
X175173714Y-58114285D01*
X175102285Y-57971428D01*
X175030857Y-57757142D01*
X174959428Y-57400000D01*
X174959428Y-57114285D01*
X175030857Y-56757142D01*
X175102285Y-56542857D01*
X175173714Y-56400000D01*
X175316571Y-56185714D01*
X175388000Y-56114285D01*
X175816571Y-58400000D02*
X175888000Y-58328571D01*
X176030857Y-58114285D01*
X176102285Y-57971428D01*
X176173714Y-57757142D01*
X176245142Y-57400000D01*
X176245142Y-57114285D01*
X176173714Y-56757142D01*
X176102285Y-56542857D01*
X176030857Y-56400000D01*
X175888000Y-56185714D01*
X175816571Y-56114285D01*
X176602285Y-57971428D02*
X177745142Y-57971428D01*
X178102285Y-57257142D02*
X179245142Y-57257142D01*
X178673714Y-57828571D02*
X178673714Y-56685714D01*
X180388000Y-58400000D02*
X180316571Y-58400000D01*
X180173714Y-58328571D01*
X180102285Y-58185714D01*
X180102285Y-57471428D01*
X180030857Y-57328571D01*
X179888000Y-57257142D01*
X180030857Y-57185714D01*
X180102285Y-57042857D01*
X180102285Y-56328571D01*
X180173714Y-56185714D01*
X180316571Y-56114285D01*
X180388000Y-56114285D01*
X180816571Y-58400000D02*
X180888000Y-58400000D01*
X181030857Y-58328571D01*
X181102285Y-58185714D01*
X181102285Y-57471428D01*
X181173714Y-57328571D01*
X181316571Y-57257142D01*
X181173714Y-57185714D01*
X181102285Y-57042857D01*
X181102285Y-56328571D01*
X181030857Y-56185714D01*
X180888000Y-56114285D01*
X180816571Y-56114285D01*
X182316571Y-58328571D02*
X182316571Y-56185714D01*
X183388000Y-57685714D02*
X183459428Y-57757142D01*
X183388000Y-57828571D01*
X183316571Y-57757142D01*
X183388000Y-57685714D01*
X183388000Y-57828571D01*
X183388000Y-56900000D02*
X183459428Y-56971428D01*
X183388000Y-57042857D01*
X183316571Y-56971428D01*
X183388000Y-56900000D01*
X183388000Y-57042857D01*
X184102285Y-56328571D02*
X184102285Y-56400000D01*
X184030857Y-56542857D01*
X183959428Y-56614285D01*
X184673714Y-56328571D02*
X184673714Y-56400000D01*
X184602285Y-56542857D01*
X184530857Y-56614285D01*
X186388000Y-56828571D02*
X185245142Y-57257142D01*
X186388000Y-57685714D01*
X187102285Y-56828571D02*
X188245142Y-57257142D01*
X187102285Y-57685714D01*
X189173714Y-57685714D02*
X189245142Y-57757142D01*
X189173714Y-57828571D01*
X189102285Y-57757142D01*
X189173714Y-57685714D01*
X189173714Y-57828571D01*
X188888000Y-56400000D02*
X189030857Y-56328571D01*
X189388000Y-56328571D01*
X189530857Y-56400000D01*
X189602285Y-56542857D01*
X189602285Y-56685714D01*
X189530857Y-56828571D01*
X189459428Y-56900000D01*
X189316571Y-56971428D01*
X189245142Y-57042857D01*
X189173714Y-57185714D01*
X189173714Y-57257142D01*
X190245142Y-57257142D02*
X191388000Y-57257142D01*
X192102285Y-57042857D02*
X193245142Y-57042857D01*
X193245142Y-57471428D02*
X192102285Y-57471428D01*
X194388000Y-58328571D02*
X194030857Y-58328571D01*
X194030857Y-56185714D01*
X194388000Y-56185714D01*
X194816571Y-58328571D02*
X195173714Y-58328571D01*
X195173714Y-56185714D01*
X194816571Y-56185714D01*
X196602285Y-56185714D02*
X197888000Y-58114285D01*
X199316571Y-57757142D02*
X199316571Y-57828571D01*
X199245142Y-57971428D01*
X199173714Y-58042857D01*
X199245142Y-56900000D02*
X199316571Y-56971428D01*
X199245142Y-57042857D01*
X199173714Y-56971428D01*
X199245142Y-56900000D01*
X199245142Y-57042857D01*
X200030857Y-56328571D02*
X200030857Y-56400000D01*
X199959428Y-56542857D01*
X199888000Y-56614285D01*
X200745142Y-57757142D02*
X200745142Y-57828571D01*
X200673714Y-57971428D01*
X200602285Y-58042857D01*
X201388000Y-57685714D02*
X201459428Y-57757142D01*
X201388000Y-57828571D01*
X201316571Y-57757142D01*
X201388000Y-57685714D01*
X201388000Y-57828571D01*
X203173714Y-56257142D02*
X201888000Y-58185714D01*
X160562285Y-59559142D02*
X159276571Y-61487714D01*
X160848000Y-60559142D02*
X161490857Y-60559142D01*
X160848000Y-60202000D02*
X161705142Y-60202000D01*
X161919428Y-60987714D02*
X161848000Y-61059142D01*
X161633714Y-61130571D01*
X161490857Y-61130571D01*
X161276571Y-61059142D01*
X161133714Y-60916285D01*
X161062285Y-60773428D01*
X160990857Y-60487714D01*
X160990857Y-60273428D01*
X161062285Y-59987714D01*
X161133714Y-59844857D01*
X161276571Y-59702000D01*
X161490857Y-59630571D01*
X161633714Y-59630571D01*
X161848000Y-59702000D01*
X161919428Y-59773428D01*
X162919428Y-60130571D02*
X162490857Y-60559142D01*
X162919428Y-60987714D01*
X163490857Y-60130571D02*
X163919428Y-60559142D01*
X163490857Y-60987714D01*
X164776571Y-60987714D02*
X164848000Y-61059142D01*
X164776571Y-61130571D01*
X164705142Y-61059142D01*
X164776571Y-60987714D01*
X164776571Y-61130571D01*
X164490857Y-59702000D02*
X164633714Y-59630571D01*
X164990857Y-59630571D01*
X165133714Y-59702000D01*
X165205142Y-59844857D01*
X165205142Y-59987714D01*
X165133714Y-60130571D01*
X165062285Y-60202000D01*
X164919428Y-60273428D01*
X164848000Y-60344857D01*
X164776571Y-60487714D01*
X164776571Y-60559142D01*
X166062285Y-60987714D02*
X166133714Y-61059142D01*
X166062285Y-61130571D01*
X165990857Y-61059142D01*
X166062285Y-60987714D01*
X166062285Y-61130571D01*
X165776571Y-59702000D02*
X165919428Y-59630571D01*
X166276571Y-59630571D01*
X166419428Y-59702000D01*
X166490857Y-59844857D01*
X166490857Y-59987714D01*
X166419428Y-60130571D01*
X166348000Y-60202000D01*
X166205142Y-60273428D01*
X166133714Y-60344857D01*
X166062285Y-60487714D01*
X166062285Y-60559142D01*
X167062285Y-61130571D02*
X167776571Y-61130571D01*
X167062285Y-60130571D02*
X167776571Y-60130571D01*
X167419428Y-59630571D02*
X167419428Y-61630571D01*
X168633714Y-59630571D02*
X168490857Y-59702000D01*
X168419428Y-59844857D01*
X168490857Y-59987714D01*
X168633714Y-60059142D01*
X168776571Y-59987714D01*
X168848000Y-59844857D01*
X168776571Y-59702000D01*
X168633714Y-59630571D01*
X169776571Y-60487714D02*
X169705142Y-60559142D01*
X169776571Y-60630571D01*
X169848000Y-60559142D01*
X169776571Y-60487714D01*
X169776571Y-60630571D01*
X170776571Y-61059142D02*
X170776571Y-61130571D01*
X170705142Y-61273428D01*
X170633714Y-61344857D01*
X171276571Y-60630571D02*
X172562285Y-60630571D01*
X173133714Y-60273428D02*
X174276571Y-60273428D01*
X173705142Y-60844857D02*
X173705142Y-59702000D01*
X174276571Y-61130571D02*
X173133714Y-61130571D01*
X174919428Y-60702000D02*
X175633714Y-60702000D01*
X174776571Y-61130571D02*
X175276571Y-59630571D01*
X175776571Y-61130571D01*
X175276571Y-59630571D02*
X175133714Y-59559142D01*
X175062285Y-59416285D01*
X175133714Y-59273428D01*
X175276571Y-59202000D01*
X175419428Y-59273428D01*
X175490857Y-59416285D01*
X175419428Y-59559142D01*
X175276571Y-59630571D01*
X176276571Y-61130571D02*
X176276571Y-59630571D01*
X176419428Y-59059142D02*
X176205142Y-59273428D01*
X176990857Y-61130571D02*
X176990857Y-59630571D01*
X176705142Y-59273428D02*
X176990857Y-59059142D01*
X177276571Y-59273428D01*
X177705142Y-61130571D02*
X177705142Y-59630571D01*
X177419428Y-59130571D02*
X177490857Y-59202000D01*
X177419428Y-59273428D01*
X177348000Y-59202000D01*
X177419428Y-59130571D01*
X177419428Y-59273428D01*
X177990857Y-59130571D02*
X178062285Y-59202000D01*
X177990857Y-59273428D01*
X177919428Y-59202000D01*
X177990857Y-59130571D01*
X177990857Y-59273428D01*
X178419428Y-61130571D02*
X178419428Y-59630571D01*
X179419428Y-59630571D01*
X179419428Y-61130571D01*
X178419428Y-61130571D01*
X180419428Y-59630571D02*
X180705142Y-59630571D01*
X180848000Y-59702000D01*
X180990857Y-59844857D01*
X181062285Y-60130571D01*
X181062285Y-60630571D01*
X180990857Y-60916285D01*
X180848000Y-61059142D01*
X180705142Y-61130571D01*
X180419428Y-61130571D01*
X180276571Y-61059142D01*
X180133714Y-60916285D01*
X180062285Y-60630571D01*
X180062285Y-60130571D01*
X180133714Y-59844857D01*
X180276571Y-59702000D01*
X180419428Y-59630571D01*
X180705142Y-59059142D02*
X180490857Y-59273428D01*
X181990857Y-59630571D02*
X182276571Y-59630571D01*
X182419428Y-59702000D01*
X182562285Y-59844857D01*
X182633714Y-60130571D01*
X182633714Y-60630571D01*
X182562285Y-60916285D01*
X182419428Y-61059142D01*
X182276571Y-61130571D01*
X181990857Y-61130571D01*
X181848000Y-61059142D01*
X181705142Y-60916285D01*
X181633714Y-60630571D01*
X181633714Y-60130571D01*
X181705142Y-59844857D01*
X181848000Y-59702000D01*
X181990857Y-59630571D01*
X181848000Y-59273428D02*
X182133714Y-59059142D01*
X182419428Y-59273428D01*
X183490857Y-60987714D02*
X183562285Y-61059142D01*
X183490857Y-61130571D01*
X183419428Y-61059142D01*
X183490857Y-60987714D01*
X183490857Y-61130571D01*
X183205142Y-59702000D02*
X183348000Y-59630571D01*
X183705142Y-59630571D01*
X183848000Y-59702000D01*
X183919428Y-59844857D01*
X183919428Y-59987714D01*
X183848000Y-60130571D01*
X183776571Y-60202000D01*
X183633714Y-60273428D01*
X183562285Y-60344857D01*
X183490857Y-60487714D01*
X183490857Y-60559142D01*
X184848000Y-59630571D02*
X185133714Y-59630571D01*
X185276571Y-59702000D01*
X185419428Y-59844857D01*
X185490857Y-60130571D01*
X185490857Y-60630571D01*
X185419428Y-60916285D01*
X185276571Y-61059142D01*
X185133714Y-61130571D01*
X184848000Y-61130571D01*
X184705142Y-61059142D01*
X184562285Y-60916285D01*
X184490857Y-60630571D01*
X184490857Y-60130571D01*
X184562285Y-59844857D01*
X184705142Y-59702000D01*
X184848000Y-59630571D01*
X184848000Y-59059142D02*
X185062285Y-59273428D01*
X186133714Y-59630571D02*
X186133714Y-60844857D01*
X186205142Y-60987714D01*
X186276571Y-61059142D01*
X186419428Y-61130571D01*
X186705142Y-61130571D01*
X186848000Y-61059142D01*
X186919428Y-60987714D01*
X186990857Y-60844857D01*
X186990857Y-59630571D01*
X186705142Y-59059142D02*
X186490857Y-59273428D01*
X187633714Y-60702000D02*
X188205142Y-60702000D01*
X188205142Y-60344857D02*
X188705142Y-60344857D01*
X187490857Y-61130571D02*
X187990857Y-59630571D01*
X188919428Y-59630571D01*
X188205142Y-59630571D02*
X188205142Y-61130571D01*
X188919428Y-61130571D01*
X189562285Y-61202000D02*
X189705142Y-61273428D01*
X189776571Y-61416285D01*
X189705142Y-61559142D01*
X189562285Y-61630571D01*
X189348000Y-61630571D01*
X190276571Y-61130571D02*
X190276571Y-59630571D01*
X191276571Y-59630571D01*
X191276571Y-61130571D01*
X190276571Y-61130571D01*
X192848000Y-60987714D02*
X192776571Y-61059142D01*
X192562285Y-61130571D01*
X192419428Y-61130571D01*
X192205142Y-61059142D01*
X192062285Y-60916285D01*
X191990857Y-60773428D01*
X191919428Y-60487714D01*
X191919428Y-60273428D01*
X191990857Y-59987714D01*
X192062285Y-59844857D01*
X192205142Y-59702000D01*
X192419428Y-59630571D01*
X192562285Y-59630571D01*
X192776571Y-59702000D01*
X192848000Y-59773428D01*
X192490857Y-61202000D02*
X192633714Y-61273428D01*
X192705142Y-61416285D01*
X192633714Y-61559142D01*
X192490857Y-61630571D01*
X192276571Y-61630571D01*
X194062285Y-61559142D02*
X193490857Y-60559142D01*
X194062285Y-59630571D01*
X194633714Y-60559142D01*
X194062285Y-61559142D01*
X195348000Y-61130571D02*
X195348000Y-60130571D01*
X196062285Y-61130571D02*
X196062285Y-59630571D01*
X197062285Y-59630571D01*
X197062285Y-61130571D01*
X196062285Y-61130571D01*
X197705142Y-60702000D02*
X198419428Y-60702000D01*
X197562285Y-61130571D02*
X198062285Y-59630571D01*
X198562285Y-61130571D01*
X197776571Y-59273428D02*
X198062285Y-59059142D01*
X198348000Y-59273428D01*
X198776571Y-59702000D02*
X199490857Y-59702000D01*
X199919428Y-61130571D02*
X199919428Y-59630571D01*
X200919428Y-59630571D01*
X200919428Y-61130571D01*
X199919428Y-61130571D01*
X201990857Y-60273428D02*
X201919428Y-60202000D01*
X201990857Y-60130571D01*
X202062285Y-60202000D01*
X201990857Y-60273428D01*
X201990857Y-60130571D01*
X202276571Y-61559142D02*
X202133714Y-61630571D01*
X201776571Y-61630571D01*
X201633714Y-61559142D01*
X201562285Y-61416285D01*
X201562285Y-61273428D01*
X201633714Y-61130571D01*
X201705142Y-61059142D01*
X201848000Y-60987714D01*
X201919428Y-60916285D01*
X201990857Y-60773428D01*
X201990857Y-60702000D01*
X75164571Y-60273428D02*
X75093142Y-60202000D01*
X75164571Y-60130571D01*
X75236000Y-60202000D01*
X75164571Y-60273428D01*
X75164571Y-60130571D01*
X75164571Y-60702000D02*
X75236000Y-61559142D01*
X75164571Y-61630571D01*
X75093142Y-61559142D01*
X75164571Y-60702000D01*
X75164571Y-61630571D01*
X75878857Y-61130571D02*
X75878857Y-59630571D01*
X76878857Y-59630571D01*
X76878857Y-61130571D01*
X75878857Y-61130571D01*
X77521714Y-60130571D02*
X78093142Y-60130571D01*
X77521714Y-61130571D02*
X78307428Y-61130571D01*
X77736000Y-61130571D02*
X77736000Y-59844857D01*
X77807428Y-59702000D01*
X77950285Y-59630571D01*
X78164571Y-59630571D01*
X78307428Y-59702000D01*
X79593142Y-61059142D02*
X79450285Y-61130571D01*
X79164571Y-61130571D01*
X79021714Y-61059142D01*
X78950285Y-60987714D01*
X78878857Y-60844857D01*
X78878857Y-60416285D01*
X78950285Y-60273428D01*
X79021714Y-60202000D01*
X79164571Y-60130571D01*
X79450285Y-60130571D01*
X79593142Y-60202000D01*
X79307428Y-59916285D02*
X79307428Y-61344857D01*
X80950285Y-60416285D02*
X81093142Y-60344857D01*
X81236000Y-60416285D01*
X81307428Y-60559142D01*
X81236000Y-60702000D01*
X81093142Y-60773428D01*
X80950285Y-60702000D01*
X80664571Y-60416285D01*
X80521714Y-60344857D01*
X80378857Y-60416285D01*
X80307428Y-60559142D01*
X80378857Y-60702000D01*
X80521714Y-60773428D01*
X80664571Y-60702000D01*
X80950285Y-60416285D01*
X82093142Y-61273428D02*
X82236000Y-61344857D01*
X82450285Y-61344857D01*
X82593142Y-61273428D01*
X82664571Y-61130571D01*
X82593142Y-60987714D01*
X82164571Y-60559142D01*
X82093142Y-60416285D01*
X82093142Y-60344857D01*
X82164571Y-60202000D01*
X82307428Y-60130571D01*
X82664571Y-59702000D02*
X82521714Y-59630571D01*
X82307428Y-59630571D01*
X82164571Y-59702000D01*
X82093142Y-59844857D01*
X82164571Y-59987714D01*
X82593142Y-60416285D01*
X82664571Y-60559142D01*
X82664571Y-60630571D01*
X82593142Y-60773428D01*
X82450285Y-60844857D01*
X84164571Y-60130571D02*
X84164571Y-61130571D01*
X83664571Y-60130571D02*
X83664571Y-60916285D01*
X83593142Y-61059142D01*
X83450285Y-61130571D01*
X84450285Y-60130571D02*
X83521714Y-60130571D01*
X83378857Y-60202000D01*
X83307428Y-60344857D01*
X85450285Y-60416285D02*
X85450285Y-60702000D01*
X85521714Y-60702000D02*
X85521714Y-60416285D01*
X85593142Y-60344857D02*
X85593142Y-60773428D01*
X85664571Y-60702000D02*
X85664571Y-60416285D01*
X85736000Y-60416285D02*
X85736000Y-60702000D01*
X85450285Y-60630571D02*
X85593142Y-60773428D01*
X85736000Y-60630571D01*
X85450285Y-60487714D02*
X85593142Y-60344857D01*
X85736000Y-60487714D01*
X85450285Y-60416285D02*
X85593142Y-60344857D01*
X85736000Y-60416285D01*
X85807428Y-60559142D01*
X85736000Y-60702000D01*
X85593142Y-60773428D01*
X85450285Y-60702000D01*
X85378857Y-60559142D01*
X85450285Y-60416285D01*
X86807428Y-59559142D02*
X86950285Y-59487714D01*
X87093142Y-59487714D01*
X87236000Y-59559142D01*
X87307428Y-59702000D01*
X87307428Y-60202000D01*
X87307428Y-60130571D02*
X87164571Y-60202000D01*
X86950285Y-60202000D01*
X86807428Y-60130571D01*
X86736000Y-59987714D01*
X86807428Y-59844857D01*
X86950285Y-59773428D01*
X87307428Y-59773428D01*
X88021714Y-60202000D02*
X87878857Y-60130571D01*
X87807428Y-59987714D01*
X87807428Y-59702000D01*
X87878857Y-59559142D01*
X88021714Y-59487714D01*
X88164571Y-59487714D01*
X88307428Y-59559142D01*
X88378857Y-59702000D01*
X88378857Y-59987714D01*
X88307428Y-60130571D01*
X88164571Y-60202000D01*
X88021714Y-60202000D01*
X89307428Y-60630571D02*
X88736000Y-60630571D01*
X89807428Y-60344857D02*
X90950285Y-60344857D01*
X90521714Y-60130571D02*
X90236000Y-60987714D01*
X90950285Y-60773428D02*
X89807428Y-60773428D01*
X93021714Y-61059142D02*
X92878857Y-61130571D01*
X92593142Y-61130571D01*
X92450285Y-61059142D01*
X92378857Y-60916285D01*
X92378857Y-60344857D01*
X92450285Y-60202000D01*
X92593142Y-60130571D01*
X92878857Y-60130571D01*
X93021714Y-60202000D01*
X93093142Y-60344857D01*
X93093142Y-60487714D01*
X92378857Y-60630571D01*
X92378857Y-60416285D02*
X92307428Y-60273428D01*
X92236000Y-60202000D01*
X92093142Y-60130571D01*
X91878857Y-60130571D01*
X91736000Y-60202000D01*
X91664571Y-60273428D01*
X91593142Y-60416285D01*
X91593142Y-60844857D01*
X91664571Y-60987714D01*
X91736000Y-61059142D01*
X91878857Y-61130571D01*
X92093142Y-61130571D01*
X92236000Y-61059142D01*
X92307428Y-60987714D01*
X92378857Y-60844857D01*
X94878857Y-61487714D02*
X93664571Y-61487714D01*
X94450285Y-60559142D01*
X93664571Y-59630571D01*
X94950285Y-59630571D01*
X95664571Y-59559142D02*
X95450285Y-59773428D01*
X97450285Y-60916285D02*
X97093142Y-60487714D01*
X96807428Y-60916285D02*
X96807428Y-59916285D01*
X97236000Y-59916285D01*
X97378857Y-59987714D01*
X97450285Y-60130571D01*
X97450285Y-60273428D01*
X97378857Y-60416285D01*
X97236000Y-60487714D01*
X96807428Y-60487714D01*
X97093142Y-59416285D02*
X96736000Y-59487714D01*
X96378857Y-59702000D01*
X96164571Y-60059142D01*
X96093142Y-60416285D01*
X96164571Y-60773428D01*
X96378857Y-61130571D01*
X96736000Y-61344857D01*
X97093142Y-61416285D01*
X97450285Y-61344857D01*
X97807428Y-61130571D01*
X98021714Y-60773428D01*
X98093142Y-60416285D01*
X98021714Y-60059142D01*
X97807428Y-59702000D01*
X97450285Y-59487714D01*
X97093142Y-59416285D01*
X98664571Y-60130571D02*
X99378857Y-60130571D01*
X99021714Y-59630571D02*
X99021714Y-61630571D01*
X99950285Y-60630571D02*
X101093142Y-60630571D01*
X99950285Y-60130571D02*
X101093142Y-60130571D01*
X100521714Y-60416285D02*
X100521714Y-61130571D01*
X100021714Y-59630571D02*
X100521714Y-60416285D01*
X101021714Y-59630571D01*
X101521714Y-59630571D02*
X101593142Y-59702000D01*
X101521714Y-59773428D01*
X101450285Y-59702000D01*
X101521714Y-59630571D01*
X101521714Y-59773428D01*
X102093142Y-59630571D02*
X102164571Y-59702000D01*
X102093142Y-59773428D01*
X102021714Y-59702000D01*
X102093142Y-59630571D01*
X102093142Y-59773428D01*
X102593142Y-61130571D02*
X102593142Y-59630571D01*
X103593142Y-59630571D01*
X103593142Y-61130571D01*
X102593142Y-61130571D01*
X105093142Y-60130571D02*
X104164571Y-61130571D01*
X104521714Y-61130571D02*
X104378857Y-61059142D01*
X104307428Y-60987714D01*
X104236000Y-60844857D01*
X104236000Y-60416285D01*
X104307428Y-60273428D01*
X104378857Y-60202000D01*
X104521714Y-60130571D01*
X104736000Y-60130571D01*
X104878857Y-60202000D01*
X104950285Y-60273428D01*
X105021714Y-60416285D01*
X105021714Y-60844857D01*
X104950285Y-60987714D01*
X104878857Y-61059142D01*
X104736000Y-61130571D01*
X104521714Y-61130571D01*
X106450285Y-60130571D02*
X106450285Y-61130571D01*
X105950285Y-60130571D02*
X105950285Y-60916285D01*
X105878857Y-61059142D01*
X105736000Y-61130571D01*
X106736000Y-60130571D02*
X105807428Y-60130571D01*
X105664571Y-60202000D01*
X105593142Y-60344857D01*
X107736000Y-59702000D02*
X107736000Y-59630571D01*
X107807428Y-59487714D01*
X107878857Y-59416285D01*
X107164571Y-59702000D02*
X107164571Y-59630571D01*
X107236000Y-59487714D01*
X107307428Y-59416285D01*
X108378857Y-59702000D02*
X108378857Y-59630571D01*
X108450285Y-59487714D01*
X108521714Y-59416285D01*
X109521714Y-60130571D02*
X109093142Y-60559142D01*
X109521714Y-60987714D01*
X109950285Y-60844857D02*
X109664571Y-60559142D01*
X109950285Y-60273428D01*
X111235999Y-61130571D02*
X111235999Y-60344857D01*
X111164571Y-60202000D01*
X111021714Y-60130571D01*
X110735999Y-60130571D01*
X110593142Y-60202000D01*
X111235999Y-61059142D02*
X111093142Y-61130571D01*
X110735999Y-61130571D01*
X110593142Y-61059142D01*
X110521714Y-60916285D01*
X110521714Y-60773428D01*
X110593142Y-60630571D01*
X110735999Y-60559142D01*
X111093142Y-60559142D01*
X111235999Y-60487714D01*
X110878857Y-59773428D02*
X110735999Y-59702000D01*
X110664571Y-59559142D01*
X110735999Y-59416285D01*
X110878857Y-59344857D01*
X111021714Y-59416285D01*
X111093142Y-59559142D01*
X111021714Y-59702000D01*
X110878857Y-59773428D01*
X111950285Y-61130571D02*
X111950285Y-59916285D01*
X112021714Y-59773428D01*
X112093142Y-59702000D01*
X112235999Y-59630571D01*
X112450285Y-59630571D01*
X112593142Y-59702000D01*
X112664571Y-59773428D01*
X112735999Y-59916285D01*
X112735999Y-60130571D01*
X112521714Y-60130571D01*
X112378857Y-60202000D01*
X112307428Y-60344857D01*
X112307428Y-60416285D01*
X112378857Y-60559142D01*
X112521714Y-60630571D01*
X112735999Y-60630571D01*
X112878857Y-60702000D01*
X112950285Y-60844857D01*
X112950285Y-60916285D01*
X112878857Y-61059142D01*
X112735999Y-61130571D01*
X112450285Y-61130571D01*
X112307428Y-61059142D01*
X114307428Y-60273428D02*
X114235999Y-60202000D01*
X114093142Y-60130571D01*
X113807428Y-60130571D01*
X113664571Y-60202000D01*
X113593142Y-60273428D01*
X113521714Y-60416285D01*
X113521714Y-60844857D01*
X113593142Y-60987714D01*
X113664571Y-61059142D01*
X113807428Y-61130571D01*
X114021714Y-61130571D01*
X114164571Y-61059142D01*
X114235999Y-60987714D01*
X114307428Y-60844857D01*
X114307428Y-59916285D01*
X114235999Y-59773428D01*
X114164571Y-59702000D01*
X114021714Y-59630571D01*
X113735999Y-59630571D01*
X113593142Y-59702000D01*
X114735999Y-60130571D02*
X115307428Y-60130571D01*
X114950285Y-61130571D02*
X114950285Y-59844857D01*
X115021714Y-59702000D01*
X115164571Y-59630571D01*
X115307428Y-59630571D01*
X114950285Y-61130571D02*
X114950285Y-61416285D01*
X114878857Y-61559142D01*
X114735999Y-61630571D01*
X114593142Y-61630571D01*
X117021714Y-59987714D02*
X116878857Y-59916285D01*
X116593142Y-59916285D01*
X116450285Y-59987714D01*
X116307428Y-60130571D01*
X116235999Y-60273428D01*
X116235999Y-60559142D01*
X116307428Y-60702000D01*
X116450285Y-60844857D01*
X116593142Y-60916285D01*
X116878857Y-60916285D01*
X117021714Y-60844857D01*
X116735999Y-59416285D02*
X116378857Y-59487714D01*
X116021714Y-59702000D01*
X115807428Y-60059142D01*
X115735999Y-60416285D01*
X115807428Y-60773428D01*
X116021714Y-61130571D01*
X116378857Y-61344857D01*
X116735999Y-61416285D01*
X117093142Y-61344857D01*
X117450285Y-61130571D01*
X117664571Y-60773428D01*
X117735999Y-60416285D01*
X117664571Y-60059142D01*
X117450285Y-59702000D01*
X117093142Y-59487714D01*
X116735999Y-59416285D01*
X118378857Y-61130571D02*
X118378857Y-59630571D01*
X119378857Y-59630571D01*
X119378857Y-61130571D01*
X118378857Y-61130571D01*
X119878857Y-61130571D02*
X120378857Y-59630571D01*
X120878857Y-61130571D01*
X119878857Y-61130571D01*
X121378857Y-61130571D02*
X121378857Y-59630571D01*
X122378857Y-59630571D01*
X122378857Y-61130571D01*
X121378857Y-61130571D01*
X123093142Y-60416285D02*
X124236000Y-60416285D01*
X124236000Y-60773428D01*
X124950285Y-60987714D02*
X125021714Y-61059142D01*
X124950285Y-61130571D01*
X124878857Y-61059142D01*
X124950285Y-60987714D01*
X124950285Y-61130571D01*
X125664571Y-60987714D02*
X125736000Y-61059142D01*
X125664571Y-61130571D01*
X125593142Y-61059142D01*
X125664571Y-60987714D01*
X125664571Y-61130571D01*
X126378857Y-60987714D02*
X126450285Y-61059142D01*
X126378857Y-61130571D01*
X126307428Y-61059142D01*
X126378857Y-60987714D01*
X126378857Y-61130571D01*
X127093142Y-60202000D02*
X127236000Y-60130571D01*
X127521714Y-60130571D01*
X127664571Y-60202000D01*
X127736000Y-60344857D01*
X128378857Y-61059142D02*
X128236000Y-61130571D01*
X127950285Y-61130571D01*
X127807428Y-61059142D01*
X127736000Y-60916285D01*
X127736000Y-60344857D01*
X127807428Y-60202000D01*
X127950285Y-60130571D01*
X128236000Y-60130571D01*
X128378857Y-60202000D01*
X128450285Y-60344857D01*
X128450285Y-60487714D01*
X127736000Y-60559142D01*
X127236000Y-60559142D01*
X127093142Y-60630571D01*
X127021714Y-60773428D01*
X127021714Y-60916285D01*
X127093142Y-61059142D01*
X127236000Y-61130571D01*
X127521714Y-61130571D01*
X127664571Y-61059142D01*
X127736000Y-60916285D01*
X129021714Y-61130571D02*
X129378857Y-61130571D01*
X129378857Y-60844857D01*
X129236000Y-60773428D01*
X129093142Y-60630571D01*
X129021714Y-60416285D01*
X129021714Y-60059142D01*
X129093142Y-59844857D01*
X129236000Y-59702000D01*
X129450285Y-59630571D01*
X129736000Y-59630571D01*
X129950285Y-59702000D01*
X130093142Y-59844857D01*
X130164571Y-60059142D01*
X130164571Y-60416285D01*
X130093142Y-60630571D01*
X129950285Y-60773428D01*
X129807428Y-60844857D01*
X129807428Y-61130571D01*
X130164571Y-61130571D01*
X130807428Y-60773428D02*
X130878857Y-60702000D01*
X131093142Y-60630571D01*
X131307428Y-60702000D01*
X131450285Y-60844857D01*
X131664571Y-60916285D01*
X131878857Y-60844857D01*
X131950285Y-60773428D01*
X130807428Y-60344857D02*
X130878857Y-60273428D01*
X131093142Y-60202000D01*
X131307428Y-60273428D01*
X131450285Y-60416285D01*
X131664571Y-60487714D01*
X131878857Y-60416285D01*
X131950285Y-60344857D01*
X133307428Y-61059142D02*
X133164571Y-61130571D01*
X132878857Y-61130571D01*
X132736000Y-61059142D01*
X132664571Y-60987714D01*
X132593142Y-60844857D01*
X132593142Y-60416285D01*
X132664571Y-60273428D01*
X132736000Y-60202000D01*
X132878857Y-60130571D01*
X133164571Y-60130571D01*
X133307428Y-60202000D01*
X133021714Y-61202000D02*
X133164571Y-61273428D01*
X133236000Y-61416285D01*
X133164571Y-61559142D01*
X133021714Y-61630571D01*
X132807428Y-61630571D01*
X133878857Y-60630571D02*
X134164571Y-60559142D01*
X134307428Y-61130571D01*
X135378857Y-59344857D01*
X135664571Y-61273428D02*
X135736000Y-61416285D01*
X135878857Y-61487714D01*
X136021714Y-61416285D01*
X136093142Y-61273428D01*
X136093142Y-59844857D01*
X136164571Y-59702000D01*
X136307428Y-59630571D01*
X136450285Y-59702000D01*
X136521714Y-59844857D01*
X137164571Y-61130571D02*
X137164571Y-59630571D01*
X138164571Y-59630571D01*
X138164571Y-61130571D01*
X137164571Y-61130571D01*
X138878857Y-60130571D02*
X138878857Y-61630571D01*
X139593142Y-60916285D02*
X139664571Y-61059142D01*
X139807428Y-61130571D01*
X138878857Y-60916285D02*
X138950285Y-61059142D01*
X139093142Y-61130571D01*
X139378857Y-61130571D01*
X139521714Y-61059142D01*
X139593142Y-60916285D01*
X139593142Y-60130571D01*
X141593142Y-61059142D02*
X140450285Y-61059142D01*
X141593142Y-60773428D02*
X140450285Y-60344857D01*
X141593142Y-59916285D01*
X142307428Y-61059142D02*
X143450285Y-61059142D01*
X142307428Y-60773428D02*
X143450285Y-60344857D01*
X142307428Y-59916285D01*
X145307428Y-60559142D02*
X144164571Y-60559142D01*
X144736000Y-60916285D02*
X144807428Y-60987714D01*
X144736000Y-61059142D01*
X144664571Y-60987714D01*
X144736000Y-60916285D01*
X144736000Y-61059142D01*
X144736000Y-60059142D02*
X144807428Y-60130571D01*
X144736000Y-60202000D01*
X144664571Y-60130571D01*
X144736000Y-60059142D01*
X144736000Y-60202000D01*
X147932000Y-56328571D02*
X148074857Y-56328571D01*
X148217714Y-56400000D01*
X148289142Y-56471428D01*
X148360571Y-56614285D01*
X148432000Y-56900000D01*
X148432000Y-57257142D01*
X148360571Y-57542857D01*
X148289142Y-57685714D01*
X148217714Y-57757142D01*
X148074857Y-57828571D01*
X147932000Y-57828571D01*
X147789142Y-57757142D01*
X147717714Y-57685714D01*
X147646285Y-57542857D01*
X147574857Y-57257142D01*
X147574857Y-56900000D01*
X147646285Y-56614285D01*
X147717714Y-56471428D01*
X147789142Y-56400000D01*
X147932000Y-56328571D01*
X149860571Y-57828571D02*
X149003428Y-57828571D01*
X149432000Y-57828571D02*
X149432000Y-56328571D01*
X149289142Y-56542857D01*
X149146285Y-56685714D01*
X149003428Y-56757142D01*
X150432000Y-56471428D02*
X150503428Y-56400000D01*
X150646285Y-56328571D01*
X151003428Y-56328571D01*
X151146285Y-56400000D01*
X151217714Y-56471428D01*
X151289142Y-56614285D01*
X151289142Y-56757142D01*
X151217714Y-56971428D01*
X150360571Y-57828571D01*
X151289142Y-57828571D01*
X151789142Y-56328571D02*
X152717714Y-56328571D01*
X152217714Y-56900000D01*
X152432000Y-56900000D01*
X152574857Y-56971428D01*
X152646285Y-57042857D01*
X152717714Y-57185714D01*
X152717714Y-57542857D01*
X152646285Y-57685714D01*
X152574857Y-57757142D01*
X152432000Y-57828571D01*
X152003428Y-57828571D01*
X151860571Y-57757142D01*
X151789142Y-57685714D01*
X154003428Y-56828571D02*
X154003428Y-57828571D01*
X153646285Y-56257142D02*
X153289142Y-57328571D01*
X154217714Y-57328571D01*
X155503428Y-56328571D02*
X154789142Y-56328571D01*
X154717714Y-57042857D01*
X154789142Y-56971428D01*
X154932000Y-56900000D01*
X155289142Y-56900000D01*
X155432000Y-56971428D01*
X155503428Y-57042857D01*
X155574857Y-57185714D01*
X155574857Y-57542857D01*
X155503428Y-57685714D01*
X155432000Y-57757142D01*
X155289142Y-57828571D01*
X154932000Y-57828571D01*
X154789142Y-57757142D01*
X154717714Y-57685714D01*
X156860571Y-56328571D02*
X156574857Y-56328571D01*
X156432000Y-56400000D01*
X156360571Y-56471428D01*
X156217714Y-56685714D01*
X156146285Y-56971428D01*
X156146285Y-57542857D01*
X156217714Y-57685714D01*
X156289142Y-57757142D01*
X156432000Y-57828571D01*
X156717714Y-57828571D01*
X156860571Y-57757142D01*
X156932000Y-57685714D01*
X157003428Y-57542857D01*
X157003428Y-57185714D01*
X156932000Y-57042857D01*
X156860571Y-56971428D01*
X156717714Y-56900000D01*
X156432000Y-56900000D01*
X156289142Y-56971428D01*
X156217714Y-57042857D01*
X156146285Y-57185714D01*
X157503428Y-56328571D02*
X158503428Y-56328571D01*
X157860571Y-57828571D01*
X159289142Y-56971428D02*
X159146285Y-56900000D01*
X159074857Y-56828571D01*
X159003428Y-56685714D01*
X159003428Y-56614285D01*
X159074857Y-56471428D01*
X159146285Y-56400000D01*
X159289142Y-56328571D01*
X159574857Y-56328571D01*
X159717714Y-56400000D01*
X159789142Y-56471428D01*
X159860571Y-56614285D01*
X159860571Y-56685714D01*
X159789142Y-56828571D01*
X159717714Y-56900000D01*
X159574857Y-56971428D01*
X159289142Y-56971428D01*
X159146285Y-57042857D01*
X159074857Y-57114285D01*
X159003428Y-57257142D01*
X159003428Y-57542857D01*
X159074857Y-57685714D01*
X159146285Y-57757142D01*
X159289142Y-57828571D01*
X159574857Y-57828571D01*
X159717714Y-57757142D01*
X159789142Y-57685714D01*
X159860571Y-57542857D01*
X159860571Y-57257142D01*
X159789142Y-57114285D01*
X159717714Y-57042857D01*
X159574857Y-56971428D01*
X160574857Y-57828571D02*
X160860571Y-57828571D01*
X161003428Y-57757142D01*
X161074857Y-57685714D01*
X161217714Y-57471428D01*
X161289142Y-57185714D01*
X161289142Y-56614285D01*
X161217714Y-56471428D01*
X161146285Y-56400000D01*
X161003428Y-56328571D01*
X160717714Y-56328571D01*
X160574857Y-56400000D01*
X160503428Y-56471428D01*
X160432000Y-56614285D01*
X160432000Y-56971428D01*
X160503428Y-57114285D01*
X160574857Y-57185714D01*
X160717714Y-57257142D01*
X161003428Y-57257142D01*
X161146285Y-57185714D01*
X161217714Y-57114285D01*
X161289142Y-56971428D01*
X115190857Y-57574571D02*
X115190857Y-56788857D01*
X115119428Y-56646000D01*
X114976571Y-56574571D01*
X114690857Y-56574571D01*
X114547999Y-56646000D01*
X115190857Y-57503142D02*
X115047999Y-57574571D01*
X114690857Y-57574571D01*
X114547999Y-57503142D01*
X114476571Y-57360285D01*
X114476571Y-57217428D01*
X114547999Y-57074571D01*
X114690857Y-57003142D01*
X115047999Y-57003142D01*
X115190857Y-56931714D01*
X115905142Y-57574571D02*
X115905142Y-56074571D01*
X115905142Y-56646000D02*
X116047999Y-56574571D01*
X116333714Y-56574571D01*
X116476571Y-56646000D01*
X116547999Y-56717428D01*
X116619428Y-56860285D01*
X116619428Y-57288857D01*
X116547999Y-57431714D01*
X116476571Y-57503142D01*
X116333714Y-57574571D01*
X116047999Y-57574571D01*
X115905142Y-57503142D01*
X117905142Y-57503142D02*
X117762285Y-57574571D01*
X117476571Y-57574571D01*
X117333714Y-57503142D01*
X117262285Y-57431714D01*
X117190857Y-57288857D01*
X117190857Y-56860285D01*
X117262285Y-56717428D01*
X117333714Y-56646000D01*
X117476571Y-56574571D01*
X117762285Y-56574571D01*
X117905142Y-56646000D01*
X119190857Y-57574571D02*
X119190857Y-56074571D01*
X119190857Y-57503142D02*
X119047999Y-57574571D01*
X118762285Y-57574571D01*
X118619428Y-57503142D01*
X118547999Y-57431714D01*
X118476571Y-57288857D01*
X118476571Y-56860285D01*
X118547999Y-56717428D01*
X118619428Y-56646000D01*
X118762285Y-56574571D01*
X119047999Y-56574571D01*
X119190857Y-56646000D01*
X120476571Y-57503142D02*
X120333714Y-57574571D01*
X120047999Y-57574571D01*
X119905142Y-57503142D01*
X119833714Y-57360285D01*
X119833714Y-56788857D01*
X119905142Y-56646000D01*
X120047999Y-56574571D01*
X120333714Y-56574571D01*
X120476571Y-56646000D01*
X120547999Y-56788857D01*
X120547999Y-56931714D01*
X119833714Y-57074571D01*
X120976571Y-56574571D02*
X121547999Y-56574571D01*
X121190857Y-57574571D02*
X121190857Y-56288857D01*
X121262285Y-56146000D01*
X121405142Y-56074571D01*
X121547999Y-56074571D01*
X122690857Y-56574571D02*
X122690857Y-57788857D01*
X122619428Y-57931714D01*
X122547999Y-58003142D01*
X122405142Y-58074571D01*
X122190857Y-58074571D01*
X122047999Y-58003142D01*
X122690857Y-57503142D02*
X122547999Y-57574571D01*
X122262285Y-57574571D01*
X122119428Y-57503142D01*
X122047999Y-57431714D01*
X121976571Y-57288857D01*
X121976571Y-56860285D01*
X122047999Y-56717428D01*
X122119428Y-56646000D01*
X122262285Y-56574571D01*
X122547999Y-56574571D01*
X122690857Y-56646000D01*
X123405142Y-57574571D02*
X123405142Y-56074571D01*
X124047999Y-57574571D02*
X124047999Y-56788857D01*
X123976571Y-56646000D01*
X123833714Y-56574571D01*
X123619428Y-56574571D01*
X123476571Y-56646000D01*
X123405142Y-56717428D01*
X124762285Y-57574571D02*
X124762285Y-56574571D01*
X124762285Y-56074571D02*
X124690857Y-56146000D01*
X124762285Y-56217428D01*
X124833714Y-56146000D01*
X124762285Y-56074571D01*
X124762285Y-56217428D01*
X125476571Y-56574571D02*
X125476571Y-57860285D01*
X125405142Y-58003142D01*
X125262285Y-58074571D01*
X125190857Y-58074571D01*
X125476571Y-56074571D02*
X125405142Y-56146000D01*
X125476571Y-56217428D01*
X125547999Y-56146000D01*
X125476571Y-56074571D01*
X125476571Y-56217428D01*
X126190857Y-57574571D02*
X126190857Y-56074571D01*
X126333714Y-57003142D02*
X126762285Y-57574571D01*
X126762285Y-56574571D02*
X126190857Y-57146000D01*
X127619428Y-57574571D02*
X127476571Y-57503142D01*
X127405142Y-57360285D01*
X127405142Y-56074571D01*
X128190857Y-57574571D02*
X128190857Y-56574571D01*
X128190857Y-56717428D02*
X128262285Y-56646000D01*
X128405142Y-56574571D01*
X128619428Y-56574571D01*
X128762285Y-56646000D01*
X128833714Y-56788857D01*
X128833714Y-57574571D01*
X128833714Y-56788857D02*
X128905142Y-56646000D01*
X129047999Y-56574571D01*
X129262285Y-56574571D01*
X129405142Y-56646000D01*
X129476571Y-56788857D01*
X129476571Y-57574571D01*
X130190857Y-56574571D02*
X130190857Y-57574571D01*
X130190857Y-56717428D02*
X130262285Y-56646000D01*
X130405142Y-56574571D01*
X130619428Y-56574571D01*
X130762285Y-56646000D01*
X130833714Y-56788857D01*
X130833714Y-57574571D01*
X131762285Y-57574571D02*
X131619428Y-57503142D01*
X131548000Y-57431714D01*
X131476571Y-57288857D01*
X131476571Y-56860285D01*
X131548000Y-56717428D01*
X131619428Y-56646000D01*
X131762285Y-56574571D01*
X131976571Y-56574571D01*
X132119428Y-56646000D01*
X132190857Y-56717428D01*
X132262285Y-56860285D01*
X132262285Y-57288857D01*
X132190857Y-57431714D01*
X132119428Y-57503142D01*
X131976571Y-57574571D01*
X131762285Y-57574571D01*
X132905142Y-56574571D02*
X132905142Y-58074571D01*
X132905142Y-56646000D02*
X133048000Y-56574571D01*
X133333714Y-56574571D01*
X133476571Y-56646000D01*
X133548000Y-56717428D01*
X133619428Y-56860285D01*
X133619428Y-57288857D01*
X133548000Y-57431714D01*
X133476571Y-57503142D01*
X133333714Y-57574571D01*
X133048000Y-57574571D01*
X132905142Y-57503142D01*
X134905142Y-56574571D02*
X134905142Y-58074571D01*
X134905142Y-57503142D02*
X134762285Y-57574571D01*
X134476571Y-57574571D01*
X134333714Y-57503142D01*
X134262285Y-57431714D01*
X134190857Y-57288857D01*
X134190857Y-56860285D01*
X134262285Y-56717428D01*
X134333714Y-56646000D01*
X134476571Y-56574571D01*
X134762285Y-56574571D01*
X134905142Y-56646000D01*
X135619428Y-57574571D02*
X135619428Y-56574571D01*
X135619428Y-56860285D02*
X135690857Y-56717428D01*
X135762285Y-56646000D01*
X135905142Y-56574571D01*
X136048000Y-56574571D01*
X136476571Y-57503142D02*
X136619428Y-57574571D01*
X136905142Y-57574571D01*
X137048000Y-57503142D01*
X137119428Y-57360285D01*
X137119428Y-57288857D01*
X137048000Y-57146000D01*
X136905142Y-57074571D01*
X136690857Y-57074571D01*
X136548000Y-57003142D01*
X136476571Y-56860285D01*
X136476571Y-56788857D01*
X136548000Y-56646000D01*
X136690857Y-56574571D01*
X136905142Y-56574571D01*
X137048000Y-56646000D01*
X137548000Y-56574571D02*
X138119428Y-56574571D01*
X137762285Y-56074571D02*
X137762285Y-57360285D01*
X137833714Y-57503142D01*
X137976571Y-57574571D01*
X138119428Y-57574571D01*
X139262285Y-56574571D02*
X139262285Y-57574571D01*
X138619428Y-56574571D02*
X138619428Y-57360285D01*
X138690857Y-57503142D01*
X138833714Y-57574571D01*
X139048000Y-57574571D01*
X139190857Y-57503142D01*
X139262285Y-57431714D01*
X139833714Y-56574571D02*
X140190857Y-57574571D01*
X140548000Y-56574571D01*
X140976571Y-56574571D02*
X141262285Y-57574571D01*
X141548000Y-56860285D01*
X141833714Y-57574571D01*
X142119428Y-56574571D01*
X142548000Y-57574571D02*
X143333714Y-56574571D01*
X142548000Y-56574571D02*
X143333714Y-57574571D01*
X143762285Y-56574571D02*
X144119428Y-57574571D01*
X144476571Y-56574571D02*
X144119428Y-57574571D01*
X143976571Y-57931714D01*
X143905142Y-58003142D01*
X143762285Y-58074571D01*
X144905142Y-56574571D02*
X145690857Y-56574571D01*
X144905142Y-57574571D01*
X145690857Y-57574571D01*
X75364857Y-57146000D02*
X76079142Y-57146000D01*
X75222000Y-57574571D02*
X75722000Y-56074571D01*
X76222000Y-57574571D01*
X77222000Y-56788857D02*
X77436285Y-56860285D01*
X77507714Y-56931714D01*
X77579142Y-57074571D01*
X77579142Y-57288857D01*
X77507714Y-57431714D01*
X77436285Y-57503142D01*
X77293428Y-57574571D01*
X76722000Y-57574571D01*
X76722000Y-56074571D01*
X77222000Y-56074571D01*
X77364857Y-56146000D01*
X77436285Y-56217428D01*
X77507714Y-56360285D01*
X77507714Y-56503142D01*
X77436285Y-56646000D01*
X77364857Y-56717428D01*
X77222000Y-56788857D01*
X76722000Y-56788857D01*
X79079142Y-57431714D02*
X79007714Y-57503142D01*
X78793428Y-57574571D01*
X78650571Y-57574571D01*
X78436285Y-57503142D01*
X78293428Y-57360285D01*
X78222000Y-57217428D01*
X78150571Y-56931714D01*
X78150571Y-56717428D01*
X78222000Y-56431714D01*
X78293428Y-56288857D01*
X78436285Y-56146000D01*
X78650571Y-56074571D01*
X78793428Y-56074571D01*
X79007714Y-56146000D01*
X79079142Y-56217428D01*
X79722000Y-57574571D02*
X79722000Y-56074571D01*
X80079142Y-56074571D01*
X80293428Y-56146000D01*
X80436285Y-56288857D01*
X80507714Y-56431714D01*
X80579142Y-56717428D01*
X80579142Y-56931714D01*
X80507714Y-57217428D01*
X80436285Y-57360285D01*
X80293428Y-57503142D01*
X80079142Y-57574571D01*
X79722000Y-57574571D01*
X81222000Y-56788857D02*
X81722000Y-56788857D01*
X81936285Y-57574571D02*
X81222000Y-57574571D01*
X81222000Y-56074571D01*
X81936285Y-56074571D01*
X83079142Y-56788857D02*
X82579142Y-56788857D01*
X82579142Y-57574571D02*
X82579142Y-56074571D01*
X83293428Y-56074571D01*
X84650571Y-56146000D02*
X84507714Y-56074571D01*
X84293428Y-56074571D01*
X84079142Y-56146000D01*
X83936285Y-56288857D01*
X83864857Y-56431714D01*
X83793428Y-56717428D01*
X83793428Y-56931714D01*
X83864857Y-57217428D01*
X83936285Y-57360285D01*
X84079142Y-57503142D01*
X84293428Y-57574571D01*
X84436285Y-57574571D01*
X84650571Y-57503142D01*
X84722000Y-57431714D01*
X84722000Y-56931714D01*
X84436285Y-56931714D01*
X85364857Y-57574571D02*
X85364857Y-56074571D01*
X85364857Y-56788857D02*
X86222000Y-56788857D01*
X86222000Y-57574571D02*
X86222000Y-56074571D01*
X86936285Y-57574571D02*
X86936285Y-56074571D01*
X88079142Y-56074571D02*
X88079142Y-57146000D01*
X88007714Y-57360285D01*
X87864857Y-57503142D01*
X87650571Y-57574571D01*
X87507714Y-57574571D01*
X88793428Y-57574571D02*
X88793428Y-56074571D01*
X89650571Y-57574571D02*
X89007714Y-56717428D01*
X89650571Y-56074571D02*
X88793428Y-56931714D01*
X91007714Y-57574571D02*
X90293428Y-57574571D01*
X90293428Y-56074571D01*
X91507714Y-57574571D02*
X91507714Y-56074571D01*
X92007714Y-57146000D01*
X92507714Y-56074571D01*
X92507714Y-57574571D01*
X93222000Y-57574571D02*
X93222000Y-56074571D01*
X94079142Y-57574571D01*
X94079142Y-56074571D01*
X95079142Y-56074571D02*
X95364857Y-56074571D01*
X95507714Y-56146000D01*
X95650571Y-56288857D01*
X95722000Y-56574571D01*
X95722000Y-57074571D01*
X95650571Y-57360285D01*
X95507714Y-57503142D01*
X95364857Y-57574571D01*
X95079142Y-57574571D01*
X94936285Y-57503142D01*
X94793428Y-57360285D01*
X94722000Y-57074571D01*
X94722000Y-56574571D01*
X94793428Y-56288857D01*
X94936285Y-56146000D01*
X95079142Y-56074571D01*
X96364857Y-57574571D02*
X96364857Y-56074571D01*
X96936285Y-56074571D01*
X97079142Y-56146000D01*
X97150571Y-56217428D01*
X97222000Y-56360285D01*
X97222000Y-56574571D01*
X97150571Y-56717428D01*
X97079142Y-56788857D01*
X96936285Y-56860285D01*
X96364857Y-56860285D01*
X98864857Y-57717428D02*
X98722000Y-57646000D01*
X98579142Y-57503142D01*
X98364857Y-57288857D01*
X98222000Y-57217428D01*
X98079142Y-57217428D01*
X98150571Y-57574571D02*
X98007714Y-57503142D01*
X97864857Y-57360285D01*
X97793428Y-57074571D01*
X97793428Y-56574571D01*
X97864857Y-56288857D01*
X98007714Y-56146000D01*
X98150571Y-56074571D01*
X98436285Y-56074571D01*
X98579142Y-56146000D01*
X98722000Y-56288857D01*
X98793428Y-56574571D01*
X98793428Y-57074571D01*
X98722000Y-57360285D01*
X98579142Y-57503142D01*
X98436285Y-57574571D01*
X98150571Y-57574571D01*
X100293428Y-57574571D02*
X99793428Y-56860285D01*
X99436285Y-57574571D02*
X99436285Y-56074571D01*
X100007714Y-56074571D01*
X100150571Y-56146000D01*
X100222000Y-56217428D01*
X100293428Y-56360285D01*
X100293428Y-56574571D01*
X100222000Y-56717428D01*
X100150571Y-56788857D01*
X100007714Y-56860285D01*
X99436285Y-56860285D01*
X100864857Y-57503142D02*
X101079142Y-57574571D01*
X101436285Y-57574571D01*
X101579142Y-57503142D01*
X101650571Y-57431714D01*
X101722000Y-57288857D01*
X101722000Y-57146000D01*
X101650571Y-57003142D01*
X101579142Y-56931714D01*
X101436285Y-56860285D01*
X101150571Y-56788857D01*
X101007714Y-56717428D01*
X100936285Y-56646000D01*
X100864857Y-56503142D01*
X100864857Y-56360285D01*
X100936285Y-56217428D01*
X101007714Y-56146000D01*
X101150571Y-56074571D01*
X101507714Y-56074571D01*
X101722000Y-56146000D01*
X102150571Y-56074571D02*
X103007714Y-56074571D01*
X102579142Y-57574571D02*
X102579142Y-56074571D01*
X103507714Y-56074571D02*
X103507714Y-57288857D01*
X103579142Y-57431714D01*
X103650571Y-57503142D01*
X103793428Y-57574571D01*
X104079142Y-57574571D01*
X104222000Y-57503142D01*
X104293428Y-57431714D01*
X104364857Y-57288857D01*
X104364857Y-56074571D01*
X104864857Y-56074571D02*
X105364857Y-57574571D01*
X105864857Y-56074571D01*
X106222000Y-56074571D02*
X106579142Y-57574571D01*
X106864857Y-56503142D01*
X107150571Y-57574571D01*
X107507714Y-56074571D01*
X107936285Y-56074571D02*
X108936285Y-57574571D01*
X108936285Y-56074571D02*
X107936285Y-57574571D01*
X109793428Y-56860285D02*
X109793428Y-57574571D01*
X109293428Y-56074571D02*
X109793428Y-56860285D01*
X110293428Y-56074571D01*
X110650571Y-56074571D02*
X111650571Y-56074571D01*
X110650571Y-57574571D01*
X111650571Y-57574571D01*
M02*
