%TF.GenerationSoftware,KiCad,Pcbnew,(5.1.9-0-10_14)*%
%TF.CreationDate,2024-01-14T18:13:30-08:00*%
%TF.ProjectId,Palette,50616c65-7474-4652-9e6b-696361645f70,rev?*%
%TF.SameCoordinates,Original*%
%TF.FileFunction,Soldermask,Top*%
%TF.FilePolarity,Negative*%
%FSLAX46Y46*%
G04 Gerber Fmt 4.6, Leading zero omitted, Abs format (unit mm)*
G04 Created by KiCad (PCBNEW (5.1.9-0-10_14)) date 2024-01-14 18:13:30*
%MOMM*%
%LPD*%
G01*
G04 APERTURE LIST*
%ADD10C,0.100000*%
%ADD11C,0.300000*%
%ADD12C,0.010000*%
G04 APERTURE END LIST*
D10*
G36*
X67310000Y-92456000D02*
G01*
X65278000Y-92456000D01*
X65278000Y-90424000D01*
X67310000Y-90424000D01*
X67310000Y-92456000D01*
G37*
X67310000Y-92456000D02*
X65278000Y-92456000D01*
X65278000Y-90424000D01*
X67310000Y-90424000D01*
X67310000Y-92456000D01*
D11*
X160562285Y-97405142D02*
X159276571Y-99333714D01*
X160848000Y-98405142D02*
X161490857Y-98405142D01*
X160848000Y-98048000D02*
X161705142Y-98048000D01*
X161919428Y-98833714D02*
X161848000Y-98905142D01*
X161633714Y-98976571D01*
X161490857Y-98976571D01*
X161276571Y-98905142D01*
X161133714Y-98762285D01*
X161062285Y-98619428D01*
X160990857Y-98333714D01*
X160990857Y-98119428D01*
X161062285Y-97833714D01*
X161133714Y-97690857D01*
X161276571Y-97548000D01*
X161490857Y-97476571D01*
X161633714Y-97476571D01*
X161848000Y-97548000D01*
X161919428Y-97619428D01*
X162919428Y-97976571D02*
X162490857Y-98405142D01*
X162919428Y-98833714D01*
X163490857Y-97976571D02*
X163919428Y-98405142D01*
X163490857Y-98833714D01*
X164776571Y-98833714D02*
X164848000Y-98905142D01*
X164776571Y-98976571D01*
X164705142Y-98905142D01*
X164776571Y-98833714D01*
X164776571Y-98976571D01*
X164490857Y-97548000D02*
X164633714Y-97476571D01*
X164990857Y-97476571D01*
X165133714Y-97548000D01*
X165205142Y-97690857D01*
X165205142Y-97833714D01*
X165133714Y-97976571D01*
X165062285Y-98048000D01*
X164919428Y-98119428D01*
X164848000Y-98190857D01*
X164776571Y-98333714D01*
X164776571Y-98405142D01*
X166062285Y-98833714D02*
X166133714Y-98905142D01*
X166062285Y-98976571D01*
X165990857Y-98905142D01*
X166062285Y-98833714D01*
X166062285Y-98976571D01*
X165776571Y-97548000D02*
X165919428Y-97476571D01*
X166276571Y-97476571D01*
X166419428Y-97548000D01*
X166490857Y-97690857D01*
X166490857Y-97833714D01*
X166419428Y-97976571D01*
X166348000Y-98048000D01*
X166205142Y-98119428D01*
X166133714Y-98190857D01*
X166062285Y-98333714D01*
X166062285Y-98405142D01*
X167062285Y-98976571D02*
X167776571Y-98976571D01*
X167062285Y-97976571D02*
X167776571Y-97976571D01*
X167419428Y-97476571D02*
X167419428Y-99476571D01*
X168633714Y-97476571D02*
X168490857Y-97548000D01*
X168419428Y-97690857D01*
X168490857Y-97833714D01*
X168633714Y-97905142D01*
X168776571Y-97833714D01*
X168848000Y-97690857D01*
X168776571Y-97548000D01*
X168633714Y-97476571D01*
X169776571Y-98333714D02*
X169705142Y-98405142D01*
X169776571Y-98476571D01*
X169848000Y-98405142D01*
X169776571Y-98333714D01*
X169776571Y-98476571D01*
X170776571Y-98905142D02*
X170776571Y-98976571D01*
X170705142Y-99119428D01*
X170633714Y-99190857D01*
X171276571Y-98476571D02*
X172562285Y-98476571D01*
X173133714Y-98119428D02*
X174276571Y-98119428D01*
X173705142Y-98690857D02*
X173705142Y-97548000D01*
X174276571Y-98976571D02*
X173133714Y-98976571D01*
X174919428Y-98548000D02*
X175633714Y-98548000D01*
X174776571Y-98976571D02*
X175276571Y-97476571D01*
X175776571Y-98976571D01*
X175276571Y-97476571D02*
X175133714Y-97405142D01*
X175062285Y-97262285D01*
X175133714Y-97119428D01*
X175276571Y-97048000D01*
X175419428Y-97119428D01*
X175490857Y-97262285D01*
X175419428Y-97405142D01*
X175276571Y-97476571D01*
X176276571Y-98976571D02*
X176276571Y-97476571D01*
X176419428Y-96905142D02*
X176205142Y-97119428D01*
X176990857Y-98976571D02*
X176990857Y-97476571D01*
X176705142Y-97119428D02*
X176990857Y-96905142D01*
X177276571Y-97119428D01*
X177705142Y-98976571D02*
X177705142Y-97476571D01*
X177419428Y-96976571D02*
X177490857Y-97048000D01*
X177419428Y-97119428D01*
X177348000Y-97048000D01*
X177419428Y-96976571D01*
X177419428Y-97119428D01*
X177990857Y-96976571D02*
X178062285Y-97048000D01*
X177990857Y-97119428D01*
X177919428Y-97048000D01*
X177990857Y-96976571D01*
X177990857Y-97119428D01*
X178419428Y-98976571D02*
X178419428Y-97476571D01*
X179419428Y-97476571D01*
X179419428Y-98976571D01*
X178419428Y-98976571D01*
X180419428Y-97476571D02*
X180705142Y-97476571D01*
X180848000Y-97548000D01*
X180990857Y-97690857D01*
X181062285Y-97976571D01*
X181062285Y-98476571D01*
X180990857Y-98762285D01*
X180848000Y-98905142D01*
X180705142Y-98976571D01*
X180419428Y-98976571D01*
X180276571Y-98905142D01*
X180133714Y-98762285D01*
X180062285Y-98476571D01*
X180062285Y-97976571D01*
X180133714Y-97690857D01*
X180276571Y-97548000D01*
X180419428Y-97476571D01*
X180705142Y-96905142D02*
X180490857Y-97119428D01*
X181990857Y-97476571D02*
X182276571Y-97476571D01*
X182419428Y-97548000D01*
X182562285Y-97690857D01*
X182633714Y-97976571D01*
X182633714Y-98476571D01*
X182562285Y-98762285D01*
X182419428Y-98905142D01*
X182276571Y-98976571D01*
X181990857Y-98976571D01*
X181848000Y-98905142D01*
X181705142Y-98762285D01*
X181633714Y-98476571D01*
X181633714Y-97976571D01*
X181705142Y-97690857D01*
X181848000Y-97548000D01*
X181990857Y-97476571D01*
X181848000Y-97119428D02*
X182133714Y-96905142D01*
X182419428Y-97119428D01*
X183490857Y-98833714D02*
X183562285Y-98905142D01*
X183490857Y-98976571D01*
X183419428Y-98905142D01*
X183490857Y-98833714D01*
X183490857Y-98976571D01*
X183205142Y-97548000D02*
X183348000Y-97476571D01*
X183705142Y-97476571D01*
X183848000Y-97548000D01*
X183919428Y-97690857D01*
X183919428Y-97833714D01*
X183848000Y-97976571D01*
X183776571Y-98048000D01*
X183633714Y-98119428D01*
X183562285Y-98190857D01*
X183490857Y-98333714D01*
X183490857Y-98405142D01*
X184848000Y-97476571D02*
X185133714Y-97476571D01*
X185276571Y-97548000D01*
X185419428Y-97690857D01*
X185490857Y-97976571D01*
X185490857Y-98476571D01*
X185419428Y-98762285D01*
X185276571Y-98905142D01*
X185133714Y-98976571D01*
X184848000Y-98976571D01*
X184705142Y-98905142D01*
X184562285Y-98762285D01*
X184490857Y-98476571D01*
X184490857Y-97976571D01*
X184562285Y-97690857D01*
X184705142Y-97548000D01*
X184848000Y-97476571D01*
X184848000Y-96905142D02*
X185062285Y-97119428D01*
X186133714Y-97476571D02*
X186133714Y-98690857D01*
X186205142Y-98833714D01*
X186276571Y-98905142D01*
X186419428Y-98976571D01*
X186705142Y-98976571D01*
X186848000Y-98905142D01*
X186919428Y-98833714D01*
X186990857Y-98690857D01*
X186990857Y-97476571D01*
X186705142Y-96905142D02*
X186490857Y-97119428D01*
X187633714Y-98548000D02*
X188205142Y-98548000D01*
X188205142Y-98190857D02*
X188705142Y-98190857D01*
X187490857Y-98976571D02*
X187990857Y-97476571D01*
X188919428Y-97476571D01*
X188205142Y-97476571D02*
X188205142Y-98976571D01*
X188919428Y-98976571D01*
X189562285Y-99048000D02*
X189705142Y-99119428D01*
X189776571Y-99262285D01*
X189705142Y-99405142D01*
X189562285Y-99476571D01*
X189348000Y-99476571D01*
X190276571Y-98976571D02*
X190276571Y-97476571D01*
X191276571Y-97476571D01*
X191276571Y-98976571D01*
X190276571Y-98976571D01*
X192848000Y-98833714D02*
X192776571Y-98905142D01*
X192562285Y-98976571D01*
X192419428Y-98976571D01*
X192205142Y-98905142D01*
X192062285Y-98762285D01*
X191990857Y-98619428D01*
X191919428Y-98333714D01*
X191919428Y-98119428D01*
X191990857Y-97833714D01*
X192062285Y-97690857D01*
X192205142Y-97548000D01*
X192419428Y-97476571D01*
X192562285Y-97476571D01*
X192776571Y-97548000D01*
X192848000Y-97619428D01*
X192490857Y-99048000D02*
X192633714Y-99119428D01*
X192705142Y-99262285D01*
X192633714Y-99405142D01*
X192490857Y-99476571D01*
X192276571Y-99476571D01*
X194062285Y-99405142D02*
X193490857Y-98405142D01*
X194062285Y-97476571D01*
X194633714Y-98405142D01*
X194062285Y-99405142D01*
X195348000Y-98976571D02*
X195348000Y-97976571D01*
X196062285Y-98976571D02*
X196062285Y-97476571D01*
X197062285Y-97476571D01*
X197062285Y-98976571D01*
X196062285Y-98976571D01*
X197705142Y-98548000D02*
X198419428Y-98548000D01*
X197562285Y-98976571D02*
X198062285Y-97476571D01*
X198562285Y-98976571D01*
X197776571Y-97119428D02*
X198062285Y-96905142D01*
X198348000Y-97119428D01*
X198776571Y-97548000D02*
X199490857Y-97548000D01*
X199919428Y-98976571D02*
X199919428Y-97476571D01*
X200919428Y-97476571D01*
X200919428Y-98976571D01*
X199919428Y-98976571D01*
X201990857Y-98119428D02*
X201919428Y-98048000D01*
X201990857Y-97976571D01*
X202062285Y-98048000D01*
X201990857Y-98119428D01*
X201990857Y-97976571D01*
X202276571Y-99405142D02*
X202133714Y-99476571D01*
X201776571Y-99476571D01*
X201633714Y-99405142D01*
X201562285Y-99262285D01*
X201562285Y-99119428D01*
X201633714Y-98976571D01*
X201705142Y-98905142D01*
X201848000Y-98833714D01*
X201919428Y-98762285D01*
X201990857Y-98619428D01*
X201990857Y-98548000D01*
X75364857Y-94992000D02*
X76079142Y-94992000D01*
X75222000Y-95420571D02*
X75722000Y-93920571D01*
X76222000Y-95420571D01*
X77222000Y-94634857D02*
X77436285Y-94706285D01*
X77507714Y-94777714D01*
X77579142Y-94920571D01*
X77579142Y-95134857D01*
X77507714Y-95277714D01*
X77436285Y-95349142D01*
X77293428Y-95420571D01*
X76722000Y-95420571D01*
X76722000Y-93920571D01*
X77222000Y-93920571D01*
X77364857Y-93992000D01*
X77436285Y-94063428D01*
X77507714Y-94206285D01*
X77507714Y-94349142D01*
X77436285Y-94492000D01*
X77364857Y-94563428D01*
X77222000Y-94634857D01*
X76722000Y-94634857D01*
X79079142Y-95277714D02*
X79007714Y-95349142D01*
X78793428Y-95420571D01*
X78650571Y-95420571D01*
X78436285Y-95349142D01*
X78293428Y-95206285D01*
X78222000Y-95063428D01*
X78150571Y-94777714D01*
X78150571Y-94563428D01*
X78222000Y-94277714D01*
X78293428Y-94134857D01*
X78436285Y-93992000D01*
X78650571Y-93920571D01*
X78793428Y-93920571D01*
X79007714Y-93992000D01*
X79079142Y-94063428D01*
X79722000Y-95420571D02*
X79722000Y-93920571D01*
X80079142Y-93920571D01*
X80293428Y-93992000D01*
X80436285Y-94134857D01*
X80507714Y-94277714D01*
X80579142Y-94563428D01*
X80579142Y-94777714D01*
X80507714Y-95063428D01*
X80436285Y-95206285D01*
X80293428Y-95349142D01*
X80079142Y-95420571D01*
X79722000Y-95420571D01*
X81222000Y-94634857D02*
X81722000Y-94634857D01*
X81936285Y-95420571D02*
X81222000Y-95420571D01*
X81222000Y-93920571D01*
X81936285Y-93920571D01*
X83079142Y-94634857D02*
X82579142Y-94634857D01*
X82579142Y-95420571D02*
X82579142Y-93920571D01*
X83293428Y-93920571D01*
X84650571Y-93992000D02*
X84507714Y-93920571D01*
X84293428Y-93920571D01*
X84079142Y-93992000D01*
X83936285Y-94134857D01*
X83864857Y-94277714D01*
X83793428Y-94563428D01*
X83793428Y-94777714D01*
X83864857Y-95063428D01*
X83936285Y-95206285D01*
X84079142Y-95349142D01*
X84293428Y-95420571D01*
X84436285Y-95420571D01*
X84650571Y-95349142D01*
X84722000Y-95277714D01*
X84722000Y-94777714D01*
X84436285Y-94777714D01*
X85364857Y-95420571D02*
X85364857Y-93920571D01*
X85364857Y-94634857D02*
X86222000Y-94634857D01*
X86222000Y-95420571D02*
X86222000Y-93920571D01*
X86936285Y-95420571D02*
X86936285Y-93920571D01*
X88079142Y-93920571D02*
X88079142Y-94992000D01*
X88007714Y-95206285D01*
X87864857Y-95349142D01*
X87650571Y-95420571D01*
X87507714Y-95420571D01*
X88793428Y-95420571D02*
X88793428Y-93920571D01*
X89650571Y-95420571D02*
X89007714Y-94563428D01*
X89650571Y-93920571D02*
X88793428Y-94777714D01*
X91007714Y-95420571D02*
X90293428Y-95420571D01*
X90293428Y-93920571D01*
X91507714Y-95420571D02*
X91507714Y-93920571D01*
X92007714Y-94992000D01*
X92507714Y-93920571D01*
X92507714Y-95420571D01*
X93222000Y-95420571D02*
X93222000Y-93920571D01*
X94079142Y-95420571D01*
X94079142Y-93920571D01*
X95079142Y-93920571D02*
X95364857Y-93920571D01*
X95507714Y-93992000D01*
X95650571Y-94134857D01*
X95722000Y-94420571D01*
X95722000Y-94920571D01*
X95650571Y-95206285D01*
X95507714Y-95349142D01*
X95364857Y-95420571D01*
X95079142Y-95420571D01*
X94936285Y-95349142D01*
X94793428Y-95206285D01*
X94722000Y-94920571D01*
X94722000Y-94420571D01*
X94793428Y-94134857D01*
X94936285Y-93992000D01*
X95079142Y-93920571D01*
X96364857Y-95420571D02*
X96364857Y-93920571D01*
X96936285Y-93920571D01*
X97079142Y-93992000D01*
X97150571Y-94063428D01*
X97222000Y-94206285D01*
X97222000Y-94420571D01*
X97150571Y-94563428D01*
X97079142Y-94634857D01*
X96936285Y-94706285D01*
X96364857Y-94706285D01*
X98864857Y-95563428D02*
X98722000Y-95492000D01*
X98579142Y-95349142D01*
X98364857Y-95134857D01*
X98222000Y-95063428D01*
X98079142Y-95063428D01*
X98150571Y-95420571D02*
X98007714Y-95349142D01*
X97864857Y-95206285D01*
X97793428Y-94920571D01*
X97793428Y-94420571D01*
X97864857Y-94134857D01*
X98007714Y-93992000D01*
X98150571Y-93920571D01*
X98436285Y-93920571D01*
X98579142Y-93992000D01*
X98722000Y-94134857D01*
X98793428Y-94420571D01*
X98793428Y-94920571D01*
X98722000Y-95206285D01*
X98579142Y-95349142D01*
X98436285Y-95420571D01*
X98150571Y-95420571D01*
X100293428Y-95420571D02*
X99793428Y-94706285D01*
X99436285Y-95420571D02*
X99436285Y-93920571D01*
X100007714Y-93920571D01*
X100150571Y-93992000D01*
X100222000Y-94063428D01*
X100293428Y-94206285D01*
X100293428Y-94420571D01*
X100222000Y-94563428D01*
X100150571Y-94634857D01*
X100007714Y-94706285D01*
X99436285Y-94706285D01*
X100864857Y-95349142D02*
X101079142Y-95420571D01*
X101436285Y-95420571D01*
X101579142Y-95349142D01*
X101650571Y-95277714D01*
X101722000Y-95134857D01*
X101722000Y-94992000D01*
X101650571Y-94849142D01*
X101579142Y-94777714D01*
X101436285Y-94706285D01*
X101150571Y-94634857D01*
X101007714Y-94563428D01*
X100936285Y-94492000D01*
X100864857Y-94349142D01*
X100864857Y-94206285D01*
X100936285Y-94063428D01*
X101007714Y-93992000D01*
X101150571Y-93920571D01*
X101507714Y-93920571D01*
X101722000Y-93992000D01*
X102150571Y-93920571D02*
X103007714Y-93920571D01*
X102579142Y-95420571D02*
X102579142Y-93920571D01*
X103507714Y-93920571D02*
X103507714Y-95134857D01*
X103579142Y-95277714D01*
X103650571Y-95349142D01*
X103793428Y-95420571D01*
X104079142Y-95420571D01*
X104222000Y-95349142D01*
X104293428Y-95277714D01*
X104364857Y-95134857D01*
X104364857Y-93920571D01*
X104864857Y-93920571D02*
X105364857Y-95420571D01*
X105864857Y-93920571D01*
X106222000Y-93920571D02*
X106579142Y-95420571D01*
X106864857Y-94349142D01*
X107150571Y-95420571D01*
X107507714Y-93920571D01*
X107936285Y-93920571D02*
X108936285Y-95420571D01*
X108936285Y-93920571D02*
X107936285Y-95420571D01*
X109793428Y-94706285D02*
X109793428Y-95420571D01*
X109293428Y-93920571D02*
X109793428Y-94706285D01*
X110293428Y-93920571D01*
X110650571Y-93920571D02*
X111650571Y-93920571D01*
X110650571Y-95420571D01*
X111650571Y-95420571D01*
X163816571Y-95531714D02*
X163888000Y-95603142D01*
X163816571Y-95674571D01*
X163745142Y-95603142D01*
X163816571Y-95531714D01*
X163816571Y-95674571D01*
X163816571Y-95103142D02*
X163745142Y-94246000D01*
X163816571Y-94174571D01*
X163888000Y-94246000D01*
X163816571Y-95103142D01*
X163816571Y-94174571D01*
X165459428Y-94960285D02*
X165388000Y-94888857D01*
X165245142Y-94817428D01*
X165102285Y-94817428D01*
X164959428Y-94888857D01*
X164888000Y-94960285D01*
X164816571Y-95103142D01*
X164816571Y-95246000D01*
X164888000Y-95388857D01*
X164959428Y-95460285D01*
X165102285Y-95531714D01*
X165245142Y-95531714D01*
X165388000Y-95460285D01*
X165459428Y-95388857D01*
X165459428Y-94817428D02*
X165459428Y-95388857D01*
X165530857Y-95460285D01*
X165602285Y-95460285D01*
X165745142Y-95388857D01*
X165816571Y-95246000D01*
X165816571Y-94888857D01*
X165673714Y-94674571D01*
X165459428Y-94531714D01*
X165173714Y-94460285D01*
X164888000Y-94531714D01*
X164673714Y-94674571D01*
X164530857Y-94888857D01*
X164459428Y-95174571D01*
X164530857Y-95460285D01*
X164673714Y-95674571D01*
X164888000Y-95817428D01*
X165173714Y-95888857D01*
X165459428Y-95817428D01*
X165673714Y-95674571D01*
X166388000Y-94674571D02*
X167459428Y-94674571D01*
X166816571Y-94031714D02*
X166388000Y-95960285D01*
X167316571Y-95317428D02*
X166245142Y-95317428D01*
X166888000Y-95960285D02*
X167316571Y-94031714D01*
X167888000Y-95603142D02*
X168102285Y-95674571D01*
X168459428Y-95674571D01*
X168602285Y-95603142D01*
X168673714Y-95531714D01*
X168745142Y-95388857D01*
X168745142Y-95246000D01*
X168673714Y-95103142D01*
X168602285Y-95031714D01*
X168459428Y-94960285D01*
X168173714Y-94888857D01*
X168030857Y-94817428D01*
X167959428Y-94746000D01*
X167888000Y-94603142D01*
X167888000Y-94460285D01*
X167959428Y-94317428D01*
X168030857Y-94246000D01*
X168173714Y-94174571D01*
X168530857Y-94174571D01*
X168745142Y-94246000D01*
X168316571Y-93960285D02*
X168316571Y-95888857D01*
X169316571Y-95674571D02*
X170459428Y-94174571D01*
X169530857Y-94174571D02*
X169673714Y-94246000D01*
X169745142Y-94388857D01*
X169673714Y-94531714D01*
X169530857Y-94603142D01*
X169388000Y-94531714D01*
X169316571Y-94388857D01*
X169388000Y-94246000D01*
X169530857Y-94174571D01*
X170388000Y-95603142D02*
X170459428Y-95460285D01*
X170388000Y-95317428D01*
X170245142Y-95246000D01*
X170102285Y-95317428D01*
X170030857Y-95460285D01*
X170102285Y-95603142D01*
X170245142Y-95674571D01*
X170388000Y-95603142D01*
X170888000Y-94317428D02*
X171173714Y-94103142D01*
X171459428Y-94317428D01*
X173173714Y-95674571D02*
X173102285Y-95674571D01*
X172959428Y-95603142D01*
X172745142Y-95388857D01*
X172388000Y-94960285D01*
X172245142Y-94746000D01*
X172173714Y-94531714D01*
X172173714Y-94388857D01*
X172245142Y-94246000D01*
X172388000Y-94174571D01*
X172459428Y-94174571D01*
X172602285Y-94246000D01*
X172673714Y-94388857D01*
X172673714Y-94460285D01*
X172602285Y-94603142D01*
X172530857Y-94674571D01*
X172102285Y-94960285D01*
X172030857Y-95031714D01*
X171959428Y-95174571D01*
X171959428Y-95388857D01*
X172030857Y-95531714D01*
X172102285Y-95603142D01*
X172245142Y-95674571D01*
X172459428Y-95674571D01*
X172602285Y-95603142D01*
X172673714Y-95531714D01*
X172888000Y-95246000D01*
X172959428Y-95031714D01*
X172959428Y-94888857D01*
X174030857Y-94174571D02*
X174030857Y-94531714D01*
X173673714Y-94388857D02*
X174030857Y-94531714D01*
X174388000Y-94388857D01*
X173816571Y-94817428D02*
X174030857Y-94531714D01*
X174245142Y-94817428D01*
X175388000Y-96246000D02*
X175316571Y-96174571D01*
X175173714Y-95960285D01*
X175102285Y-95817428D01*
X175030857Y-95603142D01*
X174959428Y-95246000D01*
X174959428Y-94960285D01*
X175030857Y-94603142D01*
X175102285Y-94388857D01*
X175173714Y-94246000D01*
X175316571Y-94031714D01*
X175388000Y-93960285D01*
X175816571Y-96246000D02*
X175888000Y-96174571D01*
X176030857Y-95960285D01*
X176102285Y-95817428D01*
X176173714Y-95603142D01*
X176245142Y-95246000D01*
X176245142Y-94960285D01*
X176173714Y-94603142D01*
X176102285Y-94388857D01*
X176030857Y-94246000D01*
X175888000Y-94031714D01*
X175816571Y-93960285D01*
X176602285Y-95817428D02*
X177745142Y-95817428D01*
X178102285Y-95103142D02*
X179245142Y-95103142D01*
X178673714Y-95674571D02*
X178673714Y-94531714D01*
X180388000Y-96246000D02*
X180316571Y-96246000D01*
X180173714Y-96174571D01*
X180102285Y-96031714D01*
X180102285Y-95317428D01*
X180030857Y-95174571D01*
X179888000Y-95103142D01*
X180030857Y-95031714D01*
X180102285Y-94888857D01*
X180102285Y-94174571D01*
X180173714Y-94031714D01*
X180316571Y-93960285D01*
X180388000Y-93960285D01*
X180816571Y-96246000D02*
X180888000Y-96246000D01*
X181030857Y-96174571D01*
X181102285Y-96031714D01*
X181102285Y-95317428D01*
X181173714Y-95174571D01*
X181316571Y-95103142D01*
X181173714Y-95031714D01*
X181102285Y-94888857D01*
X181102285Y-94174571D01*
X181030857Y-94031714D01*
X180888000Y-93960285D01*
X180816571Y-93960285D01*
X182316571Y-96174571D02*
X182316571Y-94031714D01*
X183388000Y-95531714D02*
X183459428Y-95603142D01*
X183388000Y-95674571D01*
X183316571Y-95603142D01*
X183388000Y-95531714D01*
X183388000Y-95674571D01*
X183388000Y-94746000D02*
X183459428Y-94817428D01*
X183388000Y-94888857D01*
X183316571Y-94817428D01*
X183388000Y-94746000D01*
X183388000Y-94888857D01*
X184102285Y-94174571D02*
X184102285Y-94246000D01*
X184030857Y-94388857D01*
X183959428Y-94460285D01*
X184673714Y-94174571D02*
X184673714Y-94246000D01*
X184602285Y-94388857D01*
X184530857Y-94460285D01*
X186388000Y-94674571D02*
X185245142Y-95103142D01*
X186388000Y-95531714D01*
X187102285Y-94674571D02*
X188245142Y-95103142D01*
X187102285Y-95531714D01*
X189173714Y-95531714D02*
X189245142Y-95603142D01*
X189173714Y-95674571D01*
X189102285Y-95603142D01*
X189173714Y-95531714D01*
X189173714Y-95674571D01*
X188888000Y-94246000D02*
X189030857Y-94174571D01*
X189388000Y-94174571D01*
X189530857Y-94246000D01*
X189602285Y-94388857D01*
X189602285Y-94531714D01*
X189530857Y-94674571D01*
X189459428Y-94746000D01*
X189316571Y-94817428D01*
X189245142Y-94888857D01*
X189173714Y-95031714D01*
X189173714Y-95103142D01*
X190245142Y-95103142D02*
X191388000Y-95103142D01*
X192102285Y-94888857D02*
X193245142Y-94888857D01*
X193245142Y-95317428D02*
X192102285Y-95317428D01*
X194388000Y-96174571D02*
X194030857Y-96174571D01*
X194030857Y-94031714D01*
X194388000Y-94031714D01*
X194816571Y-96174571D02*
X195173714Y-96174571D01*
X195173714Y-94031714D01*
X194816571Y-94031714D01*
X196602285Y-94031714D02*
X197888000Y-95960285D01*
X199316571Y-95603142D02*
X199316571Y-95674571D01*
X199245142Y-95817428D01*
X199173714Y-95888857D01*
X199245142Y-94746000D02*
X199316571Y-94817428D01*
X199245142Y-94888857D01*
X199173714Y-94817428D01*
X199245142Y-94746000D01*
X199245142Y-94888857D01*
X200030857Y-94174571D02*
X200030857Y-94246000D01*
X199959428Y-94388857D01*
X199888000Y-94460285D01*
X200745142Y-95603142D02*
X200745142Y-95674571D01*
X200673714Y-95817428D01*
X200602285Y-95888857D01*
X201388000Y-95531714D02*
X201459428Y-95603142D01*
X201388000Y-95674571D01*
X201316571Y-95603142D01*
X201388000Y-95531714D01*
X201388000Y-95674571D01*
X203173714Y-94103142D02*
X201888000Y-96031714D01*
X75164571Y-98119428D02*
X75093142Y-98048000D01*
X75164571Y-97976571D01*
X75236000Y-98048000D01*
X75164571Y-98119428D01*
X75164571Y-97976571D01*
X75164571Y-98548000D02*
X75236000Y-99405142D01*
X75164571Y-99476571D01*
X75093142Y-99405142D01*
X75164571Y-98548000D01*
X75164571Y-99476571D01*
X75878857Y-98976571D02*
X75878857Y-97476571D01*
X76878857Y-97476571D01*
X76878857Y-98976571D01*
X75878857Y-98976571D01*
X77521714Y-97976571D02*
X78093142Y-97976571D01*
X77521714Y-98976571D02*
X78307428Y-98976571D01*
X77736000Y-98976571D02*
X77736000Y-97690857D01*
X77807428Y-97548000D01*
X77950285Y-97476571D01*
X78164571Y-97476571D01*
X78307428Y-97548000D01*
X79593142Y-98905142D02*
X79450285Y-98976571D01*
X79164571Y-98976571D01*
X79021714Y-98905142D01*
X78950285Y-98833714D01*
X78878857Y-98690857D01*
X78878857Y-98262285D01*
X78950285Y-98119428D01*
X79021714Y-98048000D01*
X79164571Y-97976571D01*
X79450285Y-97976571D01*
X79593142Y-98048000D01*
X79307428Y-97762285D02*
X79307428Y-99190857D01*
X80950285Y-98262285D02*
X81093142Y-98190857D01*
X81236000Y-98262285D01*
X81307428Y-98405142D01*
X81236000Y-98548000D01*
X81093142Y-98619428D01*
X80950285Y-98548000D01*
X80664571Y-98262285D01*
X80521714Y-98190857D01*
X80378857Y-98262285D01*
X80307428Y-98405142D01*
X80378857Y-98548000D01*
X80521714Y-98619428D01*
X80664571Y-98548000D01*
X80950285Y-98262285D01*
X82093142Y-99119428D02*
X82236000Y-99190857D01*
X82450285Y-99190857D01*
X82593142Y-99119428D01*
X82664571Y-98976571D01*
X82593142Y-98833714D01*
X82164571Y-98405142D01*
X82093142Y-98262285D01*
X82093142Y-98190857D01*
X82164571Y-98048000D01*
X82307428Y-97976571D01*
X82664571Y-97548000D02*
X82521714Y-97476571D01*
X82307428Y-97476571D01*
X82164571Y-97548000D01*
X82093142Y-97690857D01*
X82164571Y-97833714D01*
X82593142Y-98262285D01*
X82664571Y-98405142D01*
X82664571Y-98476571D01*
X82593142Y-98619428D01*
X82450285Y-98690857D01*
X84164571Y-97976571D02*
X84164571Y-98976571D01*
X83664571Y-97976571D02*
X83664571Y-98762285D01*
X83593142Y-98905142D01*
X83450285Y-98976571D01*
X84450285Y-97976571D02*
X83521714Y-97976571D01*
X83378857Y-98048000D01*
X83307428Y-98190857D01*
X85450285Y-98262285D02*
X85450285Y-98548000D01*
X85521714Y-98548000D02*
X85521714Y-98262285D01*
X85593142Y-98190857D02*
X85593142Y-98619428D01*
X85664571Y-98548000D02*
X85664571Y-98262285D01*
X85736000Y-98262285D02*
X85736000Y-98548000D01*
X85450285Y-98476571D02*
X85593142Y-98619428D01*
X85736000Y-98476571D01*
X85450285Y-98333714D02*
X85593142Y-98190857D01*
X85736000Y-98333714D01*
X85450285Y-98262285D02*
X85593142Y-98190857D01*
X85736000Y-98262285D01*
X85807428Y-98405142D01*
X85736000Y-98548000D01*
X85593142Y-98619428D01*
X85450285Y-98548000D01*
X85378857Y-98405142D01*
X85450285Y-98262285D01*
X86807428Y-97405142D02*
X86950285Y-97333714D01*
X87093142Y-97333714D01*
X87236000Y-97405142D01*
X87307428Y-97548000D01*
X87307428Y-98048000D01*
X87307428Y-97976571D02*
X87164571Y-98048000D01*
X86950285Y-98048000D01*
X86807428Y-97976571D01*
X86736000Y-97833714D01*
X86807428Y-97690857D01*
X86950285Y-97619428D01*
X87307428Y-97619428D01*
X88021714Y-98048000D02*
X87878857Y-97976571D01*
X87807428Y-97833714D01*
X87807428Y-97548000D01*
X87878857Y-97405142D01*
X88021714Y-97333714D01*
X88164571Y-97333714D01*
X88307428Y-97405142D01*
X88378857Y-97548000D01*
X88378857Y-97833714D01*
X88307428Y-97976571D01*
X88164571Y-98048000D01*
X88021714Y-98048000D01*
X89307428Y-98476571D02*
X88736000Y-98476571D01*
X89807428Y-98190857D02*
X90950285Y-98190857D01*
X90521714Y-97976571D02*
X90236000Y-98833714D01*
X90950285Y-98619428D02*
X89807428Y-98619428D01*
X93021714Y-98905142D02*
X92878857Y-98976571D01*
X92593142Y-98976571D01*
X92450285Y-98905142D01*
X92378857Y-98762285D01*
X92378857Y-98190857D01*
X92450285Y-98048000D01*
X92593142Y-97976571D01*
X92878857Y-97976571D01*
X93021714Y-98048000D01*
X93093142Y-98190857D01*
X93093142Y-98333714D01*
X92378857Y-98476571D01*
X92378857Y-98262285D02*
X92307428Y-98119428D01*
X92236000Y-98048000D01*
X92093142Y-97976571D01*
X91878857Y-97976571D01*
X91736000Y-98048000D01*
X91664571Y-98119428D01*
X91593142Y-98262285D01*
X91593142Y-98690857D01*
X91664571Y-98833714D01*
X91736000Y-98905142D01*
X91878857Y-98976571D01*
X92093142Y-98976571D01*
X92236000Y-98905142D01*
X92307428Y-98833714D01*
X92378857Y-98690857D01*
X94878857Y-99333714D02*
X93664571Y-99333714D01*
X94450285Y-98405142D01*
X93664571Y-97476571D01*
X94950285Y-97476571D01*
X95664571Y-97405142D02*
X95450285Y-97619428D01*
X97450285Y-98762285D02*
X97093142Y-98333714D01*
X96807428Y-98762285D02*
X96807428Y-97762285D01*
X97236000Y-97762285D01*
X97378857Y-97833714D01*
X97450285Y-97976571D01*
X97450285Y-98119428D01*
X97378857Y-98262285D01*
X97236000Y-98333714D01*
X96807428Y-98333714D01*
X97093142Y-97262285D02*
X96736000Y-97333714D01*
X96378857Y-97548000D01*
X96164571Y-97905142D01*
X96093142Y-98262285D01*
X96164571Y-98619428D01*
X96378857Y-98976571D01*
X96736000Y-99190857D01*
X97093142Y-99262285D01*
X97450285Y-99190857D01*
X97807428Y-98976571D01*
X98021714Y-98619428D01*
X98093142Y-98262285D01*
X98021714Y-97905142D01*
X97807428Y-97548000D01*
X97450285Y-97333714D01*
X97093142Y-97262285D01*
X98664571Y-97976571D02*
X99378857Y-97976571D01*
X99021714Y-97476571D02*
X99021714Y-99476571D01*
X99950285Y-98476571D02*
X101093142Y-98476571D01*
X99950285Y-97976571D02*
X101093142Y-97976571D01*
X100521714Y-98262285D02*
X100521714Y-98976571D01*
X100021714Y-97476571D02*
X100521714Y-98262285D01*
X101021714Y-97476571D01*
X101521714Y-97476571D02*
X101593142Y-97548000D01*
X101521714Y-97619428D01*
X101450285Y-97548000D01*
X101521714Y-97476571D01*
X101521714Y-97619428D01*
X102093142Y-97476571D02*
X102164571Y-97548000D01*
X102093142Y-97619428D01*
X102021714Y-97548000D01*
X102093142Y-97476571D01*
X102093142Y-97619428D01*
X102593142Y-98976571D02*
X102593142Y-97476571D01*
X103593142Y-97476571D01*
X103593142Y-98976571D01*
X102593142Y-98976571D01*
X105093142Y-97976571D02*
X104164571Y-98976571D01*
X104521714Y-98976571D02*
X104378857Y-98905142D01*
X104307428Y-98833714D01*
X104236000Y-98690857D01*
X104236000Y-98262285D01*
X104307428Y-98119428D01*
X104378857Y-98048000D01*
X104521714Y-97976571D01*
X104736000Y-97976571D01*
X104878857Y-98048000D01*
X104950285Y-98119428D01*
X105021714Y-98262285D01*
X105021714Y-98690857D01*
X104950285Y-98833714D01*
X104878857Y-98905142D01*
X104736000Y-98976571D01*
X104521714Y-98976571D01*
X106450285Y-97976571D02*
X106450285Y-98976571D01*
X105950285Y-97976571D02*
X105950285Y-98762285D01*
X105878857Y-98905142D01*
X105736000Y-98976571D01*
X106736000Y-97976571D02*
X105807428Y-97976571D01*
X105664571Y-98048000D01*
X105593142Y-98190857D01*
X107736000Y-97548000D02*
X107736000Y-97476571D01*
X107807428Y-97333714D01*
X107878857Y-97262285D01*
X107164571Y-97548000D02*
X107164571Y-97476571D01*
X107236000Y-97333714D01*
X107307428Y-97262285D01*
X108378857Y-97548000D02*
X108378857Y-97476571D01*
X108450285Y-97333714D01*
X108521714Y-97262285D01*
X109521714Y-97976571D02*
X109093142Y-98405142D01*
X109521714Y-98833714D01*
X109950285Y-98690857D02*
X109664571Y-98405142D01*
X109950285Y-98119428D01*
X111235999Y-98976571D02*
X111235999Y-98190857D01*
X111164571Y-98048000D01*
X111021714Y-97976571D01*
X110735999Y-97976571D01*
X110593142Y-98048000D01*
X111235999Y-98905142D02*
X111093142Y-98976571D01*
X110735999Y-98976571D01*
X110593142Y-98905142D01*
X110521714Y-98762285D01*
X110521714Y-98619428D01*
X110593142Y-98476571D01*
X110735999Y-98405142D01*
X111093142Y-98405142D01*
X111235999Y-98333714D01*
X110878857Y-97619428D02*
X110735999Y-97548000D01*
X110664571Y-97405142D01*
X110735999Y-97262285D01*
X110878857Y-97190857D01*
X111021714Y-97262285D01*
X111093142Y-97405142D01*
X111021714Y-97548000D01*
X110878857Y-97619428D01*
X111950285Y-98976571D02*
X111950285Y-97762285D01*
X112021714Y-97619428D01*
X112093142Y-97548000D01*
X112235999Y-97476571D01*
X112450285Y-97476571D01*
X112593142Y-97548000D01*
X112664571Y-97619428D01*
X112735999Y-97762285D01*
X112735999Y-97976571D01*
X112521714Y-97976571D01*
X112378857Y-98048000D01*
X112307428Y-98190857D01*
X112307428Y-98262285D01*
X112378857Y-98405142D01*
X112521714Y-98476571D01*
X112735999Y-98476571D01*
X112878857Y-98548000D01*
X112950285Y-98690857D01*
X112950285Y-98762285D01*
X112878857Y-98905142D01*
X112735999Y-98976571D01*
X112450285Y-98976571D01*
X112307428Y-98905142D01*
X114307428Y-98119428D02*
X114235999Y-98048000D01*
X114093142Y-97976571D01*
X113807428Y-97976571D01*
X113664571Y-98048000D01*
X113593142Y-98119428D01*
X113521714Y-98262285D01*
X113521714Y-98690857D01*
X113593142Y-98833714D01*
X113664571Y-98905142D01*
X113807428Y-98976571D01*
X114021714Y-98976571D01*
X114164571Y-98905142D01*
X114235999Y-98833714D01*
X114307428Y-98690857D01*
X114307428Y-97762285D01*
X114235999Y-97619428D01*
X114164571Y-97548000D01*
X114021714Y-97476571D01*
X113735999Y-97476571D01*
X113593142Y-97548000D01*
X114735999Y-97976571D02*
X115307428Y-97976571D01*
X114950285Y-98976571D02*
X114950285Y-97690857D01*
X115021714Y-97548000D01*
X115164571Y-97476571D01*
X115307428Y-97476571D01*
X114950285Y-98976571D02*
X114950285Y-99262285D01*
X114878857Y-99405142D01*
X114735999Y-99476571D01*
X114593142Y-99476571D01*
X117021714Y-97833714D02*
X116878857Y-97762285D01*
X116593142Y-97762285D01*
X116450285Y-97833714D01*
X116307428Y-97976571D01*
X116235999Y-98119428D01*
X116235999Y-98405142D01*
X116307428Y-98548000D01*
X116450285Y-98690857D01*
X116593142Y-98762285D01*
X116878857Y-98762285D01*
X117021714Y-98690857D01*
X116735999Y-97262285D02*
X116378857Y-97333714D01*
X116021714Y-97548000D01*
X115807428Y-97905142D01*
X115735999Y-98262285D01*
X115807428Y-98619428D01*
X116021714Y-98976571D01*
X116378857Y-99190857D01*
X116735999Y-99262285D01*
X117093142Y-99190857D01*
X117450285Y-98976571D01*
X117664571Y-98619428D01*
X117735999Y-98262285D01*
X117664571Y-97905142D01*
X117450285Y-97548000D01*
X117093142Y-97333714D01*
X116735999Y-97262285D01*
X118378857Y-98976571D02*
X118378857Y-97476571D01*
X119378857Y-97476571D01*
X119378857Y-98976571D01*
X118378857Y-98976571D01*
X119878857Y-98976571D02*
X120378857Y-97476571D01*
X120878857Y-98976571D01*
X119878857Y-98976571D01*
X121378857Y-98976571D02*
X121378857Y-97476571D01*
X122378857Y-97476571D01*
X122378857Y-98976571D01*
X121378857Y-98976571D01*
X123093142Y-98262285D02*
X124236000Y-98262285D01*
X124236000Y-98619428D01*
X124950285Y-98833714D02*
X125021714Y-98905142D01*
X124950285Y-98976571D01*
X124878857Y-98905142D01*
X124950285Y-98833714D01*
X124950285Y-98976571D01*
X125664571Y-98833714D02*
X125736000Y-98905142D01*
X125664571Y-98976571D01*
X125593142Y-98905142D01*
X125664571Y-98833714D01*
X125664571Y-98976571D01*
X126378857Y-98833714D02*
X126450285Y-98905142D01*
X126378857Y-98976571D01*
X126307428Y-98905142D01*
X126378857Y-98833714D01*
X126378857Y-98976571D01*
X127093142Y-98048000D02*
X127236000Y-97976571D01*
X127521714Y-97976571D01*
X127664571Y-98048000D01*
X127736000Y-98190857D01*
X128378857Y-98905142D02*
X128236000Y-98976571D01*
X127950285Y-98976571D01*
X127807428Y-98905142D01*
X127736000Y-98762285D01*
X127736000Y-98190857D01*
X127807428Y-98048000D01*
X127950285Y-97976571D01*
X128236000Y-97976571D01*
X128378857Y-98048000D01*
X128450285Y-98190857D01*
X128450285Y-98333714D01*
X127736000Y-98405142D01*
X127236000Y-98405142D01*
X127093142Y-98476571D01*
X127021714Y-98619428D01*
X127021714Y-98762285D01*
X127093142Y-98905142D01*
X127236000Y-98976571D01*
X127521714Y-98976571D01*
X127664571Y-98905142D01*
X127736000Y-98762285D01*
X129021714Y-98976571D02*
X129378857Y-98976571D01*
X129378857Y-98690857D01*
X129236000Y-98619428D01*
X129093142Y-98476571D01*
X129021714Y-98262285D01*
X129021714Y-97905142D01*
X129093142Y-97690857D01*
X129236000Y-97548000D01*
X129450285Y-97476571D01*
X129736000Y-97476571D01*
X129950285Y-97548000D01*
X130093142Y-97690857D01*
X130164571Y-97905142D01*
X130164571Y-98262285D01*
X130093142Y-98476571D01*
X129950285Y-98619428D01*
X129807428Y-98690857D01*
X129807428Y-98976571D01*
X130164571Y-98976571D01*
X130807428Y-98619428D02*
X130878857Y-98548000D01*
X131093142Y-98476571D01*
X131307428Y-98548000D01*
X131450285Y-98690857D01*
X131664571Y-98762285D01*
X131878857Y-98690857D01*
X131950285Y-98619428D01*
X130807428Y-98190857D02*
X130878857Y-98119428D01*
X131093142Y-98048000D01*
X131307428Y-98119428D01*
X131450285Y-98262285D01*
X131664571Y-98333714D01*
X131878857Y-98262285D01*
X131950285Y-98190857D01*
X133307428Y-98905142D02*
X133164571Y-98976571D01*
X132878857Y-98976571D01*
X132736000Y-98905142D01*
X132664571Y-98833714D01*
X132593142Y-98690857D01*
X132593142Y-98262285D01*
X132664571Y-98119428D01*
X132736000Y-98048000D01*
X132878857Y-97976571D01*
X133164571Y-97976571D01*
X133307428Y-98048000D01*
X133021714Y-99048000D02*
X133164571Y-99119428D01*
X133236000Y-99262285D01*
X133164571Y-99405142D01*
X133021714Y-99476571D01*
X132807428Y-99476571D01*
X133878857Y-98476571D02*
X134164571Y-98405142D01*
X134307428Y-98976571D01*
X135378857Y-97190857D01*
X135664571Y-99119428D02*
X135736000Y-99262285D01*
X135878857Y-99333714D01*
X136021714Y-99262285D01*
X136093142Y-99119428D01*
X136093142Y-97690857D01*
X136164571Y-97548000D01*
X136307428Y-97476571D01*
X136450285Y-97548000D01*
X136521714Y-97690857D01*
X137164571Y-98976571D02*
X137164571Y-97476571D01*
X138164571Y-97476571D01*
X138164571Y-98976571D01*
X137164571Y-98976571D01*
X138878857Y-97976571D02*
X138878857Y-99476571D01*
X139593142Y-98762285D02*
X139664571Y-98905142D01*
X139807428Y-98976571D01*
X138878857Y-98762285D02*
X138950285Y-98905142D01*
X139093142Y-98976571D01*
X139378857Y-98976571D01*
X139521714Y-98905142D01*
X139593142Y-98762285D01*
X139593142Y-97976571D01*
X141593142Y-98905142D02*
X140450285Y-98905142D01*
X141593142Y-98619428D02*
X140450285Y-98190857D01*
X141593142Y-97762285D01*
X142307428Y-98905142D02*
X143450285Y-98905142D01*
X142307428Y-98619428D02*
X143450285Y-98190857D01*
X142307428Y-97762285D01*
X145307428Y-98405142D02*
X144164571Y-98405142D01*
X144736000Y-98762285D02*
X144807428Y-98833714D01*
X144736000Y-98905142D01*
X144664571Y-98833714D01*
X144736000Y-98762285D01*
X144736000Y-98905142D01*
X144736000Y-97905142D02*
X144807428Y-97976571D01*
X144736000Y-98048000D01*
X144664571Y-97976571D01*
X144736000Y-97905142D01*
X144736000Y-98048000D01*
X115190857Y-95420571D02*
X115190857Y-94634857D01*
X115119428Y-94492000D01*
X114976571Y-94420571D01*
X114690857Y-94420571D01*
X114547999Y-94492000D01*
X115190857Y-95349142D02*
X115047999Y-95420571D01*
X114690857Y-95420571D01*
X114547999Y-95349142D01*
X114476571Y-95206285D01*
X114476571Y-95063428D01*
X114547999Y-94920571D01*
X114690857Y-94849142D01*
X115047999Y-94849142D01*
X115190857Y-94777714D01*
X115905142Y-95420571D02*
X115905142Y-93920571D01*
X115905142Y-94492000D02*
X116047999Y-94420571D01*
X116333714Y-94420571D01*
X116476571Y-94492000D01*
X116547999Y-94563428D01*
X116619428Y-94706285D01*
X116619428Y-95134857D01*
X116547999Y-95277714D01*
X116476571Y-95349142D01*
X116333714Y-95420571D01*
X116047999Y-95420571D01*
X115905142Y-95349142D01*
X117905142Y-95349142D02*
X117762285Y-95420571D01*
X117476571Y-95420571D01*
X117333714Y-95349142D01*
X117262285Y-95277714D01*
X117190857Y-95134857D01*
X117190857Y-94706285D01*
X117262285Y-94563428D01*
X117333714Y-94492000D01*
X117476571Y-94420571D01*
X117762285Y-94420571D01*
X117905142Y-94492000D01*
X119190857Y-95420571D02*
X119190857Y-93920571D01*
X119190857Y-95349142D02*
X119047999Y-95420571D01*
X118762285Y-95420571D01*
X118619428Y-95349142D01*
X118547999Y-95277714D01*
X118476571Y-95134857D01*
X118476571Y-94706285D01*
X118547999Y-94563428D01*
X118619428Y-94492000D01*
X118762285Y-94420571D01*
X119047999Y-94420571D01*
X119190857Y-94492000D01*
X120476571Y-95349142D02*
X120333714Y-95420571D01*
X120047999Y-95420571D01*
X119905142Y-95349142D01*
X119833714Y-95206285D01*
X119833714Y-94634857D01*
X119905142Y-94492000D01*
X120047999Y-94420571D01*
X120333714Y-94420571D01*
X120476571Y-94492000D01*
X120547999Y-94634857D01*
X120547999Y-94777714D01*
X119833714Y-94920571D01*
X120976571Y-94420571D02*
X121547999Y-94420571D01*
X121190857Y-95420571D02*
X121190857Y-94134857D01*
X121262285Y-93992000D01*
X121405142Y-93920571D01*
X121547999Y-93920571D01*
X122690857Y-94420571D02*
X122690857Y-95634857D01*
X122619428Y-95777714D01*
X122547999Y-95849142D01*
X122405142Y-95920571D01*
X122190857Y-95920571D01*
X122047999Y-95849142D01*
X122690857Y-95349142D02*
X122547999Y-95420571D01*
X122262285Y-95420571D01*
X122119428Y-95349142D01*
X122047999Y-95277714D01*
X121976571Y-95134857D01*
X121976571Y-94706285D01*
X122047999Y-94563428D01*
X122119428Y-94492000D01*
X122262285Y-94420571D01*
X122547999Y-94420571D01*
X122690857Y-94492000D01*
X123405142Y-95420571D02*
X123405142Y-93920571D01*
X124047999Y-95420571D02*
X124047999Y-94634857D01*
X123976571Y-94492000D01*
X123833714Y-94420571D01*
X123619428Y-94420571D01*
X123476571Y-94492000D01*
X123405142Y-94563428D01*
X124762285Y-95420571D02*
X124762285Y-94420571D01*
X124762285Y-93920571D02*
X124690857Y-93992000D01*
X124762285Y-94063428D01*
X124833714Y-93992000D01*
X124762285Y-93920571D01*
X124762285Y-94063428D01*
X125476571Y-94420571D02*
X125476571Y-95706285D01*
X125405142Y-95849142D01*
X125262285Y-95920571D01*
X125190857Y-95920571D01*
X125476571Y-93920571D02*
X125405142Y-93992000D01*
X125476571Y-94063428D01*
X125547999Y-93992000D01*
X125476571Y-93920571D01*
X125476571Y-94063428D01*
X126190857Y-95420571D02*
X126190857Y-93920571D01*
X126333714Y-94849142D02*
X126762285Y-95420571D01*
X126762285Y-94420571D02*
X126190857Y-94992000D01*
X127619428Y-95420571D02*
X127476571Y-95349142D01*
X127405142Y-95206285D01*
X127405142Y-93920571D01*
X128190857Y-95420571D02*
X128190857Y-94420571D01*
X128190857Y-94563428D02*
X128262285Y-94492000D01*
X128405142Y-94420571D01*
X128619428Y-94420571D01*
X128762285Y-94492000D01*
X128833714Y-94634857D01*
X128833714Y-95420571D01*
X128833714Y-94634857D02*
X128905142Y-94492000D01*
X129047999Y-94420571D01*
X129262285Y-94420571D01*
X129405142Y-94492000D01*
X129476571Y-94634857D01*
X129476571Y-95420571D01*
X130190857Y-94420571D02*
X130190857Y-95420571D01*
X130190857Y-94563428D02*
X130262285Y-94492000D01*
X130405142Y-94420571D01*
X130619428Y-94420571D01*
X130762285Y-94492000D01*
X130833714Y-94634857D01*
X130833714Y-95420571D01*
X131762285Y-95420571D02*
X131619428Y-95349142D01*
X131548000Y-95277714D01*
X131476571Y-95134857D01*
X131476571Y-94706285D01*
X131548000Y-94563428D01*
X131619428Y-94492000D01*
X131762285Y-94420571D01*
X131976571Y-94420571D01*
X132119428Y-94492000D01*
X132190857Y-94563428D01*
X132262285Y-94706285D01*
X132262285Y-95134857D01*
X132190857Y-95277714D01*
X132119428Y-95349142D01*
X131976571Y-95420571D01*
X131762285Y-95420571D01*
X132905142Y-94420571D02*
X132905142Y-95920571D01*
X132905142Y-94492000D02*
X133048000Y-94420571D01*
X133333714Y-94420571D01*
X133476571Y-94492000D01*
X133548000Y-94563428D01*
X133619428Y-94706285D01*
X133619428Y-95134857D01*
X133548000Y-95277714D01*
X133476571Y-95349142D01*
X133333714Y-95420571D01*
X133048000Y-95420571D01*
X132905142Y-95349142D01*
X134905142Y-94420571D02*
X134905142Y-95920571D01*
X134905142Y-95349142D02*
X134762285Y-95420571D01*
X134476571Y-95420571D01*
X134333714Y-95349142D01*
X134262285Y-95277714D01*
X134190857Y-95134857D01*
X134190857Y-94706285D01*
X134262285Y-94563428D01*
X134333714Y-94492000D01*
X134476571Y-94420571D01*
X134762285Y-94420571D01*
X134905142Y-94492000D01*
X135619428Y-95420571D02*
X135619428Y-94420571D01*
X135619428Y-94706285D02*
X135690857Y-94563428D01*
X135762285Y-94492000D01*
X135905142Y-94420571D01*
X136048000Y-94420571D01*
X136476571Y-95349142D02*
X136619428Y-95420571D01*
X136905142Y-95420571D01*
X137048000Y-95349142D01*
X137119428Y-95206285D01*
X137119428Y-95134857D01*
X137048000Y-94992000D01*
X136905142Y-94920571D01*
X136690857Y-94920571D01*
X136548000Y-94849142D01*
X136476571Y-94706285D01*
X136476571Y-94634857D01*
X136548000Y-94492000D01*
X136690857Y-94420571D01*
X136905142Y-94420571D01*
X137048000Y-94492000D01*
X137548000Y-94420571D02*
X138119428Y-94420571D01*
X137762285Y-93920571D02*
X137762285Y-95206285D01*
X137833714Y-95349142D01*
X137976571Y-95420571D01*
X138119428Y-95420571D01*
X139262285Y-94420571D02*
X139262285Y-95420571D01*
X138619428Y-94420571D02*
X138619428Y-95206285D01*
X138690857Y-95349142D01*
X138833714Y-95420571D01*
X139048000Y-95420571D01*
X139190857Y-95349142D01*
X139262285Y-95277714D01*
X139833714Y-94420571D02*
X140190857Y-95420571D01*
X140548000Y-94420571D01*
X140976571Y-94420571D02*
X141262285Y-95420571D01*
X141548000Y-94706285D01*
X141833714Y-95420571D01*
X142119428Y-94420571D01*
X142548000Y-95420571D02*
X143333714Y-94420571D01*
X142548000Y-94420571D02*
X143333714Y-95420571D01*
X143762285Y-94420571D02*
X144119428Y-95420571D01*
X144476571Y-94420571D02*
X144119428Y-95420571D01*
X143976571Y-95777714D01*
X143905142Y-95849142D01*
X143762285Y-95920571D01*
X144905142Y-94420571D02*
X145690857Y-94420571D01*
X144905142Y-95420571D01*
X145690857Y-95420571D01*
X147932000Y-94174571D02*
X148074857Y-94174571D01*
X148217714Y-94246000D01*
X148289142Y-94317428D01*
X148360571Y-94460285D01*
X148432000Y-94746000D01*
X148432000Y-95103142D01*
X148360571Y-95388857D01*
X148289142Y-95531714D01*
X148217714Y-95603142D01*
X148074857Y-95674571D01*
X147932000Y-95674571D01*
X147789142Y-95603142D01*
X147717714Y-95531714D01*
X147646285Y-95388857D01*
X147574857Y-95103142D01*
X147574857Y-94746000D01*
X147646285Y-94460285D01*
X147717714Y-94317428D01*
X147789142Y-94246000D01*
X147932000Y-94174571D01*
X149860571Y-95674571D02*
X149003428Y-95674571D01*
X149432000Y-95674571D02*
X149432000Y-94174571D01*
X149289142Y-94388857D01*
X149146285Y-94531714D01*
X149003428Y-94603142D01*
X150432000Y-94317428D02*
X150503428Y-94246000D01*
X150646285Y-94174571D01*
X151003428Y-94174571D01*
X151146285Y-94246000D01*
X151217714Y-94317428D01*
X151289142Y-94460285D01*
X151289142Y-94603142D01*
X151217714Y-94817428D01*
X150360571Y-95674571D01*
X151289142Y-95674571D01*
X151789142Y-94174571D02*
X152717714Y-94174571D01*
X152217714Y-94746000D01*
X152432000Y-94746000D01*
X152574857Y-94817428D01*
X152646285Y-94888857D01*
X152717714Y-95031714D01*
X152717714Y-95388857D01*
X152646285Y-95531714D01*
X152574857Y-95603142D01*
X152432000Y-95674571D01*
X152003428Y-95674571D01*
X151860571Y-95603142D01*
X151789142Y-95531714D01*
X154003428Y-94674571D02*
X154003428Y-95674571D01*
X153646285Y-94103142D02*
X153289142Y-95174571D01*
X154217714Y-95174571D01*
X155503428Y-94174571D02*
X154789142Y-94174571D01*
X154717714Y-94888857D01*
X154789142Y-94817428D01*
X154932000Y-94746000D01*
X155289142Y-94746000D01*
X155432000Y-94817428D01*
X155503428Y-94888857D01*
X155574857Y-95031714D01*
X155574857Y-95388857D01*
X155503428Y-95531714D01*
X155432000Y-95603142D01*
X155289142Y-95674571D01*
X154932000Y-95674571D01*
X154789142Y-95603142D01*
X154717714Y-95531714D01*
X156860571Y-94174571D02*
X156574857Y-94174571D01*
X156432000Y-94246000D01*
X156360571Y-94317428D01*
X156217714Y-94531714D01*
X156146285Y-94817428D01*
X156146285Y-95388857D01*
X156217714Y-95531714D01*
X156289142Y-95603142D01*
X156432000Y-95674571D01*
X156717714Y-95674571D01*
X156860571Y-95603142D01*
X156932000Y-95531714D01*
X157003428Y-95388857D01*
X157003428Y-95031714D01*
X156932000Y-94888857D01*
X156860571Y-94817428D01*
X156717714Y-94746000D01*
X156432000Y-94746000D01*
X156289142Y-94817428D01*
X156217714Y-94888857D01*
X156146285Y-95031714D01*
X157503428Y-94174571D02*
X158503428Y-94174571D01*
X157860571Y-95674571D01*
X159289142Y-94817428D02*
X159146285Y-94746000D01*
X159074857Y-94674571D01*
X159003428Y-94531714D01*
X159003428Y-94460285D01*
X159074857Y-94317428D01*
X159146285Y-94246000D01*
X159289142Y-94174571D01*
X159574857Y-94174571D01*
X159717714Y-94246000D01*
X159789142Y-94317428D01*
X159860571Y-94460285D01*
X159860571Y-94531714D01*
X159789142Y-94674571D01*
X159717714Y-94746000D01*
X159574857Y-94817428D01*
X159289142Y-94817428D01*
X159146285Y-94888857D01*
X159074857Y-94960285D01*
X159003428Y-95103142D01*
X159003428Y-95388857D01*
X159074857Y-95531714D01*
X159146285Y-95603142D01*
X159289142Y-95674571D01*
X159574857Y-95674571D01*
X159717714Y-95603142D01*
X159789142Y-95531714D01*
X159860571Y-95388857D01*
X159860571Y-95103142D01*
X159789142Y-94960285D01*
X159717714Y-94888857D01*
X159574857Y-94817428D01*
X160574857Y-95674571D02*
X160860571Y-95674571D01*
X161003428Y-95603142D01*
X161074857Y-95531714D01*
X161217714Y-95317428D01*
X161289142Y-95031714D01*
X161289142Y-94460285D01*
X161217714Y-94317428D01*
X161146285Y-94246000D01*
X161003428Y-94174571D01*
X160717714Y-94174571D01*
X160574857Y-94246000D01*
X160503428Y-94317428D01*
X160432000Y-94460285D01*
X160432000Y-94817428D01*
X160503428Y-94960285D01*
X160574857Y-95031714D01*
X160717714Y-95103142D01*
X161003428Y-95103142D01*
X161146285Y-95031714D01*
X161217714Y-94960285D01*
X161289142Y-94817428D01*
D10*
G36*
X229362000Y-99314000D02*
G01*
X227330000Y-99314000D01*
X227330000Y-98298000D01*
X229362000Y-98298000D01*
X229362000Y-99314000D01*
G37*
G36*
X228346000Y-91186000D02*
G01*
X226314000Y-91186000D01*
X226314000Y-90170000D01*
X228346000Y-90170000D01*
X228346000Y-91186000D01*
G37*
G36*
X229362000Y-91186000D02*
G01*
X227330000Y-91186000D01*
X227330000Y-90170000D01*
X229362000Y-90170000D01*
X229362000Y-91186000D01*
G37*
G36*
X229362000Y-95250000D02*
G01*
X227330000Y-95250000D01*
X227330000Y-94234000D01*
X229362000Y-94234000D01*
X229362000Y-95250000D01*
G37*
G36*
X229362000Y-93218000D02*
G01*
X227330000Y-93218000D01*
X227330000Y-92202000D01*
X229362000Y-92202000D01*
X229362000Y-93218000D01*
G37*
G36*
X229362000Y-97282000D02*
G01*
X227330000Y-97282000D01*
X227330000Y-96266000D01*
X229362000Y-96266000D01*
X229362000Y-97282000D01*
G37*
G36*
X242316000Y-96266000D02*
G01*
X241300000Y-96266000D01*
X241300000Y-94234000D01*
X242316000Y-94234000D01*
X242316000Y-96266000D01*
G37*
G36*
X242316000Y-97282000D02*
G01*
X241300000Y-97282000D01*
X241300000Y-95250000D01*
X242316000Y-95250000D01*
X242316000Y-97282000D01*
G37*
G36*
X240284000Y-97282000D02*
G01*
X239268000Y-97282000D01*
X239268000Y-95250000D01*
X240284000Y-95250000D01*
X240284000Y-97282000D01*
G37*
G36*
X238252000Y-97282000D02*
G01*
X237236000Y-97282000D01*
X237236000Y-95250000D01*
X238252000Y-95250000D01*
X238252000Y-97282000D01*
G37*
G36*
X236220000Y-97282000D02*
G01*
X235204000Y-97282000D01*
X235204000Y-95250000D01*
X236220000Y-95250000D01*
X236220000Y-97282000D01*
G37*
G36*
X234188000Y-97282000D02*
G01*
X233172000Y-97282000D01*
X233172000Y-95250000D01*
X234188000Y-95250000D01*
X234188000Y-97282000D01*
G37*
G36*
X217932000Y-95758000D02*
G01*
X216916000Y-95758000D01*
X216916000Y-94742000D01*
X217932000Y-94742000D01*
X217932000Y-95758000D01*
G37*
G36*
X220980000Y-95250000D02*
G01*
X219964000Y-95250000D01*
X219964000Y-94234000D01*
X220980000Y-94234000D01*
X220980000Y-95250000D01*
G37*
G36*
X221996000Y-95758000D02*
G01*
X220980000Y-95758000D01*
X220980000Y-94742000D01*
X221996000Y-94742000D01*
X221996000Y-95758000D01*
G37*
G36*
X216916000Y-95250000D02*
G01*
X215900000Y-95250000D01*
X215900000Y-94234000D01*
X216916000Y-94234000D01*
X216916000Y-95250000D01*
G37*
G36*
X219964000Y-94234000D02*
G01*
X218948000Y-94234000D01*
X218948000Y-93218000D01*
X219964000Y-93218000D01*
X219964000Y-94234000D01*
G37*
G36*
X218948000Y-93726000D02*
G01*
X217932000Y-93726000D01*
X217932000Y-92710000D01*
X218948000Y-92710000D01*
X218948000Y-93726000D01*
G37*
G36*
X216916000Y-98298000D02*
G01*
X215900000Y-98298000D01*
X215900000Y-97282000D01*
X216916000Y-97282000D01*
X216916000Y-98298000D01*
G37*
G36*
X217932000Y-98806000D02*
G01*
X216916000Y-98806000D01*
X216916000Y-97790000D01*
X217932000Y-97790000D01*
X217932000Y-98806000D01*
G37*
G36*
X221996000Y-98806000D02*
G01*
X220980000Y-98806000D01*
X220980000Y-97790000D01*
X221996000Y-97790000D01*
X221996000Y-98806000D01*
G37*
G36*
X220980000Y-98298000D02*
G01*
X219964000Y-98298000D01*
X219964000Y-97282000D01*
X220980000Y-97282000D01*
X220980000Y-98298000D01*
G37*
G36*
X219964000Y-97282000D02*
G01*
X218948000Y-97282000D01*
X218948000Y-96266000D01*
X219964000Y-96266000D01*
X219964000Y-97282000D01*
G37*
G36*
X218948000Y-96774000D02*
G01*
X217932000Y-96774000D01*
X217932000Y-95758000D01*
X218948000Y-95758000D01*
X218948000Y-96774000D01*
G37*
D12*
G36*
X218440000Y-61976000D02*
G01*
X218440000Y-61722000D01*
X231140000Y-61722000D01*
X218440000Y-61976000D01*
G37*
X218440000Y-61976000D02*
X218440000Y-61722000D01*
X231140000Y-61722000D01*
X218440000Y-61976000D01*
G36*
X218440000Y-62484000D02*
G01*
X218440000Y-62230000D01*
X231140000Y-62230000D01*
X218440000Y-62484000D01*
G37*
X218440000Y-62484000D02*
X218440000Y-62230000D01*
X231140000Y-62230000D01*
X218440000Y-62484000D01*
G36*
X218440000Y-62738000D02*
G01*
X218440000Y-62484000D01*
X231140000Y-62484000D01*
X218440000Y-62738000D01*
G37*
X218440000Y-62738000D02*
X218440000Y-62484000D01*
X231140000Y-62484000D01*
X218440000Y-62738000D01*
G36*
X218440000Y-62230000D02*
G01*
X218440000Y-61976000D01*
X231140000Y-61976000D01*
X218440000Y-62230000D01*
G37*
X218440000Y-62230000D02*
X218440000Y-61976000D01*
X231140000Y-61976000D01*
X218440000Y-62230000D01*
G36*
X218440000Y-61722000D02*
G01*
X218440000Y-61468000D01*
X231140000Y-61468000D01*
X218440000Y-61722000D01*
G37*
X218440000Y-61722000D02*
X218440000Y-61468000D01*
X231140000Y-61468000D01*
X218440000Y-61722000D01*
D10*
G36*
X231394000Y-60452000D02*
G01*
X218186000Y-60452000D01*
X218186000Y-58674000D01*
X231394000Y-58674000D01*
X231394000Y-60452000D01*
G37*
X231394000Y-60452000D02*
X218186000Y-60452000D01*
X218186000Y-58674000D01*
X231394000Y-58674000D01*
X231394000Y-60452000D01*
G36*
X103886000Y-89408000D02*
G01*
X72390000Y-89408000D01*
X72390000Y-64008000D01*
X103886000Y-64008000D01*
X103886000Y-89408000D01*
G37*
X103886000Y-89408000D02*
X72390000Y-89408000D01*
X72390000Y-64008000D01*
X103886000Y-64008000D01*
X103886000Y-89408000D01*
G36*
X164338000Y-89408000D02*
G01*
X138938000Y-89408000D01*
X138938000Y-64008000D01*
X164338000Y-64008000D01*
X164338000Y-89408000D01*
G37*
X164338000Y-89408000D02*
X138938000Y-89408000D01*
X138938000Y-64008000D01*
X164338000Y-64008000D01*
X164338000Y-89408000D01*
D12*
%TO.C,G\u002A\u002A\u002A*%
G36*
X243487984Y-82396105D02*
G01*
X243488971Y-82395547D01*
X243541339Y-82362203D01*
X243623784Y-82305105D01*
X243726232Y-82231620D01*
X243838606Y-82149115D01*
X243950833Y-82064957D01*
X244052838Y-81986514D01*
X244106700Y-81943842D01*
X244249618Y-81821229D01*
X244413128Y-81668457D01*
X244587188Y-81495894D01*
X244761760Y-81313907D01*
X244926804Y-81132867D01*
X245072281Y-80963139D01*
X245148100Y-80868329D01*
X245484162Y-80392542D01*
X245776719Y-79893581D01*
X246024963Y-79374642D01*
X246228087Y-78838926D01*
X246385282Y-78289631D01*
X246495741Y-77729954D01*
X246558657Y-77163095D01*
X246573222Y-76592251D01*
X246538628Y-76020623D01*
X246479973Y-75593519D01*
X246357963Y-75025669D01*
X246189581Y-74473138D01*
X245976714Y-73938962D01*
X245721251Y-73426180D01*
X245425080Y-72937829D01*
X245090089Y-72476946D01*
X244718167Y-72046568D01*
X244311202Y-71649734D01*
X243871082Y-71289480D01*
X243748810Y-71200299D01*
X243653367Y-71132842D01*
X243571175Y-71075567D01*
X243512308Y-71035447D01*
X243489025Y-71020524D01*
X243472828Y-70998706D01*
X243483841Y-70957746D01*
X243510382Y-70908817D01*
X243535157Y-70867971D01*
X243557772Y-70843093D01*
X243585755Y-70836448D01*
X243626635Y-70850304D01*
X243687939Y-70886928D01*
X243777196Y-70948586D01*
X243875677Y-71018810D01*
X244337020Y-71379062D01*
X244764077Y-71775433D01*
X245155196Y-72205109D01*
X245508723Y-72665278D01*
X245823008Y-73153126D01*
X246096397Y-73665840D01*
X246327238Y-74200607D01*
X246513878Y-74754614D01*
X246654667Y-75325047D01*
X246747914Y-75908789D01*
X246758726Y-76029058D01*
X246767815Y-76184033D01*
X246775013Y-76362940D01*
X246780154Y-76555007D01*
X246783074Y-76749459D01*
X246783604Y-76935522D01*
X246781579Y-77102422D01*
X246776833Y-77239385D01*
X246769849Y-77330300D01*
X246720009Y-77707026D01*
X246663667Y-78040647D01*
X246599557Y-78338586D01*
X246594573Y-78359000D01*
X246426346Y-78938244D01*
X246212915Y-79494986D01*
X245955401Y-80027573D01*
X245654925Y-80534353D01*
X245312608Y-81013672D01*
X244929571Y-81463877D01*
X244506935Y-81883315D01*
X244045821Y-82270333D01*
X243837004Y-82425646D01*
X243740601Y-82493966D01*
X243659668Y-82549819D01*
X243602807Y-82587373D01*
X243578725Y-82600800D01*
X243558057Y-82581259D01*
X243522800Y-82532190D01*
X243507880Y-82508794D01*
X243474283Y-82448882D01*
X243468427Y-82415968D01*
X243487984Y-82396105D01*
G37*
X243487984Y-82396105D02*
X243488971Y-82395547D01*
X243541339Y-82362203D01*
X243623784Y-82305105D01*
X243726232Y-82231620D01*
X243838606Y-82149115D01*
X243950833Y-82064957D01*
X244052838Y-81986514D01*
X244106700Y-81943842D01*
X244249618Y-81821229D01*
X244413128Y-81668457D01*
X244587188Y-81495894D01*
X244761760Y-81313907D01*
X244926804Y-81132867D01*
X245072281Y-80963139D01*
X245148100Y-80868329D01*
X245484162Y-80392542D01*
X245776719Y-79893581D01*
X246024963Y-79374642D01*
X246228087Y-78838926D01*
X246385282Y-78289631D01*
X246495741Y-77729954D01*
X246558657Y-77163095D01*
X246573222Y-76592251D01*
X246538628Y-76020623D01*
X246479973Y-75593519D01*
X246357963Y-75025669D01*
X246189581Y-74473138D01*
X245976714Y-73938962D01*
X245721251Y-73426180D01*
X245425080Y-72937829D01*
X245090089Y-72476946D01*
X244718167Y-72046568D01*
X244311202Y-71649734D01*
X243871082Y-71289480D01*
X243748810Y-71200299D01*
X243653367Y-71132842D01*
X243571175Y-71075567D01*
X243512308Y-71035447D01*
X243489025Y-71020524D01*
X243472828Y-70998706D01*
X243483841Y-70957746D01*
X243510382Y-70908817D01*
X243535157Y-70867971D01*
X243557772Y-70843093D01*
X243585755Y-70836448D01*
X243626635Y-70850304D01*
X243687939Y-70886928D01*
X243777196Y-70948586D01*
X243875677Y-71018810D01*
X244337020Y-71379062D01*
X244764077Y-71775433D01*
X245155196Y-72205109D01*
X245508723Y-72665278D01*
X245823008Y-73153126D01*
X246096397Y-73665840D01*
X246327238Y-74200607D01*
X246513878Y-74754614D01*
X246654667Y-75325047D01*
X246747914Y-75908789D01*
X246758726Y-76029058D01*
X246767815Y-76184033D01*
X246775013Y-76362940D01*
X246780154Y-76555007D01*
X246783074Y-76749459D01*
X246783604Y-76935522D01*
X246781579Y-77102422D01*
X246776833Y-77239385D01*
X246769849Y-77330300D01*
X246720009Y-77707026D01*
X246663667Y-78040647D01*
X246599557Y-78338586D01*
X246594573Y-78359000D01*
X246426346Y-78938244D01*
X246212915Y-79494986D01*
X245955401Y-80027573D01*
X245654925Y-80534353D01*
X245312608Y-81013672D01*
X244929571Y-81463877D01*
X244506935Y-81883315D01*
X244045821Y-82270333D01*
X243837004Y-82425646D01*
X243740601Y-82493966D01*
X243659668Y-82549819D01*
X243602807Y-82587373D01*
X243578725Y-82600800D01*
X243558057Y-82581259D01*
X243522800Y-82532190D01*
X243507880Y-82508794D01*
X243474283Y-82448882D01*
X243468427Y-82415968D01*
X243487984Y-82396105D01*
G36*
X233873580Y-76630034D02*
G01*
X233919482Y-76570625D01*
X234001119Y-76518380D01*
X234123295Y-76470333D01*
X234290815Y-76423518D01*
X234315480Y-76417534D01*
X234453113Y-76387334D01*
X234615257Y-76356935D01*
X234804069Y-76326102D01*
X235021706Y-76294598D01*
X235270323Y-76262185D01*
X235552078Y-76228629D01*
X235869128Y-76193692D01*
X236223628Y-76157138D01*
X236617735Y-76118731D01*
X237053607Y-76078234D01*
X237533399Y-76035411D01*
X238059268Y-75990026D01*
X238633371Y-75941842D01*
X238721900Y-75934513D01*
X239330531Y-75884065D01*
X239890988Y-75837268D01*
X240405746Y-75793876D01*
X240877279Y-75753639D01*
X241308062Y-75716309D01*
X241700572Y-75681639D01*
X242057283Y-75649381D01*
X242380671Y-75619285D01*
X242673210Y-75591104D01*
X242937376Y-75564590D01*
X243175645Y-75539495D01*
X243390490Y-75515570D01*
X243584388Y-75492567D01*
X243759814Y-75470239D01*
X243919243Y-75448336D01*
X244065151Y-75426611D01*
X244200011Y-75404816D01*
X244326301Y-75382703D01*
X244440586Y-75361175D01*
X244549169Y-75340305D01*
X244638324Y-75323682D01*
X244696835Y-75313366D01*
X244713636Y-75311000D01*
X244728830Y-75291803D01*
X244729000Y-75288467D01*
X244704999Y-75275033D01*
X244637569Y-75255720D01*
X244533572Y-75231844D01*
X244399866Y-75204719D01*
X244243311Y-75175658D01*
X244070768Y-75145977D01*
X243889096Y-75116989D01*
X243705155Y-75090009D01*
X243662200Y-75084083D01*
X243445720Y-75055956D01*
X243179121Y-75023708D01*
X242862329Y-74987333D01*
X242495269Y-74946822D01*
X242077867Y-74902167D01*
X241610048Y-74853360D01*
X241091738Y-74800393D01*
X240614200Y-74752372D01*
X240038217Y-74694253D01*
X239510790Y-74639749D01*
X239029826Y-74588532D01*
X238593234Y-74540274D01*
X238198923Y-74494646D01*
X237844800Y-74451321D01*
X237528775Y-74409971D01*
X237248755Y-74370268D01*
X237002650Y-74331883D01*
X236788367Y-74294489D01*
X236603814Y-74257757D01*
X236446901Y-74221359D01*
X236315536Y-74184968D01*
X236207627Y-74148255D01*
X236121083Y-74110892D01*
X236053811Y-74072552D01*
X236003721Y-74032906D01*
X235999270Y-74028551D01*
X235933552Y-73942654D01*
X235917367Y-73861881D01*
X235950702Y-73780139D01*
X235998608Y-73723912D01*
X236052105Y-73680493D01*
X236126093Y-73638197D01*
X236223420Y-73596360D01*
X236346937Y-73554321D01*
X236499491Y-73511416D01*
X236683933Y-73466983D01*
X236903109Y-73420359D01*
X237159871Y-73370882D01*
X237457066Y-73317888D01*
X237797544Y-73260716D01*
X238184153Y-73198702D01*
X238404400Y-73164316D01*
X238850413Y-73094624D01*
X239249172Y-73030943D01*
X239603790Y-72972650D01*
X239917378Y-72919125D01*
X240193048Y-72869744D01*
X240433911Y-72823887D01*
X240643079Y-72780933D01*
X240823664Y-72740258D01*
X240978778Y-72701242D01*
X241111532Y-72663263D01*
X241225039Y-72625700D01*
X241322409Y-72587930D01*
X241350678Y-72575694D01*
X241490500Y-72513537D01*
X241422169Y-72454294D01*
X241361426Y-72415689D01*
X241252322Y-72363140D01*
X241095297Y-72296828D01*
X240890788Y-72216930D01*
X240639233Y-72123627D01*
X240423700Y-72046286D01*
X240137637Y-71938684D01*
X239900193Y-71835425D01*
X239709528Y-71734963D01*
X239563803Y-71635751D01*
X239461179Y-71536240D01*
X239399817Y-71434884D01*
X239377878Y-71330135D01*
X239393523Y-71220446D01*
X239404371Y-71188681D01*
X239444010Y-71111949D01*
X239505963Y-71020398D01*
X239571341Y-70940195D01*
X239695999Y-70802500D01*
X239791165Y-70896190D01*
X239886331Y-70989879D01*
X239791899Y-71094403D01*
X239712363Y-71189469D01*
X239669140Y-71261993D01*
X239658836Y-71321121D01*
X239678058Y-71375998D01*
X239683923Y-71385418D01*
X239734909Y-71433650D01*
X239830639Y-71493911D01*
X239967008Y-71564293D01*
X240139908Y-71642885D01*
X240345234Y-71727780D01*
X240578880Y-71817067D01*
X240728500Y-71871085D01*
X240992694Y-71967223D01*
X241211114Y-72053114D01*
X241387260Y-72130870D01*
X241524629Y-72202605D01*
X241626722Y-72270433D01*
X241697037Y-72336466D01*
X241739073Y-72402817D01*
X241756330Y-72471600D01*
X241757200Y-72492338D01*
X241747910Y-72563994D01*
X241718432Y-72631111D01*
X241666349Y-72694454D01*
X241589247Y-72754788D01*
X241484710Y-72812878D01*
X241350323Y-72869489D01*
X241183670Y-72925387D01*
X240982336Y-72981336D01*
X240743906Y-73038102D01*
X240465964Y-73096449D01*
X240146096Y-73157143D01*
X239781885Y-73220950D01*
X239370916Y-73288633D01*
X239115600Y-73329118D01*
X238712022Y-73392575D01*
X238354946Y-73449224D01*
X238040629Y-73499742D01*
X237765327Y-73544809D01*
X237525296Y-73585103D01*
X237316794Y-73621303D01*
X237136077Y-73654088D01*
X236979401Y-73684137D01*
X236843024Y-73712128D01*
X236723202Y-73738741D01*
X236616191Y-73764654D01*
X236518248Y-73790546D01*
X236427148Y-73816646D01*
X236238270Y-73872717D01*
X236337085Y-73907807D01*
X236439669Y-73940265D01*
X236566184Y-73972967D01*
X236718766Y-74006200D01*
X236899553Y-74040252D01*
X237110680Y-74075411D01*
X237354285Y-74111964D01*
X237632504Y-74150201D01*
X237947474Y-74190408D01*
X238301332Y-74232873D01*
X238696213Y-74277884D01*
X239134255Y-74325730D01*
X239617595Y-74376697D01*
X240148368Y-74431074D01*
X240436400Y-74460050D01*
X241011812Y-74517981D01*
X241538736Y-74571879D01*
X242019292Y-74622095D01*
X242455602Y-74668983D01*
X242849787Y-74712893D01*
X243203969Y-74754178D01*
X243520268Y-74793191D01*
X243800807Y-74830283D01*
X244047707Y-74865807D01*
X244263088Y-74900116D01*
X244449073Y-74933560D01*
X244607783Y-74966492D01*
X244741339Y-74999265D01*
X244851863Y-75032231D01*
X244941475Y-75065741D01*
X245012298Y-75100149D01*
X245066453Y-75135806D01*
X245106060Y-75173064D01*
X245133242Y-75212276D01*
X245146335Y-75241987D01*
X245156650Y-75303215D01*
X245133505Y-75360813D01*
X245119632Y-75380902D01*
X245085803Y-75419113D01*
X245040325Y-75455458D01*
X244981175Y-75490213D01*
X244906333Y-75523657D01*
X244813780Y-75556070D01*
X244701495Y-75587728D01*
X244567457Y-75618912D01*
X244409646Y-75649899D01*
X244226043Y-75680967D01*
X244014626Y-75712396D01*
X243773375Y-75744464D01*
X243500270Y-75777448D01*
X243193290Y-75811629D01*
X242850416Y-75847283D01*
X242469627Y-75884691D01*
X242048902Y-75924129D01*
X241586221Y-75965877D01*
X241079564Y-76010212D01*
X240526911Y-76057415D01*
X239926241Y-76107762D01*
X239725200Y-76124447D01*
X239154979Y-76171839D01*
X238632649Y-76215631D01*
X238155452Y-76256095D01*
X237720625Y-76293504D01*
X237325410Y-76328130D01*
X236967045Y-76360245D01*
X236642770Y-76390121D01*
X236349825Y-76418032D01*
X236085449Y-76444250D01*
X235846883Y-76469046D01*
X235631365Y-76492694D01*
X235436136Y-76515466D01*
X235258435Y-76537633D01*
X235095501Y-76559469D01*
X234944575Y-76581246D01*
X234802897Y-76603236D01*
X234698175Y-76620518D01*
X234527596Y-76649870D01*
X234407146Y-76673107D01*
X234336827Y-76692335D01*
X234316638Y-76709661D01*
X234346579Y-76727192D01*
X234426650Y-76747035D01*
X234556852Y-76771296D01*
X234698175Y-76795483D01*
X234833910Y-76817777D01*
X234974994Y-76839485D01*
X235124286Y-76860893D01*
X235284648Y-76882282D01*
X235458939Y-76903938D01*
X235650018Y-76926143D01*
X235860747Y-76949181D01*
X236093986Y-76973336D01*
X236352593Y-76998891D01*
X236639431Y-77026130D01*
X236957357Y-77055336D01*
X237309234Y-77086794D01*
X237697920Y-77120787D01*
X238126276Y-77157598D01*
X238597162Y-77197511D01*
X239113438Y-77240810D01*
X239583659Y-77279954D01*
X240178837Y-77329696D01*
X240725714Y-77376132D01*
X241226665Y-77419511D01*
X241684063Y-77460083D01*
X242100284Y-77498096D01*
X242477701Y-77533799D01*
X242818689Y-77567441D01*
X243125623Y-77599272D01*
X243400877Y-77629540D01*
X243646825Y-77658494D01*
X243865842Y-77686383D01*
X244060302Y-77713456D01*
X244232580Y-77739963D01*
X244385051Y-77766152D01*
X244520087Y-77792272D01*
X244570309Y-77802877D01*
X244742237Y-77842677D01*
X244872328Y-77879404D01*
X244969155Y-77916246D01*
X245041295Y-77956393D01*
X245090590Y-77996439D01*
X245148036Y-78074615D01*
X245155367Y-78153536D01*
X245121021Y-78226689D01*
X245089612Y-78263374D01*
X245046707Y-78298261D01*
X244990073Y-78331707D01*
X244917472Y-78364066D01*
X244826672Y-78395694D01*
X244715435Y-78426944D01*
X244581526Y-78458173D01*
X244422711Y-78489736D01*
X244236754Y-78521986D01*
X244021419Y-78555281D01*
X243774472Y-78589974D01*
X243493677Y-78626420D01*
X243176799Y-78664976D01*
X242821602Y-78705995D01*
X242425851Y-78749833D01*
X241987311Y-78796845D01*
X241503746Y-78847386D01*
X240972922Y-78901811D01*
X240690400Y-78930458D01*
X240166227Y-78983730D01*
X239689754Y-79032811D01*
X239258087Y-79078075D01*
X238868331Y-79119896D01*
X238517592Y-79158649D01*
X238202975Y-79194710D01*
X237921586Y-79228452D01*
X237670531Y-79260250D01*
X237446915Y-79290479D01*
X237247845Y-79319514D01*
X237070424Y-79347729D01*
X236911760Y-79375500D01*
X236768958Y-79403199D01*
X236639122Y-79431204D01*
X236519360Y-79459887D01*
X236439277Y-79480756D01*
X236341872Y-79507522D01*
X236287372Y-79525469D01*
X236269573Y-79538770D01*
X236282272Y-79551597D01*
X236313171Y-79565565D01*
X236390876Y-79593932D01*
X236495115Y-79624460D01*
X236628409Y-79657627D01*
X236793279Y-79693911D01*
X236992248Y-79733792D01*
X237227837Y-79777749D01*
X237502567Y-79826260D01*
X237818960Y-79879805D01*
X238179536Y-79938863D01*
X238586818Y-80003913D01*
X238785400Y-80035172D01*
X239236915Y-80107005D01*
X239640627Y-80173568D01*
X239999186Y-80235505D01*
X240315245Y-80293460D01*
X240591453Y-80348076D01*
X240830463Y-80399996D01*
X241034925Y-80449864D01*
X241207490Y-80498324D01*
X241350810Y-80546018D01*
X241467536Y-80593591D01*
X241560319Y-80641685D01*
X241631810Y-80690945D01*
X241681184Y-80737992D01*
X241743224Y-80839608D01*
X241755861Y-80943484D01*
X241720116Y-81045699D01*
X241637011Y-81142332D01*
X241561423Y-81198182D01*
X241490596Y-81240283D01*
X241409180Y-81282457D01*
X241310681Y-81327410D01*
X241188604Y-81377849D01*
X241036454Y-81436480D01*
X240847736Y-81506009D01*
X240665000Y-81571677D01*
X240412674Y-81663716D01*
X240204758Y-81744248D01*
X240036678Y-81815242D01*
X239903866Y-81878670D01*
X239801749Y-81936499D01*
X239770438Y-81957142D01*
X239696664Y-82017479D01*
X239661145Y-82075741D01*
X239664424Y-82140018D01*
X239707044Y-82218399D01*
X239789548Y-82318975D01*
X239795162Y-82325209D01*
X239886331Y-82426122D01*
X239696527Y-82613500D01*
X239573599Y-82481028D01*
X239460972Y-82338940D01*
X239396194Y-82205759D01*
X239379730Y-82080149D01*
X239412043Y-81960770D01*
X239493599Y-81846284D01*
X239624859Y-81735353D01*
X239806289Y-81626639D01*
X239883068Y-81588221D01*
X239993363Y-81538578D01*
X240138329Y-81478118D01*
X240304481Y-81412206D01*
X240478336Y-81346206D01*
X240625740Y-81292755D01*
X240883616Y-81199498D01*
X241093077Y-81119047D01*
X241254793Y-81051115D01*
X241369433Y-80995415D01*
X241437666Y-80951660D01*
X241451677Y-80937972D01*
X241462361Y-80910985D01*
X241439550Y-80884082D01*
X241382435Y-80851381D01*
X241301531Y-80814414D01*
X241202604Y-80777463D01*
X241082718Y-80739928D01*
X240938935Y-80701208D01*
X240768319Y-80660701D01*
X240567933Y-80617806D01*
X240334841Y-80571923D01*
X240066104Y-80522449D01*
X239758787Y-80468785D01*
X239409952Y-80410328D01*
X239016663Y-80346478D01*
X238575983Y-80276634D01*
X238569500Y-80275616D01*
X238168459Y-80212104D01*
X237814326Y-80154684D01*
X237503665Y-80102659D01*
X237233040Y-80055328D01*
X236999015Y-80011994D01*
X236798153Y-79971958D01*
X236627018Y-79934520D01*
X236482176Y-79898981D01*
X236360188Y-79864643D01*
X236257621Y-79830808D01*
X236171036Y-79796775D01*
X236134588Y-79780373D01*
X236013236Y-79707304D01*
X235940733Y-79627627D01*
X235916098Y-79544609D01*
X235938348Y-79461517D01*
X236006502Y-79381617D01*
X236119578Y-79308176D01*
X236276595Y-79244460D01*
X236297666Y-79237829D01*
X236409471Y-79205722D01*
X236533618Y-79174400D01*
X236672800Y-79143505D01*
X236829711Y-79112678D01*
X237007045Y-79081562D01*
X237207495Y-79049798D01*
X237433753Y-79017027D01*
X237688514Y-78982893D01*
X237974471Y-78947036D01*
X238294316Y-78909099D01*
X238650745Y-78868723D01*
X239046448Y-78825551D01*
X239484121Y-78779223D01*
X239966456Y-78729382D01*
X240496147Y-78675671D01*
X240614200Y-78663811D01*
X241124894Y-78612254D01*
X241588108Y-78564770D01*
X242006968Y-78520983D01*
X242384597Y-78480518D01*
X242724122Y-78443001D01*
X243028666Y-78408057D01*
X243301355Y-78375311D01*
X243545314Y-78344388D01*
X243763668Y-78314915D01*
X243959541Y-78286515D01*
X244136060Y-78258815D01*
X244296348Y-78231440D01*
X244435130Y-78205645D01*
X244543612Y-78182973D01*
X244633401Y-78161100D01*
X244692696Y-78143074D01*
X244709336Y-78134824D01*
X244697210Y-78119734D01*
X244644419Y-78099404D01*
X244560357Y-78077223D01*
X244533306Y-78071311D01*
X244389639Y-78043073D01*
X244226655Y-78014739D01*
X244042107Y-77986077D01*
X243833752Y-77956854D01*
X243599345Y-77926838D01*
X243336640Y-77895795D01*
X243043394Y-77863493D01*
X242717361Y-77829698D01*
X242356298Y-77794179D01*
X241957958Y-77756701D01*
X241520098Y-77717033D01*
X241040472Y-77674941D01*
X240516837Y-77630193D01*
X239946946Y-77582556D01*
X239344200Y-77533071D01*
X238723055Y-77482020D01*
X238150604Y-77433995D01*
X237624846Y-77388757D01*
X237143780Y-77346066D01*
X236705403Y-77305685D01*
X236307716Y-77267373D01*
X235948716Y-77230893D01*
X235626403Y-77196005D01*
X235338775Y-77162471D01*
X235083832Y-77130051D01*
X234859571Y-77098507D01*
X234663992Y-77067600D01*
X234495094Y-77037092D01*
X234350875Y-77006742D01*
X234229335Y-76976313D01*
X234128471Y-76945566D01*
X234046283Y-76914261D01*
X234007019Y-76896074D01*
X233921247Y-76845134D01*
X233875198Y-76792518D01*
X233859068Y-76725247D01*
X233858607Y-76699573D01*
X233873580Y-76630034D01*
G37*
X233873580Y-76630034D02*
X233919482Y-76570625D01*
X234001119Y-76518380D01*
X234123295Y-76470333D01*
X234290815Y-76423518D01*
X234315480Y-76417534D01*
X234453113Y-76387334D01*
X234615257Y-76356935D01*
X234804069Y-76326102D01*
X235021706Y-76294598D01*
X235270323Y-76262185D01*
X235552078Y-76228629D01*
X235869128Y-76193692D01*
X236223628Y-76157138D01*
X236617735Y-76118731D01*
X237053607Y-76078234D01*
X237533399Y-76035411D01*
X238059268Y-75990026D01*
X238633371Y-75941842D01*
X238721900Y-75934513D01*
X239330531Y-75884065D01*
X239890988Y-75837268D01*
X240405746Y-75793876D01*
X240877279Y-75753639D01*
X241308062Y-75716309D01*
X241700572Y-75681639D01*
X242057283Y-75649381D01*
X242380671Y-75619285D01*
X242673210Y-75591104D01*
X242937376Y-75564590D01*
X243175645Y-75539495D01*
X243390490Y-75515570D01*
X243584388Y-75492567D01*
X243759814Y-75470239D01*
X243919243Y-75448336D01*
X244065151Y-75426611D01*
X244200011Y-75404816D01*
X244326301Y-75382703D01*
X244440586Y-75361175D01*
X244549169Y-75340305D01*
X244638324Y-75323682D01*
X244696835Y-75313366D01*
X244713636Y-75311000D01*
X244728830Y-75291803D01*
X244729000Y-75288467D01*
X244704999Y-75275033D01*
X244637569Y-75255720D01*
X244533572Y-75231844D01*
X244399866Y-75204719D01*
X244243311Y-75175658D01*
X244070768Y-75145977D01*
X243889096Y-75116989D01*
X243705155Y-75090009D01*
X243662200Y-75084083D01*
X243445720Y-75055956D01*
X243179121Y-75023708D01*
X242862329Y-74987333D01*
X242495269Y-74946822D01*
X242077867Y-74902167D01*
X241610048Y-74853360D01*
X241091738Y-74800393D01*
X240614200Y-74752372D01*
X240038217Y-74694253D01*
X239510790Y-74639749D01*
X239029826Y-74588532D01*
X238593234Y-74540274D01*
X238198923Y-74494646D01*
X237844800Y-74451321D01*
X237528775Y-74409971D01*
X237248755Y-74370268D01*
X237002650Y-74331883D01*
X236788367Y-74294489D01*
X236603814Y-74257757D01*
X236446901Y-74221359D01*
X236315536Y-74184968D01*
X236207627Y-74148255D01*
X236121083Y-74110892D01*
X236053811Y-74072552D01*
X236003721Y-74032906D01*
X235999270Y-74028551D01*
X235933552Y-73942654D01*
X235917367Y-73861881D01*
X235950702Y-73780139D01*
X235998608Y-73723912D01*
X236052105Y-73680493D01*
X236126093Y-73638197D01*
X236223420Y-73596360D01*
X236346937Y-73554321D01*
X236499491Y-73511416D01*
X236683933Y-73466983D01*
X236903109Y-73420359D01*
X237159871Y-73370882D01*
X237457066Y-73317888D01*
X237797544Y-73260716D01*
X238184153Y-73198702D01*
X238404400Y-73164316D01*
X238850413Y-73094624D01*
X239249172Y-73030943D01*
X239603790Y-72972650D01*
X239917378Y-72919125D01*
X240193048Y-72869744D01*
X240433911Y-72823887D01*
X240643079Y-72780933D01*
X240823664Y-72740258D01*
X240978778Y-72701242D01*
X241111532Y-72663263D01*
X241225039Y-72625700D01*
X241322409Y-72587930D01*
X241350678Y-72575694D01*
X241490500Y-72513537D01*
X241422169Y-72454294D01*
X241361426Y-72415689D01*
X241252322Y-72363140D01*
X241095297Y-72296828D01*
X240890788Y-72216930D01*
X240639233Y-72123627D01*
X240423700Y-72046286D01*
X240137637Y-71938684D01*
X239900193Y-71835425D01*
X239709528Y-71734963D01*
X239563803Y-71635751D01*
X239461179Y-71536240D01*
X239399817Y-71434884D01*
X239377878Y-71330135D01*
X239393523Y-71220446D01*
X239404371Y-71188681D01*
X239444010Y-71111949D01*
X239505963Y-71020398D01*
X239571341Y-70940195D01*
X239695999Y-70802500D01*
X239791165Y-70896190D01*
X239886331Y-70989879D01*
X239791899Y-71094403D01*
X239712363Y-71189469D01*
X239669140Y-71261993D01*
X239658836Y-71321121D01*
X239678058Y-71375998D01*
X239683923Y-71385418D01*
X239734909Y-71433650D01*
X239830639Y-71493911D01*
X239967008Y-71564293D01*
X240139908Y-71642885D01*
X240345234Y-71727780D01*
X240578880Y-71817067D01*
X240728500Y-71871085D01*
X240992694Y-71967223D01*
X241211114Y-72053114D01*
X241387260Y-72130870D01*
X241524629Y-72202605D01*
X241626722Y-72270433D01*
X241697037Y-72336466D01*
X241739073Y-72402817D01*
X241756330Y-72471600D01*
X241757200Y-72492338D01*
X241747910Y-72563994D01*
X241718432Y-72631111D01*
X241666349Y-72694454D01*
X241589247Y-72754788D01*
X241484710Y-72812878D01*
X241350323Y-72869489D01*
X241183670Y-72925387D01*
X240982336Y-72981336D01*
X240743906Y-73038102D01*
X240465964Y-73096449D01*
X240146096Y-73157143D01*
X239781885Y-73220950D01*
X239370916Y-73288633D01*
X239115600Y-73329118D01*
X238712022Y-73392575D01*
X238354946Y-73449224D01*
X238040629Y-73499742D01*
X237765327Y-73544809D01*
X237525296Y-73585103D01*
X237316794Y-73621303D01*
X237136077Y-73654088D01*
X236979401Y-73684137D01*
X236843024Y-73712128D01*
X236723202Y-73738741D01*
X236616191Y-73764654D01*
X236518248Y-73790546D01*
X236427148Y-73816646D01*
X236238270Y-73872717D01*
X236337085Y-73907807D01*
X236439669Y-73940265D01*
X236566184Y-73972967D01*
X236718766Y-74006200D01*
X236899553Y-74040252D01*
X237110680Y-74075411D01*
X237354285Y-74111964D01*
X237632504Y-74150201D01*
X237947474Y-74190408D01*
X238301332Y-74232873D01*
X238696213Y-74277884D01*
X239134255Y-74325730D01*
X239617595Y-74376697D01*
X240148368Y-74431074D01*
X240436400Y-74460050D01*
X241011812Y-74517981D01*
X241538736Y-74571879D01*
X242019292Y-74622095D01*
X242455602Y-74668983D01*
X242849787Y-74712893D01*
X243203969Y-74754178D01*
X243520268Y-74793191D01*
X243800807Y-74830283D01*
X244047707Y-74865807D01*
X244263088Y-74900116D01*
X244449073Y-74933560D01*
X244607783Y-74966492D01*
X244741339Y-74999265D01*
X244851863Y-75032231D01*
X244941475Y-75065741D01*
X245012298Y-75100149D01*
X245066453Y-75135806D01*
X245106060Y-75173064D01*
X245133242Y-75212276D01*
X245146335Y-75241987D01*
X245156650Y-75303215D01*
X245133505Y-75360813D01*
X245119632Y-75380902D01*
X245085803Y-75419113D01*
X245040325Y-75455458D01*
X244981175Y-75490213D01*
X244906333Y-75523657D01*
X244813780Y-75556070D01*
X244701495Y-75587728D01*
X244567457Y-75618912D01*
X244409646Y-75649899D01*
X244226043Y-75680967D01*
X244014626Y-75712396D01*
X243773375Y-75744464D01*
X243500270Y-75777448D01*
X243193290Y-75811629D01*
X242850416Y-75847283D01*
X242469627Y-75884691D01*
X242048902Y-75924129D01*
X241586221Y-75965877D01*
X241079564Y-76010212D01*
X240526911Y-76057415D01*
X239926241Y-76107762D01*
X239725200Y-76124447D01*
X239154979Y-76171839D01*
X238632649Y-76215631D01*
X238155452Y-76256095D01*
X237720625Y-76293504D01*
X237325410Y-76328130D01*
X236967045Y-76360245D01*
X236642770Y-76390121D01*
X236349825Y-76418032D01*
X236085449Y-76444250D01*
X235846883Y-76469046D01*
X235631365Y-76492694D01*
X235436136Y-76515466D01*
X235258435Y-76537633D01*
X235095501Y-76559469D01*
X234944575Y-76581246D01*
X234802897Y-76603236D01*
X234698175Y-76620518D01*
X234527596Y-76649870D01*
X234407146Y-76673107D01*
X234336827Y-76692335D01*
X234316638Y-76709661D01*
X234346579Y-76727192D01*
X234426650Y-76747035D01*
X234556852Y-76771296D01*
X234698175Y-76795483D01*
X234833910Y-76817777D01*
X234974994Y-76839485D01*
X235124286Y-76860893D01*
X235284648Y-76882282D01*
X235458939Y-76903938D01*
X235650018Y-76926143D01*
X235860747Y-76949181D01*
X236093986Y-76973336D01*
X236352593Y-76998891D01*
X236639431Y-77026130D01*
X236957357Y-77055336D01*
X237309234Y-77086794D01*
X237697920Y-77120787D01*
X238126276Y-77157598D01*
X238597162Y-77197511D01*
X239113438Y-77240810D01*
X239583659Y-77279954D01*
X240178837Y-77329696D01*
X240725714Y-77376132D01*
X241226665Y-77419511D01*
X241684063Y-77460083D01*
X242100284Y-77498096D01*
X242477701Y-77533799D01*
X242818689Y-77567441D01*
X243125623Y-77599272D01*
X243400877Y-77629540D01*
X243646825Y-77658494D01*
X243865842Y-77686383D01*
X244060302Y-77713456D01*
X244232580Y-77739963D01*
X244385051Y-77766152D01*
X244520087Y-77792272D01*
X244570309Y-77802877D01*
X244742237Y-77842677D01*
X244872328Y-77879404D01*
X244969155Y-77916246D01*
X245041295Y-77956393D01*
X245090590Y-77996439D01*
X245148036Y-78074615D01*
X245155367Y-78153536D01*
X245121021Y-78226689D01*
X245089612Y-78263374D01*
X245046707Y-78298261D01*
X244990073Y-78331707D01*
X244917472Y-78364066D01*
X244826672Y-78395694D01*
X244715435Y-78426944D01*
X244581526Y-78458173D01*
X244422711Y-78489736D01*
X244236754Y-78521986D01*
X244021419Y-78555281D01*
X243774472Y-78589974D01*
X243493677Y-78626420D01*
X243176799Y-78664976D01*
X242821602Y-78705995D01*
X242425851Y-78749833D01*
X241987311Y-78796845D01*
X241503746Y-78847386D01*
X240972922Y-78901811D01*
X240690400Y-78930458D01*
X240166227Y-78983730D01*
X239689754Y-79032811D01*
X239258087Y-79078075D01*
X238868331Y-79119896D01*
X238517592Y-79158649D01*
X238202975Y-79194710D01*
X237921586Y-79228452D01*
X237670531Y-79260250D01*
X237446915Y-79290479D01*
X237247845Y-79319514D01*
X237070424Y-79347729D01*
X236911760Y-79375500D01*
X236768958Y-79403199D01*
X236639122Y-79431204D01*
X236519360Y-79459887D01*
X236439277Y-79480756D01*
X236341872Y-79507522D01*
X236287372Y-79525469D01*
X236269573Y-79538770D01*
X236282272Y-79551597D01*
X236313171Y-79565565D01*
X236390876Y-79593932D01*
X236495115Y-79624460D01*
X236628409Y-79657627D01*
X236793279Y-79693911D01*
X236992248Y-79733792D01*
X237227837Y-79777749D01*
X237502567Y-79826260D01*
X237818960Y-79879805D01*
X238179536Y-79938863D01*
X238586818Y-80003913D01*
X238785400Y-80035172D01*
X239236915Y-80107005D01*
X239640627Y-80173568D01*
X239999186Y-80235505D01*
X240315245Y-80293460D01*
X240591453Y-80348076D01*
X240830463Y-80399996D01*
X241034925Y-80449864D01*
X241207490Y-80498324D01*
X241350810Y-80546018D01*
X241467536Y-80593591D01*
X241560319Y-80641685D01*
X241631810Y-80690945D01*
X241681184Y-80737992D01*
X241743224Y-80839608D01*
X241755861Y-80943484D01*
X241720116Y-81045699D01*
X241637011Y-81142332D01*
X241561423Y-81198182D01*
X241490596Y-81240283D01*
X241409180Y-81282457D01*
X241310681Y-81327410D01*
X241188604Y-81377849D01*
X241036454Y-81436480D01*
X240847736Y-81506009D01*
X240665000Y-81571677D01*
X240412674Y-81663716D01*
X240204758Y-81744248D01*
X240036678Y-81815242D01*
X239903866Y-81878670D01*
X239801749Y-81936499D01*
X239770438Y-81957142D01*
X239696664Y-82017479D01*
X239661145Y-82075741D01*
X239664424Y-82140018D01*
X239707044Y-82218399D01*
X239789548Y-82318975D01*
X239795162Y-82325209D01*
X239886331Y-82426122D01*
X239696527Y-82613500D01*
X239573599Y-82481028D01*
X239460972Y-82338940D01*
X239396194Y-82205759D01*
X239379730Y-82080149D01*
X239412043Y-81960770D01*
X239493599Y-81846284D01*
X239624859Y-81735353D01*
X239806289Y-81626639D01*
X239883068Y-81588221D01*
X239993363Y-81538578D01*
X240138329Y-81478118D01*
X240304481Y-81412206D01*
X240478336Y-81346206D01*
X240625740Y-81292755D01*
X240883616Y-81199498D01*
X241093077Y-81119047D01*
X241254793Y-81051115D01*
X241369433Y-80995415D01*
X241437666Y-80951660D01*
X241451677Y-80937972D01*
X241462361Y-80910985D01*
X241439550Y-80884082D01*
X241382435Y-80851381D01*
X241301531Y-80814414D01*
X241202604Y-80777463D01*
X241082718Y-80739928D01*
X240938935Y-80701208D01*
X240768319Y-80660701D01*
X240567933Y-80617806D01*
X240334841Y-80571923D01*
X240066104Y-80522449D01*
X239758787Y-80468785D01*
X239409952Y-80410328D01*
X239016663Y-80346478D01*
X238575983Y-80276634D01*
X238569500Y-80275616D01*
X238168459Y-80212104D01*
X237814326Y-80154684D01*
X237503665Y-80102659D01*
X237233040Y-80055328D01*
X236999015Y-80011994D01*
X236798153Y-79971958D01*
X236627018Y-79934520D01*
X236482176Y-79898981D01*
X236360188Y-79864643D01*
X236257621Y-79830808D01*
X236171036Y-79796775D01*
X236134588Y-79780373D01*
X236013236Y-79707304D01*
X235940733Y-79627627D01*
X235916098Y-79544609D01*
X235938348Y-79461517D01*
X236006502Y-79381617D01*
X236119578Y-79308176D01*
X236276595Y-79244460D01*
X236297666Y-79237829D01*
X236409471Y-79205722D01*
X236533618Y-79174400D01*
X236672800Y-79143505D01*
X236829711Y-79112678D01*
X237007045Y-79081562D01*
X237207495Y-79049798D01*
X237433753Y-79017027D01*
X237688514Y-78982893D01*
X237974471Y-78947036D01*
X238294316Y-78909099D01*
X238650745Y-78868723D01*
X239046448Y-78825551D01*
X239484121Y-78779223D01*
X239966456Y-78729382D01*
X240496147Y-78675671D01*
X240614200Y-78663811D01*
X241124894Y-78612254D01*
X241588108Y-78564770D01*
X242006968Y-78520983D01*
X242384597Y-78480518D01*
X242724122Y-78443001D01*
X243028666Y-78408057D01*
X243301355Y-78375311D01*
X243545314Y-78344388D01*
X243763668Y-78314915D01*
X243959541Y-78286515D01*
X244136060Y-78258815D01*
X244296348Y-78231440D01*
X244435130Y-78205645D01*
X244543612Y-78182973D01*
X244633401Y-78161100D01*
X244692696Y-78143074D01*
X244709336Y-78134824D01*
X244697210Y-78119734D01*
X244644419Y-78099404D01*
X244560357Y-78077223D01*
X244533306Y-78071311D01*
X244389639Y-78043073D01*
X244226655Y-78014739D01*
X244042107Y-77986077D01*
X243833752Y-77956854D01*
X243599345Y-77926838D01*
X243336640Y-77895795D01*
X243043394Y-77863493D01*
X242717361Y-77829698D01*
X242356298Y-77794179D01*
X241957958Y-77756701D01*
X241520098Y-77717033D01*
X241040472Y-77674941D01*
X240516837Y-77630193D01*
X239946946Y-77582556D01*
X239344200Y-77533071D01*
X238723055Y-77482020D01*
X238150604Y-77433995D01*
X237624846Y-77388757D01*
X237143780Y-77346066D01*
X236705403Y-77305685D01*
X236307716Y-77267373D01*
X235948716Y-77230893D01*
X235626403Y-77196005D01*
X235338775Y-77162471D01*
X235083832Y-77130051D01*
X234859571Y-77098507D01*
X234663992Y-77067600D01*
X234495094Y-77037092D01*
X234350875Y-77006742D01*
X234229335Y-76976313D01*
X234128471Y-76945566D01*
X234046283Y-76914261D01*
X234007019Y-76896074D01*
X233921247Y-76845134D01*
X233875198Y-76792518D01*
X233859068Y-76725247D01*
X233858607Y-76699573D01*
X233873580Y-76630034D01*
G36*
X232798508Y-76542900D02*
G01*
X232806894Y-76270336D01*
X232819840Y-76035002D01*
X232838977Y-75823415D01*
X232865934Y-75622091D01*
X232902340Y-75417544D01*
X232949826Y-75196292D01*
X232973475Y-75095100D01*
X233135023Y-74524716D01*
X233343046Y-73972109D01*
X233595732Y-73440259D01*
X233891270Y-72932147D01*
X234227851Y-72450754D01*
X234603664Y-71999061D01*
X235016897Y-71580048D01*
X235217971Y-71400027D01*
X235309765Y-71323263D01*
X235417560Y-71236636D01*
X235533972Y-71145680D01*
X235651616Y-71055925D01*
X235763108Y-70972903D01*
X235861064Y-70902147D01*
X235938099Y-70849187D01*
X235986829Y-70819555D01*
X235998674Y-70815200D01*
X236019342Y-70834742D01*
X236054599Y-70883811D01*
X236069519Y-70907207D01*
X236103116Y-70967119D01*
X236108972Y-71000033D01*
X236089415Y-71019896D01*
X236088428Y-71020454D01*
X236036060Y-71053798D01*
X235953615Y-71110896D01*
X235851167Y-71184381D01*
X235738793Y-71266886D01*
X235626566Y-71351044D01*
X235524561Y-71429487D01*
X235470700Y-71472159D01*
X235327781Y-71594772D01*
X235164271Y-71747544D01*
X234990211Y-71920107D01*
X234815639Y-72102094D01*
X234650595Y-72283134D01*
X234505118Y-72452862D01*
X234429300Y-72547672D01*
X234090760Y-73026788D01*
X233797226Y-73527296D01*
X233549140Y-74046341D01*
X233346944Y-74581072D01*
X233191081Y-75128636D01*
X233081995Y-75686180D01*
X233020127Y-76250850D01*
X233005920Y-76819795D01*
X233039817Y-77390161D01*
X233122260Y-77959096D01*
X233253693Y-78523748D01*
X233421109Y-79044800D01*
X233517631Y-79287201D01*
X233636657Y-79551945D01*
X233770312Y-79823409D01*
X233910719Y-80085968D01*
X234050003Y-80323997D01*
X234125270Y-80441800D01*
X234433640Y-80869218D01*
X234774218Y-81273533D01*
X235140298Y-81647887D01*
X235525176Y-81985422D01*
X235920691Y-82278299D01*
X236005814Y-82336986D01*
X236071984Y-82385191D01*
X236109935Y-82416029D01*
X236115437Y-82423000D01*
X236102503Y-82450823D01*
X236072053Y-82503690D01*
X236063316Y-82517978D01*
X236039775Y-82554468D01*
X236017556Y-82575960D01*
X235989207Y-82579964D01*
X235947274Y-82563990D01*
X235884305Y-82525549D01*
X235792846Y-82462150D01*
X235701722Y-82397191D01*
X235244643Y-82039919D01*
X234819524Y-81644856D01*
X234428566Y-81215381D01*
X234073966Y-80754870D01*
X233757923Y-80266703D01*
X233482638Y-79754256D01*
X233250308Y-79220909D01*
X233063133Y-78670040D01*
X232930521Y-78140207D01*
X232875656Y-77849440D01*
X232835982Y-77572690D01*
X232810297Y-77295432D01*
X232797403Y-77003138D01*
X232796097Y-76681282D01*
X232798508Y-76542900D01*
G37*
X232798508Y-76542900D02*
X232806894Y-76270336D01*
X232819840Y-76035002D01*
X232838977Y-75823415D01*
X232865934Y-75622091D01*
X232902340Y-75417544D01*
X232949826Y-75196292D01*
X232973475Y-75095100D01*
X233135023Y-74524716D01*
X233343046Y-73972109D01*
X233595732Y-73440259D01*
X233891270Y-72932147D01*
X234227851Y-72450754D01*
X234603664Y-71999061D01*
X235016897Y-71580048D01*
X235217971Y-71400027D01*
X235309765Y-71323263D01*
X235417560Y-71236636D01*
X235533972Y-71145680D01*
X235651616Y-71055925D01*
X235763108Y-70972903D01*
X235861064Y-70902147D01*
X235938099Y-70849187D01*
X235986829Y-70819555D01*
X235998674Y-70815200D01*
X236019342Y-70834742D01*
X236054599Y-70883811D01*
X236069519Y-70907207D01*
X236103116Y-70967119D01*
X236108972Y-71000033D01*
X236089415Y-71019896D01*
X236088428Y-71020454D01*
X236036060Y-71053798D01*
X235953615Y-71110896D01*
X235851167Y-71184381D01*
X235738793Y-71266886D01*
X235626566Y-71351044D01*
X235524561Y-71429487D01*
X235470700Y-71472159D01*
X235327781Y-71594772D01*
X235164271Y-71747544D01*
X234990211Y-71920107D01*
X234815639Y-72102094D01*
X234650595Y-72283134D01*
X234505118Y-72452862D01*
X234429300Y-72547672D01*
X234090760Y-73026788D01*
X233797226Y-73527296D01*
X233549140Y-74046341D01*
X233346944Y-74581072D01*
X233191081Y-75128636D01*
X233081995Y-75686180D01*
X233020127Y-76250850D01*
X233005920Y-76819795D01*
X233039817Y-77390161D01*
X233122260Y-77959096D01*
X233253693Y-78523748D01*
X233421109Y-79044800D01*
X233517631Y-79287201D01*
X233636657Y-79551945D01*
X233770312Y-79823409D01*
X233910719Y-80085968D01*
X234050003Y-80323997D01*
X234125270Y-80441800D01*
X234433640Y-80869218D01*
X234774218Y-81273533D01*
X235140298Y-81647887D01*
X235525176Y-81985422D01*
X235920691Y-82278299D01*
X236005814Y-82336986D01*
X236071984Y-82385191D01*
X236109935Y-82416029D01*
X236115437Y-82423000D01*
X236102503Y-82450823D01*
X236072053Y-82503690D01*
X236063316Y-82517978D01*
X236039775Y-82554468D01*
X236017556Y-82575960D01*
X235989207Y-82579964D01*
X235947274Y-82563990D01*
X235884305Y-82525549D01*
X235792846Y-82462150D01*
X235701722Y-82397191D01*
X235244643Y-82039919D01*
X234819524Y-81644856D01*
X234428566Y-81215381D01*
X234073966Y-80754870D01*
X233757923Y-80266703D01*
X233482638Y-79754256D01*
X233250308Y-79220909D01*
X233063133Y-78670040D01*
X232930521Y-78140207D01*
X232875656Y-77849440D01*
X232835982Y-77572690D01*
X232810297Y-77295432D01*
X232797403Y-77003138D01*
X232796097Y-76681282D01*
X232798508Y-76542900D01*
%TD*%
M02*
